SplineFontDB: 3.0
FontName: Material-Design-Iconic-Font
FullName: Material-Design-Iconic-Font
FamilyName: Material-Design-Iconic-Font
Weight: Medium
Copyright: 
Version: 001.000
ItalicAngle: 0
UnderlinePosition: 0
UnderlineWidth: 0
Ascent: 1536
Descent: 256
sfntRevision: 0x00010000
LayerCount: 2
Layer: 0 1 "Back"  1
Layer: 1 1 "Fore"  0
XUID: [1021 60 1363599177 7078165]
FSType: 0
OS2Version: 4
OS2_WeightWidthSlopeOnly: 0
OS2_UseTypoMetrics: 1
CreationTime: 1446955889
ModificationTime: 1460116538
PfmFamily: 17
TTFWeight: 400
TTFWidth: 5
LineGap: 161
VLineGap: 0
Panose: 2 0 6 3 0 0 0 0 0 0
OS2TypoAscent: 1568
OS2TypoAOffset: 0
OS2TypoDescent: -224
OS2TypoDOffset: 0
OS2TypoLinegap: 161
OS2WinAscent: 1572
OS2WinAOffset: 0
OS2WinDescent: 224
OS2WinDOffset: 0
HheadAscent: 1572
HheadAOffset: 0
HheadDescent: -224
HheadDOffset: 0
OS2SubXSize: 1162
OS2SubYSize: 1253
OS2SubXOff: 0
OS2SubYOff: 248
OS2SupXSize: 1162
OS2SupYSize: 1253
OS2SupXOff: 0
OS2SupYOff: 858
OS2StrikeYSize: 88
OS2StrikeYPos: 462
OS2Vendor: 'PfEd'
OS2CodePages: 00000001.00000000
OS2UnicodeRanges: 00000000.10000000.00000000.00000000
MarkAttachClasses: 1
DEI: 91125
ShortTable: cvt  2
  17
  324
EndShort
ShortTable: maxp 16
  1
  0
  780
  254
  24
  0
  0
  2
  0
  1
  1
  0
  64
  46
  0
  0
EndShort
LangName: 1033 "" "" "" "FontForge 2.0 : Material-Design-Iconic-Font : 8-11-2015" 
GaspTable: 1 65535 2 0
Encoding: UnicodeBmp
UnicodeInterp: none
NameList: Adobe Glyph List
DisplaySize: -48
AntiAlias: 1
FitToEm: 1
WinInfo: 61575 25 14
BeginPrivate: 0
EndPrivate
TeXData: 1 0 0 1211105 605553 403700 0 3670016 403700 783286 444596 497025 792723 393216 433062 380633 303038 157286 324010 404750 52429 2506097 1059062 262144
BeginChars: 65539 780

StartChar: .notdef
Encoding: 65536 -1 0
Width: 654
Flags: W
LayerCount: 2
Fore
SplineSet
60 0 m 1,0,-1
 60 1194 l 1,1,-1
 536 1194 l 1,2,-1
 536 0 l 1,3,-1
 60 0 l 1,0,-1
119 60 m 1,4,-1
 476 60 l 1,5,-1
 476 1134 l 1,6,-1
 119 1134 l 1,7,-1
 119 60 l 1,4,-1
EndSplineSet
EndChar

StartChar: uniF101
Encoding: 61697 61697 3
Width: 1785
Flags: W
LayerCount: 2
Fore
SplineSet
556 -35 m 1,0,-1
 658 63 l 1,1,-1
 942 -220 l 1,2,-1
 892 -224 l 1,3,4
 542 -224 542 -224 285 14 c 128,-1,5
 28 252 28 252 0 598 c 1,6,-1
 112 598 l 1,7,8
 133 388 133 388 251.5 220.5 c 128,-1,9
 370 53 370 53 556 -35 c 1,0,-1
623 452 m 0,10,11
 672 452 672 452 696 476 c 256,12,13
 720 500 720 500 721 546 c 0,14,15
 721 570 721 570 714 588 c 128,-1,16
 707 606 707 606 693 616 c 0,17,18
 679 630 679 630 659.5 635 c 128,-1,19
 640 640 640 640 612 640 c 2,20,-1
 556 640 l 1,21,-1
 556 718 l 1,22,-1
 612 718 l 2,23,24
 640 718 640 718 658 725 c 128,-1,25
 676 732 676 732 686 742 c 0,26,27
 700 752 700 752 707 770 c 256,28,29
 714 788 714 788 714 805 c 0,30,31
 714 848 714 848 690 872 c 0,32,33
 669 892 669 892 623 892 c 0,34,35
 605 892 605 892 588 886 c 0,36,37
 574 882 574 882 560 872 c 0,38,39
 550 862 550 862 542 844 c 0,40,41
 536 830 536 830 536 812 c 1,42,-1
 438 812 l 1,43,44
 438 847 438 847 452 875 c 256,45,46
 466 903 466 903 490 924 c 256,47,48
 514 945 514 945 550 959 c 0,49,50
 582 970 582 970 623 970 c 0,51,52
 661 970 661 970 700 959 c 0,53,54
 735 950 735 950 756 928 c 0,55,56
 780 907 780 907 794 875.5 c 128,-1,57
 808 844 808 844 808 805 c 0,58,59
 808 787 808 787 802 770 c 0,60,61
 798 752 798 752 788 735 c 0,62,63
 774 718 774 718 760 704 c 0,64,65
 742 690 742 690 721 679 c 1,66,67
 744 668 744 668 766 654 c 0,68,69
 784 640 784 640 794 623 c 0,70,71
 804 608 804 608 812 584 c 0,72,73
 819 566 819 566 819 542 c 0,74,75
 820 504 820 504 802 472 c 0,76,77
 788 440 788 440 761.5 418 c 128,-1,78
 735 396 735 396 700 385 c 256,79,80
 665 374 665 374 623 374 c 0,81,82
 586 374 586 374 550 385 c 0,83,84
 518 394 518 394 490 416 c 256,85,86
 462 437 462 437 448 467 c 128,-1,87
 434 497 434 497 434 539 c 1,88,-1
 528 539 l 1,89,90
 528 518 528 518 535 502 c 128,-1,91
 542 486 542 486 556 476 c 0,92,93
 566 466 566 466 584 458 c 256,94,95
 602 452 602 452 623 452 c 0,10,11
1261.5 894.5 m 128,-1,97
 1298 858 1298 858 1320 805 c 1,98,99
 1338 749 1338 749 1337 686 c 2,100,-1
 1337 658 l 2,101,102
 1338 592 1338 592 1320 539 c 0,103,104
 1300 488 1300 488 1264 452 c 0,105,106
 1229 414 1229 414 1176 392 c 0,107,108
 1127 374 1127 374 1064 374 c 2,109,-1
 892 374 l 1,110,-1
 892 970 l 1,111,-1
 1068 970 l 2,112,113
 1131 970 1131 970 1178 950.5 c 128,-1,96
 1225 931 1225 931 1261.5 894.5 c 128,-1,97
1232 658 m 2,114,-1
 1232 686 l 2,115,116
 1232 784 1232 784 1190 836 c 0,117,118
 1148 886 1148 886 1068 886 c 2,119,-1
 998 886 l 1,120,-1
 998 455 l 1,121,-1
 1064 455 l 2,122,123
 1106 455 1106 455 1138 469 c 256,124,125
 1170 484 1170 484 1190 508 c 0,126,127
 1212 536 1212 536 1222 574 c 256,128,129
 1232 612 1232 612 1232 658 c 2,114,-1
892 1568 m 1,130,131
 1242 1568 1242 1568 1499.5 1330 c 128,-1,132
 1757 1092 1757 1092 1785 749 c 1,133,-1
 1673 749 l 1,134,135
 1652 955 1652 955 1531 1123.5 c 128,-1,136
 1410 1292 1410 1292 1228 1379 c 1,137,-1
 1127 1281 l 1,138,-1
 844 1564 l 1,139,-1
 892 1568 l 1,130,131
EndSplineSet
EndChar

StartChar: uniF102
Encoding: 61698 61698 4
Width: 1417
Flags: W
LayerCount: 2
Fore
SplineSet
822 896 m 1,0,-1
 1418 522 l 1,1,-1
 1418 374 l 1,2,-1
 1183 448 l 1,3,-1
 598 1032 l 1,4,-1
 598 1306 l 2,5,6
 598 1355 598 1355 630 1386.5 c 128,-1,7
 662 1418 662 1418 709 1418 c 128,-1,8
 756 1418 756 1418 789 1386 c 128,-1,9
 822 1354 822 1354 822 1306 c 2,10,-1
 822 896 l 1,0,-1
74 1176 m 1,11,-1
 168 1270 l 1,12,-1
 1344 94 l 1,13,-1
 1250 0 l 1,14,-1
 822 427 l 1,15,-1
 822 150 l 1,16,-1
 970 38 l 1,17,-1
 970 -74 l 1,18,-1
 710 0 l 1,19,-1
 448 -74 l 1,20,-1
 448 38 l 1,21,-1
 598 150 l 1,22,-1
 598 560 l 1,23,-1
 0 374 l 1,24,-1
 0 522 l 1,25,-1
 448 802 l 1,26,-1
 74 1176 l 1,11,-1
EndSplineSet
EndChar

StartChar: uniF103
Encoding: 61699 61699 5
Width: 1417
Flags: W
LayerCount: 2
Fore
SplineSet
612 896 m 0,0,-1
1418 374 m 1,1,-1
 822 560 l 1,2,-1
 822 150 l 1,3,-1
 970 38 l 1,4,-1
 970 -74 l 1,5,-1
 710 0 l 1,6,-1
 448 -74 l 1,7,-1
 448 38 l 1,8,-1
 598 150 l 1,9,-1
 598 560 l 1,10,-1
 0 374 l 1,11,-1
 0 522 l 1,12,-1
 598 896 l 1,13,-1
 598 1306 l 2,14,15
 598 1355 598 1355 630 1386.5 c 128,-1,16
 662 1418 662 1418 709 1418 c 128,-1,17
 756 1418 756 1418 789 1386 c 128,-1,18
 822 1354 822 1354 822 1306 c 2,19,-1
 822 896 l 1,20,-1
 1418 522 l 1,21,-1
 1418 374 l 1,1,-1
EndSplineSet
EndChar

StartChar: uniF104
Encoding: 61700 61700 6
Width: 1494
Flags: W
LayerCount: 2
Fore
SplineSet
747.5 1418 m 128,-1,1
 1057 1418 1057 1418 1275.5 1199 c 128,-1,2
 1494 980 1494 980 1494 672 c 128,-1,3
 1494 364 1494 364 1275.5 145 c 128,-1,4
 1057 -74 1057 -74 747.5 -74 c 128,-1,5
 438 -74 438 -74 219 145 c 128,-1,6
 0 364 0 364 0 672 c 128,-1,7
 0 980 0 980 219 1199 c 128,-1,0
 438 1418 438 1418 747.5 1418 c 128,-1,1
746 336 m 128,-1,9
 886 336 886 336 984 434 c 128,-1,10
 1082 532 1082 532 1082 672 c 128,-1,11
 1082 812 1082 812 984 910 c 128,-1,12
 886 1008 886 1008 746 1008 c 128,-1,13
 606 1008 606 1008 508 910 c 128,-1,14
 410 812 410 812 410 672 c 128,-1,15
 410 532 410 532 508 434 c 128,-1,8
 606 336 606 336 746 336 c 128,-1,9
747.5 746 m 128,-1,17
 777 746 777 746 799.5 725 c 128,-1,18
 822 704 822 704 822 672 c 128,-1,19
 822 640 822 640 799.5 619 c 128,-1,20
 777 598 777 598 747.5 598 c 128,-1,21
 718 598 718 598 695 619 c 128,-1,22
 672 640 672 640 672 672 c 128,-1,23
 672 704 672 704 695 725 c 128,-1,16
 718 746 718 746 747.5 746 c 128,-1,17
EndSplineSet
EndChar

StartChar: uniF105
Encoding: 61701 61701 7
Width: 1344
Flags: W
LayerCount: 2
Fore
SplineSet
1309 1176 m 2,0,1
 1344 1138 1344 1138 1344 1082 c 2,2,-1
 1344 150 l 2,3,4
 1344 87 1344 87 1300 43.5 c 128,-1,5
 1256 0 1256 0 1194 0 c 2,6,-1
 150 0 l 2,7,8
 87 0 87 0 43.5 44 c 128,-1,9
 0 88 0 88 0 150 c 2,10,-1
 0 1082 l 2,11,12
 0 1138 0 1138 35 1176 c 2,13,-1
 136 1302 l 2,14,15
 171 1344 171 1344 224 1344 c 2,16,-1
 1120 1344 l 2,17,18
 1172 1344 1172 1344 1208 1302 c 2,19,-1
 1309 1176 l 2,0,1
672 262 m 1,20,-1
 1082 672 l 1,21,-1
 822 672 l 1,22,-1
 822 822 l 1,23,-1
 522 822 l 1,24,-1
 522 672 l 1,25,-1
 262 672 l 1,26,-1
 672 262 l 1,20,-1
158 1194 m 1,27,-1
 1186 1194 l 1,28,-1
 1116 1270 l 1,29,-1
 220 1270 l 1,30,-1
 158 1194 l 1,27,-1
EndSplineSet
EndChar

StartChar: uniF106
Encoding: 61702 61702 8
Width: 1344
Flags: W
LayerCount: 2
Fore
SplineSet
1194 1344 m 2,0,1
 1257 1344 1257 1344 1300.5 1300 c 128,-1,2
 1344 1256 1344 1256 1344 1194 c 2,3,-1
 1344 150 l 2,4,5
 1344 87 1344 87 1300 43.5 c 128,-1,6
 1256 0 1256 0 1194 0 c 2,7,-1
 150 0 l 2,8,9
 87 0 87 0 43.5 44 c 128,-1,10
 0 88 0 88 0 150 c 2,11,-1
 0 1194 l 2,12,13
 0 1257 0 1257 44 1300.5 c 128,-1,14
 88 1344 88 1344 150 1344 c 2,15,-1
 462 1344 l 1,16,17
 486 1410 486 1410 544 1452 c 128,-1,18
 602 1494 602 1494 672 1494 c 128,-1,19
 742 1494 742 1494 800 1452 c 128,-1,20
 858 1410 858 1410 882 1344 c 1,21,-1
 1194 1344 l 2,0,1
672 1344 m 128,-1,23
 640 1344 640 1344 619 1321 c 128,-1,24
 598 1298 598 1298 598 1268.5 c 128,-1,25
 598 1239 598 1239 619 1216.5 c 128,-1,26
 640 1194 640 1194 672 1194 c 128,-1,27
 704 1194 704 1194 725 1216.5 c 128,-1,28
 746 1239 746 1239 746 1268.5 c 128,-1,29
 746 1298 746 1298 725 1321 c 128,-1,22
 704 1344 704 1344 672 1344 c 128,-1,23
672 1046 m 128,-1,31
 578 1046 578 1046 513 980 c 128,-1,32
 448 914 448 914 448 821 c 128,-1,33
 448 728 448 728 513 663 c 128,-1,34
 578 598 578 598 672 598 c 128,-1,35
 766 598 766 598 831 663 c 128,-1,36
 896 728 896 728 896 821 c 128,-1,37
 896 914 896 914 831 980 c 128,-1,30
 766 1046 766 1046 672 1046 c 128,-1,31
1120 150 m 1,38,-1
 1120 256 l 2,39,40
 1120 322 1120 322 1038 378 c 128,-1,41
 956 434 956 434 854 460 c 128,-1,42
 752 486 752 486 672 486 c 128,-1,43
 592 486 592 486 490 460 c 128,-1,44
 388 434 388 434 306 378 c 128,-1,45
 224 322 224 322 224 256 c 2,46,-1
 224 150 l 1,47,-1
 1120 150 l 1,38,-1
EndSplineSet
EndChar

StartChar: uniF107
Encoding: 61703 61703 9
Width: 1344
Flags: W
LayerCount: 2
Fore
SplineSet
1194 1344 m 2,0,1
 1257 1344 1257 1344 1300.5 1300 c 128,-1,2
 1344 1256 1344 1256 1344 1194 c 2,3,-1
 1344 150 l 2,4,5
 1344 87 1344 87 1300 43.5 c 128,-1,6
 1256 0 1256 0 1194 0 c 2,7,-1
 150 0 l 2,8,9
 87 0 87 0 43.5 44 c 128,-1,10
 0 88 0 88 0 150 c 2,11,-1
 0 1194 l 2,12,13
 0 1257 0 1257 44 1300.5 c 128,-1,14
 88 1344 88 1344 150 1344 c 2,15,-1
 462 1344 l 1,16,17
 486 1410 486 1410 544 1452 c 128,-1,18
 602 1494 602 1494 672 1494 c 128,-1,19
 742 1494 742 1494 800 1452 c 128,-1,20
 858 1410 858 1410 882 1344 c 1,21,-1
 1194 1344 l 2,0,1
746 224 m 1,22,-1
 746 374 l 1,23,-1
 598 374 l 1,24,-1
 598 224 l 1,25,-1
 746 224 l 1,22,-1
746 522 m 1,26,-1
 746 970 l 1,27,-1
 598 970 l 1,28,-1
 598 522 l 1,29,-1
 746 522 l 1,26,-1
672 1194 m 128,-1,31
 704 1194 704 1194 725 1216.5 c 128,-1,32
 746 1239 746 1239 746 1268.5 c 128,-1,33
 746 1298 746 1298 725 1321 c 128,-1,34
 704 1344 704 1344 672 1344 c 128,-1,35
 640 1344 640 1344 619 1321 c 128,-1,36
 598 1298 598 1298 598 1268.5 c 128,-1,37
 598 1239 598 1239 619 1216.5 c 128,-1,30
 640 1194 640 1194 672 1194 c 128,-1,31
EndSplineSet
EndChar

StartChar: uniF108
Encoding: 61704 61704 10
Width: 1344
Flags: W
LayerCount: 2
Fore
SplineSet
1194 1344 m 2,0,1
 1257 1344 1257 1344 1300.5 1300 c 128,-1,2
 1344 1256 1344 1256 1344 1194 c 2,3,-1
 1344 150 l 2,4,5
 1344 87 1344 87 1300 43.5 c 128,-1,6
 1256 0 1256 0 1194 0 c 2,7,-1
 150 0 l 2,8,9
 87 0 87 0 43.5 44 c 128,-1,10
 0 88 0 88 0 150 c 2,11,-1
 0 1194 l 2,12,13
 0 1257 0 1257 44 1300.5 c 128,-1,14
 88 1344 88 1344 150 1344 c 2,15,-1
 462 1344 l 1,16,17
 486 1410 486 1410 544 1452 c 128,-1,18
 602 1494 602 1494 672 1494 c 128,-1,19
 742 1494 742 1494 800 1452 c 128,-1,20
 858 1410 858 1410 882 1344 c 1,21,-1
 1194 1344 l 2,0,1
672 1344 m 128,-1,23
 640 1344 640 1344 619 1321 c 128,-1,24
 598 1298 598 1298 598 1268.5 c 128,-1,25
 598 1239 598 1239 619 1216.5 c 128,-1,26
 640 1194 640 1194 672 1194 c 128,-1,27
 704 1194 704 1194 725 1216.5 c 128,-1,28
 746 1239 746 1239 746 1268.5 c 128,-1,29
 746 1298 746 1298 725 1321 c 128,-1,22
 704 1344 704 1344 672 1344 c 128,-1,23
522 298 m 1,30,-1
 1120 896 l 1,31,-1
 1015 1001 l 1,32,-1
 522 511 l 1,33,-1
 329 704 l 1,34,-1
 224 598 l 1,35,-1
 522 298 l 1,30,-1
EndSplineSet
EndChar

StartChar: uniF109
Encoding: 61705 61705 11
Width: 1344
Flags: W
LayerCount: 2
Fore
SplineSet
1194 1418 m 2,0,1
 1257 1418 1257 1418 1300.5 1374 c 128,-1,2
 1344 1330 1344 1330 1344 1270 c 2,3,-1
 1344 74 l 2,4,5
 1344 14 1344 14 1300 -30 c 128,-1,6
 1256 -74 1256 -74 1194 -74 c 2,7,-1
 150 -74 l 2,8,9
 87 -74 87 -74 43.5 -30 c 128,-1,10
 0 14 0 14 0 74 c 2,11,-1
 0 1270 l 2,12,13
 0 1330 0 1330 44 1374 c 128,-1,14
 88 1418 88 1418 150 1418 c 2,15,-1
 462 1418 l 1,16,17
 486 1484 486 1484 544 1526 c 128,-1,18
 602 1568 602 1568 672 1568 c 128,-1,19
 742 1568 742 1568 800 1526 c 128,-1,20
 858 1484 858 1484 882 1418 c 1,21,-1
 1194 1418 l 2,0,1
672 1418 m 128,-1,23
 640 1418 640 1418 619 1397 c 128,-1,24
 598 1376 598 1376 598 1344 c 128,-1,25
 598 1312 598 1312 619 1291 c 128,-1,26
 640 1270 640 1270 672 1270 c 128,-1,27
 704 1270 704 1270 725 1291 c 128,-1,28
 746 1312 746 1312 746 1344 c 128,-1,29
 746 1376 746 1376 725 1397 c 128,-1,22
 704 1418 704 1418 672 1418 c 128,-1,23
1194 74 m 1,30,-1
 1194 1270 l 1,31,-1
 1046 1270 l 1,32,-1
 1046 1046 l 1,33,-1
 298 1046 l 1,34,-1
 298 1270 l 1,35,-1
 150 1270 l 1,36,-1
 150 74 l 1,37,-1
 1194 74 l 1,30,-1
EndSplineSet
EndChar

StartChar: uniF10A
Encoding: 61706 61706 12
Width: 1344
Flags: W
LayerCount: 2
Fore
SplineSet
1194 1344 m 2,0,1
 1257 1344 1257 1344 1300.5 1300 c 128,-1,2
 1344 1256 1344 1256 1344 1194 c 2,3,-1
 1344 150 l 2,4,5
 1344 87 1344 87 1300 43.5 c 128,-1,6
 1256 0 1256 0 1194 0 c 2,7,-1
 150 0 l 2,8,9
 87 0 87 0 43.5 44 c 128,-1,10
 0 88 0 88 0 150 c 2,11,-1
 0 1194 l 2,12,13
 0 1257 0 1257 44 1300.5 c 128,-1,14
 88 1344 88 1344 150 1344 c 2,15,-1
 462 1344 l 1,16,17
 486 1410 486 1410 544 1452 c 128,-1,18
 602 1494 602 1494 672 1494 c 128,-1,19
 742 1494 742 1494 800 1452 c 128,-1,20
 858 1410 858 1410 882 1344 c 1,21,-1
 1194 1344 l 2,0,1
672 1344 m 128,-1,23
 640 1344 640 1344 619 1321 c 128,-1,24
 598 1298 598 1298 598 1268.5 c 128,-1,25
 598 1239 598 1239 619 1216.5 c 128,-1,26
 640 1194 640 1194 672 1194 c 128,-1,27
 704 1194 704 1194 725 1216.5 c 128,-1,28
 746 1239 746 1239 746 1268.5 c 128,-1,29
 746 1298 746 1298 725 1321 c 128,-1,22
 704 1344 704 1344 672 1344 c 128,-1,23
970 448 m 1,30,-1
 970 746 l 1,31,-1
 672 746 l 1,32,-1
 672 970 l 1,33,-1
 298 598 l 1,34,-1
 672 224 l 1,35,-1
 672 448 l 1,36,-1
 970 448 l 1,30,-1
EndSplineSet
EndChar

StartChar: uniF10B
Encoding: 61707 61707 13
Width: 1344
Flags: W
LayerCount: 2
Fore
SplineSet
1194 1344 m 2,0,1
 1257 1344 1257 1344 1300.5 1300 c 128,-1,2
 1344 1256 1344 1256 1344 1194 c 2,3,-1
 1344 150 l 2,4,5
 1344 87 1344 87 1300 43.5 c 128,-1,6
 1256 0 1256 0 1194 0 c 2,7,-1
 150 0 l 2,8,9
 87 0 87 0 43.5 44 c 128,-1,10
 0 88 0 88 0 150 c 2,11,-1
 0 1194 l 2,12,13
 0 1257 0 1257 44 1300.5 c 128,-1,14
 88 1344 88 1344 150 1344 c 2,15,-1
 462 1344 l 1,16,17
 486 1410 486 1410 544 1452 c 128,-1,18
 602 1494 602 1494 672 1494 c 128,-1,19
 742 1494 742 1494 800 1452 c 128,-1,20
 858 1410 858 1410 882 1344 c 1,21,-1
 1194 1344 l 2,0,1
672 1344 m 128,-1,23
 640 1344 640 1344 619 1321 c 128,-1,24
 598 1298 598 1298 598 1268.5 c 128,-1,25
 598 1239 598 1239 619 1216.5 c 128,-1,26
 640 1194 640 1194 672 1194 c 128,-1,27
 704 1194 704 1194 725 1216.5 c 128,-1,28
 746 1239 746 1239 746 1268.5 c 128,-1,29
 746 1298 746 1298 725 1321 c 128,-1,22
 704 1344 704 1344 672 1344 c 128,-1,23
672 224 m 1,30,-1
 1046 598 l 1,31,-1
 822 598 l 1,32,-1
 822 896 l 1,33,-1
 522 896 l 1,34,-1
 522 598 l 1,35,-1
 298 598 l 1,36,-1
 672 224 l 1,30,-1
EndSplineSet
EndChar

StartChar: uniF10C
Encoding: 61708 61708 14
Width: 1344
Flags: W
LayerCount: 2
Fore
SplineSet
1194 1270 m 2,0,1
 1257 1270 1257 1270 1300.5 1226.5 c 128,-1,2
 1344 1183 1344 1183 1344 1120 c 2,3,-1
 1344 74 l 2,4,5
 1344 14 1344 14 1300 -30 c 128,-1,6
 1256 -74 1256 -74 1194 -74 c 2,7,-1
 150 -74 l 2,8,9
 87 -74 87 -74 43.5 -30 c 128,-1,10
 0 14 0 14 0 74 c 2,11,-1
 0 1120 l 2,12,13
 0 1183 0 1183 44 1226.5 c 128,-1,14
 88 1270 88 1270 150 1270 c 2,15,-1
 462 1270 l 1,16,17
 486 1336 486 1336 544 1377 c 128,-1,18
 602 1418 602 1418 672 1418 c 128,-1,19
 742 1418 742 1418 800 1377.5 c 0,20,21
 858 1336 858 1336 882 1270 c 1,22,-1
 1194 1270 l 2,0,1
672 1270 m 128,-1,24
 640 1270 640 1270 619 1247.5 c 128,-1,25
 598 1225 598 1225 598 1195.5 c 128,-1,26
 598 1166 598 1166 619 1143 c 128,-1,27
 640 1120 640 1120 672 1120 c 128,-1,28
 704 1120 704 1120 725 1143 c 128,-1,29
 746 1166 746 1166 746 1195.5 c 128,-1,30
 746 1225 746 1225 725 1247.5 c 128,-1,23
 704 1270 704 1270 672 1270 c 128,-1,24
822 224 m 1,31,-1
 822 374 l 1,32,-1
 298 374 l 1,33,-1
 298 224 l 1,34,-1
 822 224 l 1,31,-1
1046 522 m 1,35,-1
 1046 672 l 1,36,-1
 298 672 l 1,37,-1
 298 522 l 1,38,-1
 1046 522 l 1,35,-1
1046 822 m 1,39,-1
 1046 970 l 1,40,-1
 298 970 l 1,41,-1
 298 822 l 1,42,-1
 1046 822 l 1,39,-1
EndSplineSet
EndChar

StartChar: uniF10D
Encoding: 61709 61709 15
Width: 822
Flags: W
LayerCount: 2
Fore
SplineSet
710 1120 m 1,0,-1
 822 1120 l 1,1,-1
 822 262 l 2,2,3
 822 90 822 90 701.5 -30 c 128,-1,4
 581 -150 581 -150 411.5 -150 c 128,-1,5
 242 -150 242 -150 121 -29.5 c 0,6,7
 0 90 0 90 0 262 c 2,8,-1
 0 1194 l 2,9,10
 0 1320 0 1320 87.5 1407 c 128,-1,11
 175 1494 175 1494 299.5 1494 c 128,-1,12
 424 1494 424 1494 511 1407 c 128,-1,13
 598 1320 598 1320 598 1194 c 2,14,-1
 598 410 l 2,15,16
 598 333 598 333 542 278.5 c 128,-1,17
 486 224 486 224 409 224 c 128,-1,18
 332 224 332 224 278 278 c 128,-1,19
 224 332 224 332 224 410 c 2,20,-1
 224 1120 l 1,21,-1
 336 1120 l 1,22,-1
 336 410 l 2,23,24
 336 382 336 382 359 359 c 128,-1,25
 382 336 382 336 411.5 336 c 128,-1,26
 441 336 441 336 463.5 359 c 128,-1,27
 486 382 486 382 486 410 c 2,28,-1
 486 1194 l 2,29,30
 486 1271 486 1271 430 1326.5 c 128,-1,31
 374 1382 374 1382 297 1382 c 128,-1,32
 220 1382 220 1382 166 1326 c 128,-1,33
 112 1270 112 1270 112 1194 c 2,34,-1
 112 262 l 2,35,36
 112 136 112 136 199.5 49 c 128,-1,37
 287 -38 287 -38 411.5 -38 c 128,-1,38
 536 -38 536 -38 623 49 c 128,-1,39
 710 136 710 136 710 262 c 2,40,-1
 710 1120 l 1,0,-1
EndSplineSet
EndChar

StartChar: uniF10E
Encoding: 61710 61710 16
Width: 1494
Flags: W
LayerCount: 2
Fore
SplineSet
410 262 m 2,0,1
 242 262 242 262 121 381 c 128,-1,2
 0 500 0 500 0 672 c 128,-1,3
 0 844 0 844 121 963 c 128,-1,4
 242 1082 242 1082 410 1082 c 2,5,-1
 1194 1082 l 2,6,7
 1320 1082 1320 1082 1407 994 c 128,-1,8
 1494 906 1494 906 1494 784 c 128,-1,9
 1494 662 1494 662 1407 574 c 128,-1,10
 1320 486 1320 486 1194 486 c 2,11,-1
 560 486 l 2,12,13
 483 486 483 486 428.5 540.5 c 128,-1,14
 374 595 374 595 374 672 c 128,-1,15
 374 749 374 749 428.5 803.5 c 128,-1,16
 483 858 483 858 560 858 c 2,17,-1
 1120 858 l 1,18,-1
 1120 746 l 1,19,-1
 560 746 l 2,20,21
 528 746 528 746 507 725 c 128,-1,22
 486 704 486 704 486 672 c 128,-1,23
 486 640 486 640 507 619 c 128,-1,24
 528 598 528 598 560 598 c 2,25,-1
 1194 598 l 2,26,27
 1271 598 1271 598 1326.5 652.5 c 128,-1,28
 1382 707 1382 707 1382 784 c 128,-1,29
 1382 861 1382 861 1326 915.5 c 128,-1,30
 1270 970 1270 970 1194 970 c 2,31,-1
 410 970 l 2,32,33
 288 970 288 970 200 882 c 128,-1,34
 112 794 112 794 112 672 c 128,-1,35
 112 550 112 550 199.5 462 c 0,36,37
 288 374 288 374 410 374 c 2,38,-1
 1120 374 l 1,39,-1
 1120 262 l 1,40,-1
 410 262 l 2,0,1
EndSplineSet
EndChar

StartChar: uniF10F
Encoding: 61711 61711 17
Width: 969
Flags: W
LayerCount: 2
Fore
SplineSet
448 1344 m 1,0,-1
 970 1344 l 1,1,-1
 970 1120 l 1,2,-1
 672 1120 l 1,3,-1
 672 298 l 1,4,-1
 668 298 l 1,5,6
 654 172 654 172 560 86 c 128,-1,7
 466 0 466 0 336 0 c 0,8,9
 196 0 196 0 98 98 c 128,-1,10
 0 196 0 196 0 336 c 128,-1,11
 0 476 0 476 98 574 c 128,-1,12
 196 672 196 672 336 672 c 0,13,14
 388 672 388 672 448 651 c 1,15,-1
 448 1344 l 1,0,-1
EndSplineSet
EndChar

StartChar: uniF110
Encoding: 61712 61712 18
Width: 1344
Flags: W
LayerCount: 2
Fore
SplineSet
1194 1494 m 2,0,1
 1257 1494 1257 1494 1300.5 1450.5 c 128,-1,2
 1344 1407 1344 1407 1344 1344 c 2,3,-1
 1344 378 l 2,4,5
 1344 298 1344 298 1278 256 c 2,6,-1
 672 -150 l 1,7,-1
 66 256 l 2,8,9
 0 298 0 298 0 378 c 2,10,-1
 0 1344 l 2,11,12
 0 1407 0 1407 44 1450.5 c 128,-1,13
 88 1494 88 1494 150 1494 c 2,14,-1
 1194 1494 l 2,0,1
522 374 m 1,15,-1
 1194 1046 l 1,16,-1
 1088 1152 l 1,17,-1
 522 584 l 1,18,-1
 256 850 l 1,19,-1
 150 746 l 1,20,-1
 522 374 l 1,15,-1
EndSplineSet
EndChar

StartChar: uniF111
Encoding: 61713 61713 19
Width: 1417
Flags: W
LayerCount: 2
Fore
SplineSet
1344 224 m 1,0,-1
 1344 150 l 2,1,2
 1344 87 1344 87 1300 43.5 c 128,-1,3
 1256 0 1256 0 1194 0 c 2,4,-1
 150 0 l 2,5,6
 87 0 87 0 43.5 44 c 128,-1,7
 0 88 0 88 0 150 c 2,8,-1
 0 1194 l 2,9,10
 0 1257 0 1257 44 1300.5 c 128,-1,11
 88 1344 88 1344 150 1344 c 2,12,-1
 1194 1344 l 2,13,14
 1257 1344 1257 1344 1300.5 1300 c 128,-1,15
 1344 1256 1344 1256 1344 1194 c 2,16,-1
 1344 1120 l 1,17,-1
 672 1120 l 2,18,19
 609 1120 609 1120 565.5 1076 c 128,-1,20
 522 1032 522 1032 522 970 c 2,21,-1
 522 374 l 2,22,23
 522 311 522 311 565.5 267.5 c 128,-1,24
 609 224 609 224 672 224 c 2,25,-1
 1344 224 l 1,0,-1
672 374 m 1,26,-1
 672 970 l 1,27,-1
 1418 970 l 1,28,-1
 1418 374 l 1,29,-1
 672 374 l 1,26,-1
971 560 m 128,-1,31
 1018 560 1018 560 1050 593 c 128,-1,32
 1082 626 1082 626 1082 672 c 128,-1,33
 1082 718 1082 718 1050 751 c 128,-1,34
 1018 784 1018 784 971 784 c 128,-1,35
 924 784 924 784 891 751 c 128,-1,36
 858 718 858 718 858 672 c 128,-1,37
 858 626 858 626 891 593 c 128,-1,30
 924 560 924 560 971 560 c 128,-1,31
EndSplineSet
EndChar

StartChar: uniF112
Encoding: 61714 61714 20
Width: 1417
Flags: W
LayerCount: 2
Fore
SplineSet
150 822 m 1,0,-1
 374 822 l 1,1,-1
 374 298 l 1,2,-1
 150 298 l 1,3,-1
 150 822 l 1,0,-1
598 822 m 1,4,-1
 822 822 l 1,5,-1
 822 298 l 1,6,-1
 598 298 l 1,7,-1
 598 822 l 1,4,-1
0 -74 m 1,8,-1
 0 150 l 1,9,-1
 1418 150 l 1,10,-1
 1418 -74 l 1,11,-1
 0 -74 l 1,8,-1
1046 822 m 1,12,-1
 1270 822 l 1,13,-1
 1270 298 l 1,14,-1
 1046 298 l 1,15,-1
 1046 822 l 1,12,-1
710 1494 m 1,16,-1
 1418 1120 l 1,17,-1
 1418 970 l 1,18,-1
 0 970 l 1,19,-1
 0 1120 l 1,20,-1
 710 1494 l 1,16,-1
EndSplineSet
EndChar

StartChar: uniF113
Encoding: 61715 61715 21
Width: 745
Flags: W
LayerCount: 2
Fore
SplineSet
648 1270 m 2,0,1
 690 1270 690 1270 718 1240.5 c 128,-1,2
 746 1211 746 1211 746 1169 c 2,3,-1
 746 24 l 2,4,5
 746 -18 746 -18 718 -46 c 128,-1,6
 690 -74 690 -74 648 -74 c 2,7,-1
 98 -74 l 2,8,9
 60 -74 60 -74 30 -46 c 128,-1,10
 0 -18 0 -18 0 24 c 2,11,-1
 0 1169 l 2,12,13
 0 1211 0 1211 30 1240.5 c 128,-1,14
 60 1270 60 1270 98 1270 c 2,15,-1
 224 1270 l 1,16,-1
 224 1418 l 1,17,-1
 522 1418 l 1,18,-1
 522 1270 l 1,19,-1
 648 1270 l 2,0,1
448 224 m 1,20,-1
 448 374 l 1,21,-1
 298 374 l 1,22,-1
 298 224 l 1,23,-1
 448 224 l 1,20,-1
448 522 m 1,24,-1
 448 896 l 1,25,-1
 298 896 l 1,26,-1
 298 522 l 1,27,-1
 448 522 l 1,24,-1
EndSplineSet
EndChar

StartChar: uniF114
Encoding: 61716 61716 22
Width: 745
Flags: W
LayerCount: 2
Fore
SplineSet
648 1270 m 2,0,1
 690 1270 690 1270 718 1240.5 c 128,-1,2
 746 1211 746 1211 746 1169 c 2,3,-1
 746 24 l 2,4,5
 746 -18 746 -18 718 -46 c 128,-1,6
 690 -74 690 -74 648 -74 c 2,7,-1
 98 -74 l 2,8,9
 60 -74 60 -74 30 -46 c 128,-1,10
 0 -18 0 -18 0 24 c 2,11,-1
 0 1169 l 2,12,13
 0 1211 0 1211 30 1240.5 c 128,-1,14
 60 1270 60 1270 98 1270 c 2,15,-1
 224 1270 l 1,16,-1
 224 1418 l 1,17,-1
 522 1418 l 1,18,-1
 522 1270 l 1,19,-1
 648 1270 l 2,0,1
298 74 m 1,20,-1
 598 634 l 1,21,-1
 448 634 l 1,22,-1
 448 1046 l 1,23,-1
 150 486 l 1,24,-1
 298 486 l 1,25,-1
 298 74 l 1,20,-1
EndSplineSet
EndChar

StartChar: uniF115
Encoding: 61717 61717 23
Width: 745
Flags: W
LayerCount: 2
Fore
SplineSet
648 1270 m 2,0,1
 690 1270 690 1270 718 1240.5 c 128,-1,2
 746 1211 746 1211 746 1169 c 2,3,-1
 746 24 l 2,4,5
 746 -18 746 -18 718 -46 c 128,-1,6
 690 -74 690 -74 648 -74 c 2,7,-1
 98 -74 l 2,8,9
 60 -74 60 -74 30 -46 c 128,-1,10
 0 -18 0 -18 0 24 c 2,11,-1
 0 1169 l 2,12,13
 0 1211 0 1211 30 1240.5 c 128,-1,14
 60 1270 60 1270 98 1270 c 2,15,-1
 224 1270 l 1,16,-1
 224 1418 l 1,17,-1
 522 1418 l 1,18,-1
 522 1270 l 1,19,-1
 648 1270 l 2,0,1
444 228 m 1,20,-1
 444 371 l 1,21,-1
 301 371 l 1,22,-1
 301 228 l 1,23,-1
 444 228 l 1,20,-1
546 620 m 2,24,25
 598 672 598 672 598 746 c 0,26,27
 598 840 598 840 532 905 c 128,-1,28
 466 970 466 970 373 970 c 128,-1,29
 280 970 280 970 215 905 c 128,-1,30
 150 840 150 840 150 746 c 1,31,-1
 262 746 l 1,32,33
 262 795 262 795 294 826.5 c 128,-1,34
 326 858 326 858 373 858 c 128,-1,35
 420 858 420 858 453 826 c 128,-1,36
 486 794 486 794 486 747 c 128,-1,37
 486 700 486 700 452 668 c 2,38,-1
 382 598 l 1,39,40
 316 524 316 524 315 448 c 1,41,-1
 434 448 l 1,42,43
 434 504 434 504 494 567 c 2,44,-1
 546 620 l 2,24,25
EndSplineSet
EndChar

StartChar: uniF116
Encoding: 61718 61718 24
Width: 745
Flags: W
LayerCount: 2
Fore
SplineSet
648 1270 m 2,0,1
 690 1270 690 1270 718 1240.5 c 128,-1,2
 746 1211 746 1211 746 1169 c 2,3,-1
 746 24 l 2,4,5
 746 -18 746 -18 718 -46 c 128,-1,6
 690 -74 690 -74 648 -74 c 2,7,-1
 98 -74 l 2,8,9
 60 -74 60 -74 30 -46 c 128,-1,10
 0 -18 0 -18 0 24 c 2,11,-1
 0 1169 l 2,12,13
 0 1211 0 1211 30 1240.5 c 128,-1,14
 60 1270 60 1270 98 1270 c 2,15,-1
 224 1270 l 1,16,-1
 224 1418 l 1,17,-1
 522 1418 l 1,18,-1
 522 1270 l 1,19,-1
 648 1270 l 2,0,1
EndSplineSet
EndChar

StartChar: uniF117
Encoding: 61719 61719 25
Width: 1792
Flags: W
LayerCount: 2
Fore
SplineSet
1157 1158 m 128,-1,1
 1096 1158 1096 1158 1052 1202 c 128,-1,2
 1008 1246 1008 1246 1008 1307 c 128,-1,3
 1008 1368 1008 1368 1052 1412 c 128,-1,4
 1096 1456 1096 1456 1157 1456 c 128,-1,5
 1218 1456 1218 1456 1262 1412 c 128,-1,6
 1306 1368 1306 1368 1306 1307 c 128,-1,7
 1306 1246 1306 1246 1262 1202 c 128,-1,0
 1218 1158 1218 1158 1157 1158 c 128,-1,1
372.5 672 m 128,-1,9
 528 672 528 672 637 563.5 c 128,-1,10
 746 455 746 455 746 299.5 c 128,-1,11
 746 144 746 144 637 35 c 128,-1,12
 528 -74 528 -74 372.5 -74 c 128,-1,13
 217 -74 217 -74 108.5 35 c 128,-1,14
 0 144 0 144 0 299.5 c 128,-1,15
 0 455 0 455 108.5 563.5 c 128,-1,8
 217 672 217 672 372.5 672 c 128,-1,9
373 38 m 128,-1,17
 480 38 480 38 557 115 c 128,-1,18
 634 192 634 192 634 299 c 128,-1,19
 634 406 634 406 557 483 c 128,-1,20
 480 560 480 560 373 560 c 128,-1,21
 266 560 266 560 189 483 c 128,-1,22
 112 406 112 406 112 299 c 128,-1,23
 112 192 112 192 189 115 c 128,-1,16
 266 38 266 38 373 38 c 128,-1,17
805 784 m 1,24,-1
 970 612 l 1,25,-1
 970 150 l 1,26,-1
 822 150 l 1,27,-1
 822 522 l 1,28,-1
 581 732 l 2,29,30
 539 766 539 766 539 836 c 0,31,32
 539 896 539 896 581 942 c 2,33,-1
 791 1152 l 1,34,35
 826 1194 826 1194 896 1194 c 0,36,37
 959 1194 959 1194 1015 1152 c 1,38,-1
 1158 1008 l 2,39,40
 1270 896 1270 896 1424 896 c 1,41,-1
 1424 746 l 1,42,43
 1200 746 1200 746 1046 903 c 2,44,-1
 987 962 l 1,45,-1
 805 784 l 1,24,-1
1419.5 672 m 128,-1,47
 1575 672 1575 672 1683.5 563.5 c 128,-1,48
 1792 455 1792 455 1792 299.5 c 128,-1,49
 1792 144 1792 144 1683.5 35 c 128,-1,50
 1575 -74 1575 -74 1419.5 -74 c 128,-1,51
 1264 -74 1264 -74 1155 35 c 128,-1,52
 1046 144 1046 144 1046 299.5 c 128,-1,53
 1046 455 1046 455 1155 563.5 c 128,-1,46
 1264 672 1264 672 1419.5 672 c 128,-1,47
1419 38 m 128,-1,55
 1526 38 1526 38 1603 115 c 128,-1,56
 1680 192 1680 192 1680 299 c 128,-1,57
 1680 406 1680 406 1603 483 c 128,-1,58
 1526 560 1526 560 1419 560 c 128,-1,59
 1312 560 1312 560 1235 483 c 128,-1,60
 1158 406 1158 406 1158 299 c 128,-1,61
 1158 192 1158 192 1235 115 c 128,-1,54
 1312 38 1312 38 1419 38 c 128,-1,55
EndSplineSet
EndChar

StartChar: uniF118
Encoding: 61720 61720 26
Width: 1494
Flags: W
LayerCount: 2
Fore
SplineSet
747.5 1418 m 128,-1,1
 1057 1418 1057 1418 1275.5 1199 c 128,-1,2
 1494 980 1494 980 1494 672 c 128,-1,3
 1494 364 1494 364 1275.5 145 c 128,-1,4
 1057 -74 1057 -74 747.5 -74 c 128,-1,5
 438 -74 438 -74 219 145 c 128,-1,6
 0 364 0 364 0 672 c 128,-1,7
 0 980 0 980 219 1199 c 128,-1,0
 438 1418 438 1418 747.5 1418 c 128,-1,1
746 74 m 0,8,9
 949 74 949 74 1113 200 c 1,10,-1
 276 1040 l 1,11,12
 150 876 150 876 150 672 c 0,13,14
 150 424 150 424 325.5 249 c 128,-1,15
 501 74 501 74 746 74 c 0,8,9
1218 304 m 1,16,17
 1344 468 1344 468 1344 672 c 0,18,19
 1344 920 1344 920 1169 1095 c 128,-1,20
 994 1270 994 1270 746 1270 c 0,21,22
 544 1270 544 1270 382 1144 c 1,23,-1
 1218 304 l 1,16,17
EndSplineSet
EndChar

StartChar: uniF119
Encoding: 61721 61721 27
Width: 1494
Flags: W
LayerCount: 2
Fore
SplineSet
747.5 1418 m 128,-1,1
 1057 1418 1057 1418 1275.5 1199 c 128,-1,2
 1494 980 1494 980 1494 672 c 128,-1,3
 1494 364 1494 364 1275.5 145 c 128,-1,4
 1057 -74 1057 -74 747.5 -74 c 128,-1,5
 438 -74 438 -74 219 145 c 128,-1,6
 0 364 0 364 0 672 c 128,-1,7
 0 980 0 980 219 1199 c 128,-1,0
 438 1418 438 1418 747.5 1418 c 128,-1,1
150 672 m 0,8,9
 150 466 150 466 276 304 c 1,10,-1
 1113 1144 l 1,11,12
 952 1270 952 1270 746 1270 c 0,13,14
 501 1270 501 1270 325.5 1095 c 128,-1,15
 150 920 150 920 150 672 c 0,8,9
746 74 m 0,16,17
 994 74 994 74 1169 249 c 128,-1,18
 1344 424 1344 424 1344 672 c 0,19,20
 1344 878 1344 878 1218 1040 c 1,21,-1
 382 200 l 1,22,23
 544 74 544 74 746 74 c 0,16,17
EndSplineSet
EndChar

StartChar: uniF11A
Encoding: 61722 61722 28
Width: 1494
Flags: W
LayerCount: 2
Fore
SplineSet
1344 0 m 2,0,-1
 1494 0 l 1,1,-1
 1494 -150 l 1,2,-1
 1344 -150 l 2,3,4
 1190 -150 1190 -150 1046 -77 c 1,5,6
 902 -147 902 -147 745 -147 c 128,-1,7
 588 -147 588 -147 448 -77 c 1,8,9
 300 -150 300 -150 150 -150 c 2,10,-1
 0 -150 l 1,11,-1
 0 0 l 1,12,-1
 150 0 l 2,13,14
 308 0 308 0 448 98 c 1,15,16
 584 4 584 4 747 4 c 128,-1,17
 910 4 910 4 1046 98 c 1,18,19
 1186 0 1186 0 1344 0 c 2,0,-1
147 150 m 1,20,-1
 4 648 l 2,21,22
 -6 676 -6 676 7 707 c 0,23,24
 20 735 20 735 52 742 c 2,25,-1
 150 774 l 1,26,-1
 150 1120 l 2,27,28
 150 1183 150 1183 194 1226.5 c 128,-1,29
 238 1270 238 1270 298 1270 c 2,30,-1
 522 1270 l 1,31,-1
 522 1494 l 1,32,-1
 970 1494 l 1,33,-1
 970 1270 l 1,34,-1
 1194 1270 l 2,35,36
 1257 1270 1257 1270 1300.5 1226.5 c 128,-1,37
 1344 1183 1344 1183 1344 1120 c 2,38,-1
 1344 774 l 1,39,-1
 1438 742 l 2,40,41
 1470 735 1470 735 1484 707 c 0,42,43
 1498 680 1498 680 1488 648 c 2,44,-1
 1348 150 l 1,45,-1
 1344 150 l 2,46,47
 1176 150 1176 150 1046 298 c 1,48,49
 913 151 913 151 745.5 150.5 c 128,-1,50
 578 150 578 150 448 298 c 1,51,52
 318 150 318 150 150 150 c 2,53,-1
 147 150 l 1,20,-1
298 1120 m 1,54,-1
 298 822 l 1,55,-1
 746 970 l 1,56,-1
 1194 822 l 1,57,-1
 1194 1120 l 1,58,-1
 298 1120 l 1,54,-1
EndSplineSet
EndChar

StartChar: uniF11B
Encoding: 61723 61723 29
Width: 1193
Flags: W
LayerCount: 2
Fore
SplineSet
1046 1418 m 2,0,1
 1106 1418 1106 1418 1150 1374 c 128,-1,2
 1194 1330 1194 1330 1194 1270 c 2,3,-1
 1194 74 l 2,4,5
 1194 14 1194 14 1150 -30 c 128,-1,6
 1106 -74 1106 -74 1046 -74 c 2,7,-1
 150 -74 l 2,8,9
 87 -74 87 -74 43.5 -30 c 128,-1,10
 0 14 0 14 0 74 c 2,11,-1
 0 1270 l 2,12,13
 0 1330 0 1330 44 1374 c 128,-1,14
 88 1418 88 1418 150 1418 c 2,15,-1
 1046 1418 l 2,0,1
150 1270 m 1,16,-1
 150 672 l 1,17,-1
 336 784 l 1,18,-1
 522 672 l 1,19,-1
 522 1270 l 1,20,-1
 150 1270 l 1,16,-1
150 150 m 1,21,-1
 1046 150 l 1,22,-1
 756 532 l 1,23,-1
 532 245 l 1,24,-1
 374 438 l 1,25,-1
 150 150 l 1,21,-1
EndSplineSet
EndChar

StartChar: uniF11C
Encoding: 61724 61724 30
Width: 1193
Flags: W
LayerCount: 2
Fore
SplineSet
1046 1418 m 2,0,1
 1106 1418 1106 1418 1150 1374 c 128,-1,2
 1194 1330 1194 1330 1194 1270 c 2,3,-1
 1194 74 l 2,4,5
 1194 14 1194 14 1150 -30 c 128,-1,6
 1106 -74 1106 -74 1046 -74 c 2,7,-1
 150 -74 l 2,8,9
 87 -74 87 -74 43.5 -30 c 128,-1,10
 0 14 0 14 0 74 c 2,11,-1
 0 1270 l 2,12,13
 0 1330 0 1330 44 1374 c 128,-1,14
 88 1418 88 1418 150 1418 c 2,15,-1
 1046 1418 l 2,0,1
150 1270 m 1,16,-1
 150 672 l 1,17,-1
 336 784 l 1,18,-1
 522 672 l 1,19,-1
 522 1270 l 1,20,-1
 150 1270 l 1,16,-1
EndSplineSet
EndChar

StartChar: uniF11D
Encoding: 61725 61725 31
Width: 1046
Flags: W
LayerCount: 2
Fore
SplineSet
896 1344 m 2,0,1
 959 1344 959 1344 1002.5 1300 c 128,-1,2
 1046 1256 1046 1256 1046 1194 c 2,3,-1
 1046 0 l 1,4,-1
 522 224 l 1,5,-1
 0 0 l 1,6,-1
 0 1194 l 2,7,8
 0 1257 0 1257 44 1300.5 c 128,-1,9
 88 1344 88 1344 150 1344 c 2,10,-1
 896 1344 l 2,0,1
896 224 m 1,11,-1
 896 1194 l 1,12,-1
 150 1194 l 1,13,-1
 150 224 l 1,14,-1
 522 388 l 1,15,-1
 896 224 l 1,11,-1
EndSplineSet
EndChar

StartChar: uniF11E
Encoding: 61726 61726 32
Width: 1046
Flags: W
LayerCount: 2
Fore
SplineSet
896 1344 m 2,0,1
 959 1344 959 1344 1002.5 1300 c 128,-1,2
 1046 1256 1046 1256 1046 1194 c 2,3,-1
 1046 0 l 1,4,-1
 522 224 l 1,5,-1
 0 0 l 1,6,-1
 0 1194 l 2,7,8
 0 1257 0 1257 44 1300.5 c 128,-1,9
 88 1344 88 1344 150 1344 c 2,10,-1
 896 1344 l 2,0,1
EndSplineSet
EndChar

StartChar: uniF11F
Encoding: 61727 61727 33
Width: 1417
Flags: W
LayerCount: 2
Fore
SplineSet
373 522 m 128,-1,1
 466 522 466 522 532 457 c 128,-1,2
 598 392 598 392 598 298 c 0,3,4
 598 176 598 176 511 88 c 128,-1,5
 424 0 424 0 298 0 c 0,6,7
 214 0 214 0 133 40 c 128,-1,8
 52 80 52 80 0 150 c 1,9,10
 52 150 52 150 101 190.5 c 0,11,12
 150 232 150 232 150 298 c 0,13,14
 150 392 150 392 215 457 c 128,-1,0
 280 522 280 522 373 522 c 128,-1,1
1396 1222 m 2,15,16
 1417 1201 1417 1201 1417.5 1169.5 c 128,-1,17
 1418 1138 1418 1138 1396 1116 c 2,18,-1
 728 448 l 1,19,-1
 522 654 l 1,20,-1
 1190 1323 l 2,21,22
 1214 1344 1214 1344 1244 1344 c 128,-1,23
 1274 1344 1274 1344 1298 1323 c 2,24,-1
 1396 1222 l 2,15,16
EndSplineSet
EndChar

StartChar: uniF120
Encoding: 61728 61728 34
Width: 1193
Flags: W
LayerCount: 2
Fore
SplineSet
1194 970 m 1,0,-1
 1194 822 l 1,1,-1
 1040 822 l 1,2,3
 1046 776 1046 776 1046 746 c 2,4,-1
 1046 672 l 1,5,-1
 1194 672 l 1,6,-1
 1194 522 l 1,7,-1
 1046 522 l 1,8,-1
 1046 448 l 2,9,10
 1046 416 1046 416 1040 374 c 1,11,-1
 1194 374 l 1,12,-1
 1194 224 l 1,13,-1
 984 224 l 1,14,15
 924 122 924 122 822.5 61 c 128,-1,16
 721 0 721 0 598.5 0 c 128,-1,17
 476 0 476 0 373 61 c 128,-1,18
 270 122 270 122 210 224 c 1,19,-1
 0 224 l 1,20,-1
 0 374 l 1,21,-1
 158 374 l 1,22,23
 150 416 150 416 150 448 c 2,24,-1
 150 522 l 1,25,-1
 0 522 l 1,26,-1
 0 672 l 1,27,-1
 150 672 l 1,28,-1
 150 746 l 2,29,30
 150 778 150 778 158 822 c 1,31,-1
 0 822 l 1,32,-1
 0 970 l 1,33,-1
 210 970 l 1,34,35
 262 1060 262 1060 346 1116 c 1,36,-1
 224 1239 l 1,37,-1
 329 1344 l 1,38,-1
 494 1183 l 1,39,40
 543 1193 543 1193 597 1193.5 c 0,41,42
 652 1194 652 1194 704 1183 c 1,43,-1
 864 1344 l 1,44,-1
 970 1239 l 1,45,-1
 850 1116 l 1,46,47
 934 1060 934 1060 984 970 c 1,48,-1
 1194 970 l 1,0,-1
746 374 m 1,49,-1
 746 522 l 1,50,-1
 448 522 l 1,51,-1
 448 374 l 1,52,-1
 746 374 l 1,49,-1
746 672 m 1,53,-1
 746 822 l 1,54,-1
 448 822 l 1,55,-1
 448 672 l 1,56,-1
 746 672 l 1,53,-1
EndSplineSet
EndChar

StartChar: uniF121
Encoding: 61729 61729 35
Width: 1193
Flags: W
LayerCount: 2
Fore
SplineSet
0 374 m 2,0,-1
 0 1120 l 2,1,2
 0 1214 0 1214 44 1275.5 c 128,-1,3
 88 1337 88 1337 177 1366.5 c 128,-1,4
 266 1396 266 1396 362 1407 c 128,-1,5
 458 1418 458 1418 596.5 1418 c 128,-1,6
 735 1418 735 1418 831.5 1407 c 128,-1,7
 928 1396 928 1396 1017 1366.5 c 128,-1,8
 1106 1337 1106 1337 1150 1275.5 c 128,-1,9
 1194 1214 1194 1214 1194 1120 c 2,10,-1
 1194 374 l 2,11,12
 1194 276 1194 276 1120 206 c 1,13,-1
 1120 74 l 2,14,15
 1120 46 1120 46 1097 23 c 128,-1,16
 1074 0 1074 0 1046 0 c 2,17,-1
 970 0 l 2,18,19
 942 0 942 0 919 23 c 128,-1,20
 896 46 896 46 896 74 c 2,21,-1
 896 150 l 1,22,-1
 298 150 l 1,23,-1
 298 74 l 2,24,25
 298 46 298 46 277 23 c 128,-1,26
 256 0 256 0 224 0 c 2,27,-1
 150 0 l 2,28,29
 118 0 118 0 96 23 c 128,-1,30
 74 46 74 46 74 74 c 2,31,-1
 74 206 l 1,32,33
 0 276 0 276 0 374 c 2,0,-1
261 298 m 128,-1,35
 308 298 308 298 341 331 c 128,-1,36
 374 364 374 364 374 411 c 128,-1,37
 374 458 374 458 341 490 c 128,-1,38
 308 522 308 522 261 522 c 128,-1,39
 214 522 214 522 182 490 c 128,-1,40
 150 458 150 458 150 411 c 128,-1,41
 150 364 150 364 182 331 c 128,-1,34
 214 298 214 298 261 298 c 128,-1,35
933 298 m 128,-1,43
 980 298 980 298 1013 331 c 128,-1,44
 1046 364 1046 364 1046 411 c 128,-1,45
 1046 458 1046 458 1013 490 c 128,-1,46
 980 522 980 522 933 522 c 128,-1,47
 886 522 886 522 854 490 c 128,-1,48
 822 458 822 458 822 411 c 128,-1,49
 822 364 822 364 854 331 c 128,-1,42
 886 298 886 298 933 298 c 128,-1,43
1046 746 m 1,50,-1
 1046 1120 l 1,51,-1
 150 1120 l 1,52,-1
 150 746 l 1,53,-1
 1046 746 l 1,50,-1
EndSplineSet
EndChar

StartChar: uniF122
Encoding: 61730 61730 36
Width: 1344
Flags: W
LayerCount: 2
Fore
SplineSet
672 1120 m 128,-1,1
 609 1120 609 1120 565.5 1164 c 128,-1,2
 522 1208 522 1208 522 1270 c 0,3,4
 522 1312 522 1312 546 1348 c 1,5,-1
 672 1568 l 1,6,-1
 798 1348 l 1,7,8
 822 1312 822 1312 822 1270 c 0,9,10
 822 1207 822 1207 778.5 1163.5 c 128,-1,0
 735 1120 735 1120 672 1120 c 128,-1,1
1015 374 m 2,11,12
 1092 298 1092 298 1197 298 c 0,13,14
 1277 298 1277 298 1344 343 c 1,15,-1
 1344 0 l 2,16,17
 1344 -32 1344 -32 1321 -53 c 128,-1,18
 1298 -74 1298 -74 1270 -74 c 2,19,-1
 74 -74 l 2,20,21
 46 -74 46 -74 23 -53 c 128,-1,22
 0 -32 0 -32 0 0 c 2,23,-1
 0 343 l 1,24,25
 66 298 66 298 147 298 c 0,26,27
 252 298 252 298 329 374 c 2,28,-1
 410 455 l 1,29,-1
 490 374 l 2,30,31
 564 300 564 300 672 300.5 c 0,32,33
 780 300 780 300 854 374 c 2,34,-1
 934 455 l 1,35,-1
 1015 374 l 2,11,12
1120 896 m 2,36,37
 1214 896 1214 896 1279 831 c 128,-1,38
 1344 766 1344 766 1344 672 c 2,39,-1
 1344 556 l 2,40,41
 1344 496 1344 496 1300 453 c 128,-1,42
 1256 410 1256 410 1197 410 c 128,-1,43
 1138 410 1138 410 1096 452 c 2,44,-1
 934 612 l 1,45,-1
 774 452 l 2,46,47
 736 414 736 414 672.5 413.5 c 0,48,49
 609 414 609 414 567 452 c 2,50,-1
 410 612 l 1,51,-1
 248 452 l 2,52,53
 206 410 206 410 147 410 c 256,54,55
 87 410 87 410 43.5 453.5 c 0,56,57
 0 496 0 496 0 556 c 2,58,-1
 0 672 l 2,59,60
 0 766 0 766 65 831 c 128,-1,61
 130 896 130 896 224 896 c 2,62,-1
 598 896 l 1,63,-1
 598 1046 l 1,64,-1
 746 1046 l 1,65,-1
 746 896 l 1,66,-1
 1120 896 l 2,36,37
EndSplineSet
EndChar

StartChar: uniF123
Encoding: 61731 61731 37
Width: 1344
Flags: W
LayerCount: 2
Fore
SplineSet
1190 1120 m 2,0,-1
 1344 672 l 1,1,-1
 1344 74 l 2,2,3
 1344 46 1344 46 1321 23 c 128,-1,4
 1298 0 1298 0 1270 0 c 2,5,-1
 1194 0 l 2,6,7
 1166 0 1166 0 1143 23 c 128,-1,8
 1120 46 1120 46 1120 74 c 2,9,-1
 1120 150 l 1,10,-1
 224 150 l 1,11,-1
 224 74 l 2,12,13
 224 46 224 46 201 23 c 128,-1,14
 178 0 178 0 150 0 c 2,15,-1
 74 0 l 2,16,17
 46 0 46 0 23 23 c 128,-1,18
 0 46 0 46 0 74 c 2,19,-1
 0 672 l 1,20,-1
 154 1120 l 2,21,22
 182 1194 182 1194 262 1194 c 2,23,-1
 448 1194 l 1,24,-1
 448 1344 l 1,25,-1
 896 1344 l 1,26,-1
 896 1194 l 1,27,-1
 1082 1194 l 2,28,29
 1162 1194 1162 1194 1190 1120 c 2,0,-1
261 374 m 128,-1,31
 308 374 308 374 341 406 c 128,-1,32
 374 438 374 438 374 485 c 128,-1,33
 374 532 374 532 341 565 c 128,-1,34
 308 598 308 598 261 598 c 128,-1,35
 214 598 214 598 182 565 c 128,-1,36
 150 532 150 532 150 485 c 128,-1,37
 150 438 150 438 182 406 c 128,-1,30
 214 374 214 374 261 374 c 128,-1,31
1083 374 m 128,-1,39
 1130 374 1130 374 1162 406 c 128,-1,40
 1194 438 1194 438 1194 485 c 128,-1,41
 1194 532 1194 532 1162 565 c 128,-1,42
 1130 598 1130 598 1083 598 c 128,-1,43
 1036 598 1036 598 1003 565 c 128,-1,44
 970 532 970 532 970 485 c 128,-1,45
 970 438 970 438 1003 406 c 128,-1,38
 1036 374 1036 374 1083 374 c 128,-1,39
150 746 m 1,46,-1
 1194 746 l 1,47,-1
 1082 1082 l 1,48,-1
 262 1082 l 1,49,-1
 150 746 l 1,46,-1
EndSplineSet
EndChar

StartChar: uniF124
Encoding: 61732 61732 38
Width: 1344
Flags: W
LayerCount: 2
Fore
SplineSet
1045 1194 m 128,-1,1
 998 1194 998 1194 966 1227 c 128,-1,2
 934 1260 934 1260 934 1306 c 0,3,4
 934 1341 934 1341 962 1391.5 c 128,-1,5
 990 1442 990 1442 1018 1474 c 2,6,-1
 1046 1508 l 1,7,8
 1158 1382 1158 1382 1158 1306 c 0,9,10
 1158 1260 1158 1260 1125 1227 c 128,-1,0
 1092 1194 1092 1194 1045 1194 c 128,-1,1
672 1194 m 128,-1,12
 626 1194 626 1194 593 1227 c 128,-1,13
 560 1260 560 1260 560 1306 c 0,14,15
 560 1341 560 1341 588 1391.5 c 128,-1,16
 616 1442 616 1442 644 1474 c 2,17,-1
 672 1508 l 1,18,19
 784 1382 784 1382 784 1306 c 0,20,21
 784 1260 784 1260 751 1227 c 128,-1,11
 718 1194 718 1194 672 1194 c 128,-1,12
299 1194 m 128,-1,23
 252 1194 252 1194 219 1227 c 128,-1,24
 186 1260 186 1260 186 1306 c 0,25,26
 186 1341 186 1341 214 1391.5 c 128,-1,27
 242 1442 242 1442 270 1474 c 2,28,-1
 298 1508 l 1,29,30
 410 1382 410 1382 410 1306 c 0,31,32
 410 1260 410 1260 378 1227 c 128,-1,22
 346 1194 346 1194 299 1194 c 128,-1,23
1190 970 m 2,33,-1
 1344 522 l 1,34,-1
 1344 -74 l 2,35,36
 1344 -106 1344 -106 1321 -128 c 128,-1,37
 1298 -150 1298 -150 1270 -150 c 2,38,-1
 1194 -150 l 2,39,40
 1166 -150 1166 -150 1143 -127.5 c 0,41,42
 1120 -106 1120 -106 1120 -74 c 2,43,-1
 1120 0 l 1,44,-1
 224 0 l 1,45,-1
 224 -74 l 2,46,47
 224 -106 224 -106 201 -128 c 128,-1,48
 178 -150 178 -150 150 -150 c 2,49,-1
 74 -150 l 2,50,51
 46 -150 46 -150 23 -127.5 c 0,52,53
 0 -106 0 -106 0 -74 c 2,54,-1
 0 522 l 1,55,-1
 154 970 l 2,56,57
 182 1046 182 1046 262 1046 c 2,58,-1
 1082 1046 l 2,59,60
 1162 1046 1162 1046 1190 970 c 2,33,-1
261 224 m 128,-1,62
 308 224 308 224 341 257 c 128,-1,63
 374 290 374 290 374 336 c 128,-1,64
 374 382 374 382 341 415 c 128,-1,65
 308 448 308 448 261 448 c 128,-1,66
 214 448 214 448 182 415 c 128,-1,67
 150 382 150 382 150 336 c 128,-1,68
 150 290 150 290 182 257 c 128,-1,61
 214 224 214 224 261 224 c 128,-1,62
1083 224 m 128,-1,70
 1130 224 1130 224 1162 257 c 128,-1,71
 1194 290 1194 290 1194 336 c 128,-1,72
 1194 382 1194 382 1162 415 c 128,-1,73
 1130 448 1130 448 1083 448 c 128,-1,74
 1036 448 1036 448 1003 415 c 128,-1,75
 970 382 970 382 970 336 c 128,-1,76
 970 290 970 290 1003 257 c 128,-1,69
 1036 224 1036 224 1083 224 c 128,-1,70
150 598 m 1,77,-1
 1194 598 l 1,78,-1
 1082 934 l 1,79,-1
 262 934 l 1,80,-1
 150 598 l 1,77,-1
EndSplineSet
EndChar

StartChar: uniF125
Encoding: 61733 61733 39
Width: 1344
Flags: W
LayerCount: 2
Fore
SplineSet
1190 1120 m 2,0,-1
 1344 672 l 1,1,-1
 1344 74 l 2,2,3
 1344 46 1344 46 1321 23 c 128,-1,4
 1298 0 1298 0 1270 0 c 2,5,-1
 1194 0 l 2,6,7
 1166 0 1166 0 1143 23 c 128,-1,8
 1120 46 1120 46 1120 74 c 2,9,-1
 1120 150 l 1,10,-1
 224 150 l 1,11,-1
 224 74 l 2,12,13
 224 46 224 46 201 23 c 128,-1,14
 178 0 178 0 150 0 c 2,15,-1
 74 0 l 2,16,17
 46 0 46 0 23 23 c 128,-1,18
 0 46 0 46 0 74 c 2,19,-1
 0 672 l 1,20,-1
 154 1120 l 2,21,22
 182 1194 182 1194 262 1194 c 2,23,-1
 1082 1194 l 2,24,25
 1162 1194 1162 1194 1190 1120 c 2,0,-1
261 374 m 128,-1,27
 308 374 308 374 341 406 c 128,-1,28
 374 438 374 438 374 485 c 128,-1,29
 374 532 374 532 341 565 c 128,-1,30
 308 598 308 598 261 598 c 128,-1,31
 214 598 214 598 182 565 c 128,-1,32
 150 532 150 532 150 485 c 128,-1,33
 150 438 150 438 182 406 c 128,-1,26
 214 374 214 374 261 374 c 128,-1,27
1083 374 m 128,-1,35
 1130 374 1130 374 1162 406 c 128,-1,36
 1194 438 1194 438 1194 485 c 128,-1,37
 1194 532 1194 532 1162 565 c 128,-1,38
 1130 598 1130 598 1083 598 c 128,-1,39
 1036 598 1036 598 1003 565 c 128,-1,40
 970 532 970 532 970 485 c 128,-1,41
 970 438 970 438 1003 406 c 128,-1,34
 1036 374 1036 374 1083 374 c 128,-1,35
150 746 m 1,42,-1
 1194 746 l 1,43,-1
 1082 1082 l 1,44,-1
 262 1082 l 1,45,-1
 150 746 l 1,42,-1
EndSplineSet
EndChar

StartChar: uniF126
Encoding: 61734 61734 40
Width: 1494
Flags: W
LayerCount: 2
Fore
SplineSet
1344 1120 m 2,0,1
 1407 1120 1407 1120 1450.5 1076 c 128,-1,2
 1494 1032 1494 1032 1494 970 c 2,3,-1
 1494 150 l 2,4,5
 1494 87 1494 87 1450.5 43.5 c 128,-1,6
 1407 0 1407 0 1344 0 c 2,7,-1
 150 0 l 2,8,9
 87 0 87 0 43.5 44 c 128,-1,10
 0 88 0 88 0 150 c 2,11,-1
 0 970 l 2,12,13
 0 1033 0 1033 44 1076.5 c 128,-1,14
 88 1120 88 1120 150 1120 c 2,15,-1
 312 1120 l 1,16,17
 298 1158 298 1158 298 1194 c 0,18,19
 298 1288 298 1288 364 1353 c 128,-1,20
 430 1418 430 1418 522 1418 c 0,21,22
 640 1418 640 1418 710 1320 c 1,23,-1
 746 1267 l 1,24,-1
 784 1320 l 1,25,26
 850 1418 850 1418 970 1418 c 0,27,28
 1064 1418 1064 1418 1129 1353 c 128,-1,29
 1194 1288 1194 1288 1194 1194 c 0,30,31
 1194 1159 1194 1159 1180 1120 c 1,32,-1
 1344 1120 l 2,0,1
971.5 1270 m 128,-1,34
 942 1270 942 1270 919 1247.5 c 128,-1,35
 896 1225 896 1225 896 1195.5 c 128,-1,36
 896 1166 896 1166 919 1143 c 128,-1,37
 942 1120 942 1120 971.5 1120 c 128,-1,38
 1001 1120 1001 1120 1023.5 1143 c 128,-1,39
 1046 1166 1046 1166 1046 1195.5 c 128,-1,40
 1046 1225 1046 1225 1023.5 1247.5 c 128,-1,33
 1001 1270 1001 1270 971.5 1270 c 128,-1,34
523.5 1270 m 128,-1,42
 494 1270 494 1270 471 1247.5 c 128,-1,43
 448 1225 448 1225 448 1195.5 c 128,-1,44
 448 1166 448 1166 471 1143 c 128,-1,45
 494 1120 494 1120 523.5 1120 c 128,-1,46
 553 1120 553 1120 575.5 1143 c 128,-1,47
 598 1166 598 1166 598 1195.5 c 128,-1,48
 598 1225 598 1225 575.5 1247.5 c 128,-1,41
 553 1270 553 1270 523.5 1270 c 128,-1,42
1344 150 m 1,49,-1
 1344 298 l 1,50,-1
 150 298 l 1,51,-1
 150 150 l 1,52,-1
 1344 150 l 1,49,-1
1344 522 m 1,53,-1
 1344 970 l 1,54,-1
 966 970 l 1,55,-1
 1120 760 l 1,56,-1
 998 672 l 1,57,-1
 822 914 l 1,58,-1
 746 1015 l 1,59,-1
 672 914 l 1,60,-1
 494 672 l 1,61,-1
 374 760 l 1,62,-1
 528 970 l 1,63,-1
 150 970 l 1,64,-1
 150 522 l 1,65,-1
 1344 522 l 1,53,-1
EndSplineSet
EndChar

StartChar: uniF127
Encoding: 61735 61735 41
Width: 1494
Flags: W
LayerCount: 2
Fore
SplineSet
1344 1418 m 2,0,1
 1407 1418 1407 1418 1450.5 1374 c 128,-1,2
 1494 1330 1494 1330 1494 1270 c 2,3,-1
 1494 448 l 2,4,5
 1494 385 1494 385 1450.5 341.5 c 128,-1,6
 1407 298 1407 298 1344 298 c 2,7,-1
 1046 298 l 1,8,-1
 1046 -74 l 1,9,-1
 746 74 l 1,10,-1
 448 -74 l 1,11,-1
 448 298 l 1,12,-1
 150 298 l 2,13,14
 87 298 87 298 43.5 341.5 c 128,-1,15
 0 385 0 385 0 448 c 2,16,-1
 0 1270 l 2,17,18
 0 1330 0 1330 44 1374 c 128,-1,19
 88 1418 88 1418 150 1418 c 2,20,-1
 1344 1418 l 2,0,1
1344 448 m 1,21,-1
 1344 598 l 1,22,-1
 150 598 l 1,23,-1
 150 448 l 1,24,-1
 1344 448 l 1,21,-1
1344 822 m 1,25,-1
 1344 1270 l 1,26,-1
 150 1270 l 1,27,-1
 150 822 l 1,28,-1
 1344 822 l 1,25,-1
EndSplineSet
EndChar

StartChar: uniF128
Encoding: 61736 61736 42
Width: 1494
Flags: W
LayerCount: 2
Fore
SplineSet
1344 1120 m 2,0,1
 1407 1120 1407 1120 1450.5 1076 c 128,-1,2
 1494 1032 1494 1032 1494 970 c 2,3,-1
 1494 150 l 2,4,5
 1494 87 1494 87 1450.5 43.5 c 128,-1,6
 1407 0 1407 0 1344 0 c 2,7,-1
 150 0 l 2,8,9
 87 0 87 0 43.5 44 c 128,-1,10
 0 88 0 88 0 150 c 2,11,-1
 0 970 l 2,12,13
 0 1033 0 1033 44 1076.5 c 128,-1,14
 88 1120 88 1120 150 1120 c 2,15,-1
 374 1120 l 1,16,-1
 374 1270 l 2,17,18
 374 1330 374 1330 418 1374 c 128,-1,19
 462 1418 462 1418 522 1418 c 2,20,-1
 970 1418 l 2,21,22
 1033 1418 1033 1418 1076.5 1374 c 128,-1,23
 1120 1330 1120 1330 1120 1270 c 2,24,-1
 1120 1120 l 1,25,-1
 1344 1120 l 2,0,1
522 1270 m 1,26,-1
 522 1120 l 1,27,-1
 970 1120 l 1,28,-1
 970 1270 l 1,29,-1
 522 1270 l 1,26,-1
1344 150 m 1,30,-1
 1344 298 l 1,31,-1
 150 298 l 1,32,-1
 150 150 l 1,33,-1
 1344 150 l 1,30,-1
1344 522 m 1,34,-1
 1344 970 l 1,35,-1
 1120 970 l 1,36,-1
 1120 822 l 1,37,-1
 970 822 l 1,38,-1
 970 970 l 1,39,-1
 522 970 l 1,40,-1
 522 822 l 1,41,-1
 374 822 l 1,42,-1
 374 970 l 1,43,-1
 150 970 l 1,44,-1
 150 522 l 1,45,-1
 1344 522 l 1,34,-1
EndSplineSet
EndChar

StartChar: uniF129
Encoding: 61737 61737 43
Width: 1494
Flags: W
LayerCount: 2
Fore
SplineSet
1344 1270 m 2,0,1
 1407 1270 1407 1270 1450.5 1226.5 c 128,-1,2
 1494 1183 1494 1183 1494 1120 c 2,3,-1
 1494 224 l 2,4,5
 1494 161 1494 161 1450.5 117.5 c 128,-1,6
 1407 74 1407 74 1344 74 c 2,7,-1
 150 74 l 2,8,9
 87 74 87 74 43.5 117.5 c 128,-1,10
 0 161 0 161 0 224 c 2,11,-1
 0 1120 l 2,12,13
 0 1183 0 1183 44 1226.5 c 128,-1,14
 88 1270 88 1270 150 1270 c 2,15,-1
 1344 1270 l 2,0,1
1344 224 m 1,16,-1
 1344 672 l 1,17,-1
 150 672 l 1,18,-1
 150 224 l 1,19,-1
 1344 224 l 1,16,-1
1344 970 m 1,20,-1
 1344 1120 l 1,21,-1
 150 1120 l 1,22,-1
 150 970 l 1,23,-1
 1344 970 l 1,20,-1
EndSplineSet
EndChar

StartChar: uniF12A
Encoding: 61738 61738 44
Width: 1494
Flags: W
LayerCount: 2
Fore
SplineSet
1344 1082 m 2,0,1
 1407 1082 1407 1082 1450.5 1038 c 128,-1,2
 1494 994 1494 994 1494 934 c 2,3,-1
 1494 112 l 2,4,5
 1494 49 1494 49 1450.5 5.5 c 128,-1,6
 1407 -38 1407 -38 1344 -38 c 2,7,-1
 150 -38 l 2,8,9
 87 -38 87 -38 43.5 5.5 c 128,-1,10
 0 49 0 49 0 112 c 2,11,-1
 0 934 l 2,12,13
 0 994 0 994 44 1038 c 128,-1,14
 88 1082 88 1082 150 1082 c 2,15,-1
 448 1082 l 1,16,-1
 448 1232 l 1,17,-1
 598 1382 l 1,18,-1
 896 1382 l 1,19,-1
 1046 1232 l 1,20,-1
 1046 1082 l 1,21,-1
 1344 1082 l 2,0,1
598 1232 m 1,22,-1
 598 1082 l 1,23,-1
 896 1082 l 1,24,-1
 896 1232 l 1,25,-1
 598 1232 l 1,22,-1
634 224 m 1,26,-1
 1127 718 l 1,27,-1
 1022 822 l 1,28,-1
 634 434 l 1,29,-1
 480 592 l 1,30,-1
 374 486 l 1,31,-1
 634 224 l 1,26,-1
EndSplineSet
EndChar

StartChar: uniF12B
Encoding: 61739 61739 45
Width: 1494
Flags: W
LayerCount: 2
Fore
SplineSet
1344 1082 m 2,0,1
 1407 1082 1407 1082 1450.5 1038 c 128,-1,2
 1494 994 1494 994 1494 934 c 2,3,-1
 1494 112 l 2,4,5
 1494 49 1494 49 1450.5 5.5 c 128,-1,6
 1407 -38 1407 -38 1344 -38 c 2,7,-1
 150 -38 l 2,8,9
 87 -38 87 -38 43.5 5.5 c 128,-1,10
 0 49 0 49 0 112 c 2,11,-1
 0 934 l 2,12,13
 0 994 0 994 44 1038 c 128,-1,14
 88 1082 88 1082 150 1082 c 2,15,-1
 448 1082 l 1,16,-1
 448 1232 l 1,17,-1
 598 1382 l 1,18,-1
 896 1382 l 1,19,-1
 1046 1232 l 1,20,-1
 1046 1082 l 1,21,-1
 1344 1082 l 2,0,1
598 1232 m 1,22,-1
 598 1082 l 1,23,-1
 896 1082 l 1,24,-1
 896 1232 l 1,25,-1
 598 1232 l 1,22,-1
746 112 m 1,26,-1
 1120 486 l 1,27,-1
 896 486 l 1,28,-1
 896 784 l 1,29,-1
 598 784 l 1,30,-1
 598 486 l 1,31,-1
 374 486 l 1,32,-1
 746 112 l 1,26,-1
EndSplineSet
EndChar

StartChar: uniF12C
Encoding: 61740 61740 46
Width: 1494
Flags: W
LayerCount: 2
Fore
SplineSet
1046 1120 m 1,0,-1
 1494 1120 l 1,1,-1
 1494 150 l 2,2,3
 1494 87 1494 87 1450.5 43.5 c 128,-1,4
 1407 0 1407 0 1344 0 c 2,5,-1
 150 0 l 2,6,7
 87 0 87 0 43.5 44 c 128,-1,8
 0 88 0 88 0 150 c 2,9,-1
 0 1120 l 1,10,-1
 448 1120 l 1,11,-1
 448 1270 l 2,12,13
 448 1330 448 1330 492 1374 c 128,-1,14
 536 1418 536 1418 598 1418 c 2,15,-1
 896 1418 l 2,16,17
 959 1418 959 1418 1002.5 1374 c 128,-1,18
 1046 1330 1046 1330 1046 1270 c 2,19,-1
 1046 1120 l 1,0,-1
598 1270 m 1,20,-1
 598 1120 l 1,21,-1
 896 1120 l 1,22,-1
 896 1270 l 1,23,-1
 598 1270 l 1,20,-1
522 224 m 1,24,-1
 1082 598 l 1,25,-1
 522 896 l 1,26,-1
 522 224 l 1,24,-1
EndSplineSet
EndChar

StartChar: uniF12D
Encoding: 61741 61741 47
Width: 1494
Flags: W
LayerCount: 2
Fore
SplineSet
1344 1120 m 2,0,1
 1407 1120 1407 1120 1450.5 1076 c 128,-1,2
 1494 1032 1494 1032 1494 970 c 2,3,-1
 1494 150 l 2,4,5
 1494 87 1494 87 1450.5 43.5 c 128,-1,6
 1407 0 1407 0 1344 0 c 2,7,-1
 150 0 l 2,8,9
 87 0 87 0 43.5 44 c 128,-1,10
 0 88 0 88 0 150 c 2,11,-1
 0 970 l 2,12,13
 0 1033 0 1033 44 1076.5 c 128,-1,14
 88 1120 88 1120 150 1120 c 2,15,-1
 448 1120 l 1,16,-1
 448 1270 l 2,17,18
 448 1330 448 1330 492 1374 c 128,-1,19
 536 1418 536 1418 598 1418 c 2,20,-1
 896 1418 l 2,21,22
 959 1418 959 1418 1002.5 1374 c 128,-1,23
 1046 1330 1046 1330 1046 1270 c 2,24,-1
 1046 1120 l 1,25,-1
 1344 1120 l 2,0,1
896 1120 m 1,26,-1
 896 1270 l 1,27,-1
 598 1270 l 1,28,-1
 598 1120 l 1,29,-1
 896 1120 l 1,26,-1
EndSplineSet
EndChar

StartChar: uniF12E
Encoding: 61742 61742 48
Width: 1641
Flags: W
LayerCount: 2
Fore
SplineSet
0 224 m 1,0,1
 94 224 94 224 159 159 c 128,-1,2
 224 94 224 94 224 0 c 1,3,-1
 0 0 l 1,4,-1
 0 224 l 1,0,1
0 522 m 1,5,6
 217 522 217 522 369.5 369.5 c 128,-1,7
 522 217 522 217 522 0 c 1,8,-1
 374 0 l 1,9,10
 374 154 374 154 264 264 c 128,-1,11
 154 374 154 374 0 374 c 1,12,-1
 0 522 l 1,5,6
1344 1046 m 1,13,-1
 1344 298 l 1,14,-1
 924 298 l 1,15,16
 850 522 850 522 686 686 c 128,-1,17
 522 850 522 850 298 924 c 1,18,-1
 298 1046 l 1,19,-1
 1344 1046 l 1,13,-1
0 822 m 1,20,21
 340 822 340 822 581 581 c 128,-1,22
 822 340 822 340 822 0 c 1,23,-1
 672 0 l 1,24,25
 672 280 672 280 476 476 c 128,-1,26
 280 672 280 672 0 672 c 1,27,-1
 0 822 l 1,20,21
1494 1344 m 2,28,29
 1554 1344 1554 1344 1598 1300 c 128,-1,30
 1642 1256 1642 1256 1642 1194 c 2,31,-1
 1642 150 l 2,32,33
 1642 87 1642 87 1598 43.5 c 128,-1,34
 1554 0 1554 0 1494 0 c 2,35,-1
 970 0 l 1,36,-1
 970 150 l 1,37,-1
 1494 150 l 1,38,-1
 1494 1194 l 1,39,-1
 150 1194 l 1,40,-1
 150 970 l 1,41,-1
 0 970 l 1,42,-1
 0 1194 l 2,43,44
 0 1257 0 1257 44 1300.5 c 128,-1,45
 88 1344 88 1344 150 1344 c 2,46,-1
 1494 1344 l 2,28,29
EndSplineSet
EndChar

StartChar: uniF12F
Encoding: 61743 61743 49
Width: 1641
Flags: W
LayerCount: 2
Fore
SplineSet
1494 1344 m 2,0,1
 1554 1344 1554 1344 1598 1300 c 128,-1,2
 1642 1256 1642 1256 1642 1194 c 2,3,-1
 1642 150 l 2,4,5
 1642 87 1642 87 1598 43.5 c 128,-1,6
 1554 0 1554 0 1494 0 c 2,7,-1
 970 0 l 1,8,-1
 970 150 l 1,9,-1
 1494 150 l 1,10,-1
 1494 1194 l 1,11,-1
 150 1194 l 1,12,-1
 150 970 l 1,13,-1
 0 970 l 1,14,-1
 0 1194 l 2,15,16
 0 1257 0 1257 44 1300.5 c 128,-1,17
 88 1344 88 1344 150 1344 c 2,18,-1
 1494 1344 l 2,0,1
0 224 m 1,19,20
 94 224 94 224 159 159 c 128,-1,21
 224 94 224 94 224 0 c 1,22,-1
 0 0 l 1,23,-1
 0 224 l 1,19,20
0 522 m 1,24,25
 217 522 217 522 369.5 369.5 c 128,-1,26
 522 217 522 217 522 0 c 1,27,-1
 374 0 l 1,28,29
 374 154 374 154 264 264 c 128,-1,30
 154 374 154 374 0 374 c 1,31,-1
 0 522 l 1,24,25
0 822 m 1,32,33
 340 822 340 822 581 581 c 128,-1,34
 822 340 822 340 822 0 c 1,35,-1
 672 0 l 1,36,37
 672 280 672 280 476 476 c 128,-1,38
 280 672 280 672 0 672 c 1,39,-1
 0 822 l 1,32,33
EndSplineSet
EndChar

StartChar: uniF130
Encoding: 61744 61744 50
Width: 1494
Flags: W
LayerCount: 2
Fore
SplineSet
822 1414 m 1,0,1
 1106 1386 1106 1386 1300 1174 c 128,-1,2
 1494 962 1494 962 1494 672 c 0,3,4
 1494 514 1494 514 1428 368 c 1,5,-1
 1232 483 l 1,6,7
 1270 577 1270 577 1270 672 c 0,8,9
 1270 868 1270 868 1141 1015 c 128,-1,10
 1012 1162 1012 1162 822 1190 c 1,11,-1
 822 1414 l 1,0,1
746 150 m 0,12,13
 998 150 998 150 1155 346 c 1,14,-1
 1348 231 l 1,15,16
 1243 87 1243 87 1085.5 6.5 c 128,-1,17
 928 -74 928 -74 746 -74 c 0,18,19
 438 -74 438 -74 219 145 c 128,-1,20
 0 364 0 364 0 672 c 0,21,22
 0 962 0 962 194 1174 c 128,-1,23
 388 1386 388 1386 672 1414 c 1,24,-1
 672 1190 l 1,25,26
 480 1162 480 1162 352 1015 c 128,-1,27
 224 868 224 868 224 672 c 0,28,29
 224 455 224 455 376.5 302.5 c 128,-1,30
 529 150 529 150 746 150 c 0,12,13
EndSplineSet
EndChar

StartChar: uniF131
Encoding: 61745 61745 51
Width: 1344
Flags: W
LayerCount: 2
Fore
SplineSet
1194 1344 m 2,0,1
 1257 1344 1257 1344 1300.5 1300 c 128,-1,2
 1344 1256 1344 1256 1344 1194 c 2,3,-1
 1344 150 l 2,4,5
 1344 87 1344 87 1300 43.5 c 128,-1,6
 1256 0 1256 0 1194 0 c 2,7,-1
 150 0 l 2,8,9
 87 0 87 0 43.5 44 c 128,-1,10
 0 88 0 88 0 150 c 2,11,-1
 0 1194 l 2,12,13
 0 1257 0 1257 44 1300.5 c 128,-1,14
 88 1344 88 1344 150 1344 c 2,15,-1
 1194 1344 l 2,0,1
448 298 m 1,16,-1
 448 822 l 1,17,-1
 298 822 l 1,18,-1
 298 298 l 1,19,-1
 448 298 l 1,16,-1
746 298 m 1,20,-1
 746 1046 l 1,21,-1
 598 1046 l 1,22,-1
 598 298 l 1,23,-1
 746 298 l 1,20,-1
1046 298 m 1,24,-1
 1046 598 l 1,25,-1
 896 598 l 1,26,-1
 896 298 l 1,27,-1
 1046 298 l 1,24,-1
EndSplineSet
EndChar

StartChar: uniF132
Encoding: 61746 61746 52
Width: 1494
Flags: W
LayerCount: 2
Fore
SplineSet
746 1046 m 1,0,-1
 1494 1046 l 1,1,-1
 1494 0 l 1,2,-1
 0 0 l 1,3,-1
 0 1344 l 1,4,-1
 746 1344 l 1,5,-1
 746 1046 l 1,0,-1
298 150 m 1,6,-1
 298 298 l 1,7,-1
 150 298 l 1,8,-1
 150 150 l 1,9,-1
 298 150 l 1,6,-1
298 448 m 1,10,-1
 298 598 l 1,11,-1
 150 598 l 1,12,-1
 150 448 l 1,13,-1
 298 448 l 1,10,-1
298 746 m 1,14,-1
 298 896 l 1,15,-1
 150 896 l 1,16,-1
 150 746 l 1,17,-1
 298 746 l 1,14,-1
298 1046 m 1,18,-1
 298 1194 l 1,19,-1
 150 1194 l 1,20,-1
 150 1046 l 1,21,-1
 298 1046 l 1,18,-1
598 150 m 1,22,-1
 598 298 l 1,23,-1
 448 298 l 1,24,-1
 448 150 l 1,25,-1
 598 150 l 1,22,-1
598 448 m 1,26,-1
 598 598 l 1,27,-1
 448 598 l 1,28,-1
 448 448 l 1,29,-1
 598 448 l 1,26,-1
598 746 m 1,30,-1
 598 896 l 1,31,-1
 448 896 l 1,32,-1
 448 746 l 1,33,-1
 598 746 l 1,30,-1
598 1046 m 1,34,-1
 598 1194 l 1,35,-1
 448 1194 l 1,36,-1
 448 1046 l 1,37,-1
 598 1046 l 1,34,-1
1344 150 m 1,38,-1
 1344 896 l 1,39,-1
 746 896 l 1,40,-1
 746 746 l 1,41,-1
 896 746 l 1,42,-1
 896 598 l 1,43,-1
 746 598 l 1,44,-1
 746 448 l 1,45,-1
 896 448 l 1,46,-1
 896 298 l 1,47,-1
 746 298 l 1,48,-1
 746 150 l 1,49,-1
 1344 150 l 1,38,-1
1194 746 m 1,50,-1
 1194 598 l 1,51,-1
 1046 598 l 1,52,-1
 1046 746 l 1,53,-1
 1194 746 l 1,50,-1
1194 448 m 1,54,-1
 1194 298 l 1,55,-1
 1046 298 l 1,56,-1
 1046 448 l 1,57,-1
 1194 448 l 1,54,-1
EndSplineSet
EndChar

StartChar: uniF133
Encoding: 61747 61747 53
Width: 1344
Flags: W
LayerCount: 2
Fore
SplineSet
896 746 m 1,0,-1
 1344 746 l 1,1,-1
 1344 0 l 1,2,-1
 0 0 l 1,3,-1
 0 1046 l 1,4,-1
 448 1046 l 1,5,-1
 448 1194 l 1,6,-1
 672 1418 l 1,7,-1
 896 1194 l 1,8,-1
 896 746 l 1,0,-1
298 150 m 1,9,-1
 298 298 l 1,10,-1
 150 298 l 1,11,-1
 150 150 l 1,12,-1
 298 150 l 1,9,-1
298 448 m 1,13,-1
 298 598 l 1,14,-1
 150 598 l 1,15,-1
 150 448 l 1,16,-1
 298 448 l 1,13,-1
298 746 m 1,17,-1
 298 896 l 1,18,-1
 150 896 l 1,19,-1
 150 746 l 1,20,-1
 298 746 l 1,17,-1
746 150 m 1,21,-1
 746 298 l 1,22,-1
 598 298 l 1,23,-1
 598 150 l 1,24,-1
 746 150 l 1,21,-1
746 448 m 1,25,-1
 746 598 l 1,26,-1
 598 598 l 1,27,-1
 598 448 l 1,28,-1
 746 448 l 1,25,-1
746 746 m 1,29,-1
 746 896 l 1,30,-1
 598 896 l 1,31,-1
 598 746 l 1,32,-1
 746 746 l 1,29,-1
746 1046 m 1,33,-1
 746 1194 l 1,34,-1
 598 1194 l 1,35,-1
 598 1046 l 1,36,-1
 746 1046 l 1,33,-1
1194 150 m 1,37,-1
 1194 298 l 1,38,-1
 1046 298 l 1,39,-1
 1046 150 l 1,40,-1
 1194 150 l 1,37,-1
1194 448 m 1,41,-1
 1194 598 l 1,42,-1
 1046 598 l 1,43,-1
 1046 448 l 1,44,-1
 1194 448 l 1,41,-1
EndSplineSet
EndChar

StartChar: uniF134
Encoding: 61748 61748 54
Width: 1494
Flags: W
LayerCount: 2
Fore
SplineSet
942 970 m 1,0,-1
 1046 864 l 1,1,-1
 850 672 l 1,2,-1
 1046 480 l 1,3,-1
 942 374 l 1,4,-1
 746 567 l 1,5,-1
 553 374 l 1,6,-1
 448 480 l 1,7,-1
 640 672 l 1,8,-1
 448 864 l 1,9,-1
 553 970 l 1,10,-1
 746 777 l 1,11,-1
 942 970 l 1,0,-1
747.5 1418 m 128,-1,13
 1057 1418 1057 1418 1275.5 1199 c 128,-1,14
 1494 980 1494 980 1494 672 c 128,-1,15
 1494 364 1494 364 1275.5 145 c 128,-1,16
 1057 -74 1057 -74 747.5 -74 c 128,-1,17
 438 -74 438 -74 219 145 c 128,-1,18
 0 364 0 364 0 672 c 128,-1,19
 0 980 0 980 219 1199 c 128,-1,12
 438 1418 438 1418 747.5 1418 c 128,-1,13
747 74 m 128,-1,21
 994 74 994 74 1169 249 c 128,-1,22
 1344 424 1344 424 1344 672 c 128,-1,23
 1344 920 1344 920 1169 1095 c 128,-1,24
 994 1270 994 1270 747 1270 c 128,-1,25
 500 1270 500 1270 325 1095 c 128,-1,26
 150 920 150 920 150 672 c 128,-1,27
 150 424 150 424 325 249 c 128,-1,20
 500 74 500 74 747 74 c 128,-1,21
EndSplineSet
EndChar

StartChar: uniF135
Encoding: 61749 61749 55
Width: 1494
Flags: W
LayerCount: 2
Fore
SplineSet
747.5 1418 m 128,-1,1
 1057 1418 1057 1418 1275.5 1199 c 128,-1,2
 1494 980 1494 980 1494 672 c 128,-1,3
 1494 364 1494 364 1275.5 145 c 128,-1,4
 1057 -74 1057 -74 747.5 -74 c 128,-1,5
 438 -74 438 -74 219 145 c 128,-1,6
 0 364 0 364 0 672 c 128,-1,7
 0 980 0 980 219 1199 c 128,-1,0
 438 1418 438 1418 747.5 1418 c 128,-1,1
1120 402 m 1,8,-1
 850 672 l 1,9,-1
 1120 942 l 1,10,-1
 1015 1046 l 1,11,-1
 746 777 l 1,12,-1
 480 1046 l 1,13,-1
 374 942 l 1,14,-1
 640 672 l 1,15,-1
 374 402 l 1,16,-1
 480 298 l 1,17,-1
 746 567 l 1,18,-1
 1015 298 l 1,19,-1
 1120 402 l 1,8,-1
EndSplineSet
EndChar

StartChar: uniF136
Encoding: 61750 61750 56
Width: 1046
Flags: W
LayerCount: 2
Fore
SplineSet
1046 1088 m 1,0,-1
 626 672 l 1,1,-1
 1046 256 l 1,2,-1
 942 150 l 1,3,-1
 522 567 l 1,4,-1
 105 150 l 1,5,-1
 0 256 l 1,6,-1
 416 672 l 1,7,-1
 0 1088 l 1,8,-1
 105 1194 l 1,9,-1
 522 777 l 1,10,-1
 942 1194 l 1,11,-1
 1046 1088 l 1,0,-1
EndSplineSet
EndChar

StartChar: uniF137
Encoding: 61751 61751 57
Width: 1344
Flags: W
LayerCount: 2
Fore
SplineSet
598 598 m 1,0,-1
 0 1194 l 1,1,-1
 0 1344 l 1,2,-1
 1344 1344 l 1,3,-1
 1344 1194 l 1,4,-1
 746 598 l 1,5,-1
 746 150 l 1,6,-1
 1120 150 l 1,7,-1
 1120 0 l 1,8,-1
 224 0 l 1,9,-1
 224 150 l 1,10,-1
 598 150 l 1,11,-1
 598 598 l 1,0,-1
336 1046 m 1,12,-1
 1008 1046 l 1,13,-1
 1158 1194 l 1,14,-1
 186 1194 l 1,15,-1
 336 1046 l 1,12,-1
EndSplineSet
EndChar

StartChar: uniF138
Encoding: 61752 61752 58
Width: 1669
Flags: W
LayerCount: 2
Fore
SplineSet
518 1064 m 1,0,-1
 192 672 l 1,1,-1
 518 280 l 1,2,-1
 402 186 l 1,3,-1
 0 672 l 1,4,-1
 402 1158 l 1,5,-1
 518 1064 l 1,0,-1
462 598 m 1,6,-1
 462 746 l 1,7,-1
 612 746 l 1,8,-1
 612 598 l 1,9,-1
 462 598 l 1,6,-1
1208 746 m 1,10,-1
 1208 598 l 1,11,-1
 1060 598 l 1,12,-1
 1060 746 l 1,13,-1
 1208 746 l 1,10,-1
760 598 m 1,14,-1
 760 746 l 1,15,-1
 910 746 l 1,16,-1
 910 598 l 1,17,-1
 760 598 l 1,14,-1
1267 1158 m 1,18,-1
 1670 672 l 1,19,-1
 1267 186 l 1,20,-1
 1152 280 l 1,21,-1
 1477 672 l 1,22,-1
 1152 1064 l 1,23,-1
 1267 1158 l 1,18,-1
EndSplineSet
EndChar

StartChar: uniF139
Encoding: 61753 61753 59
Width: 1193
Flags: W
LayerCount: 2
Fore
SplineSet
224 1194 m 1,0,-1
 224 1046 l 1,1,-1
 74 1046 l 1,2,-1
 74 1344 l 2,3,4
 74 1407 74 1407 117.5 1450.5 c 128,-1,5
 161 1494 161 1494 224 1494 c 2,6,-1
 970 1491 l 2,7,8
 1033 1491 1033 1491 1076.5 1449 c 128,-1,9
 1120 1407 1120 1407 1120 1344 c 2,10,-1
 1120 1046 l 1,11,-1
 970 1046 l 1,12,-1
 970 1194 l 1,13,-1
 224 1194 l 1,0,-1
850 329 m 1,14,-1
 746 434 l 1,15,-1
 984 672 l 1,16,-1
 746 910 l 1,17,-1
 850 1015 l 1,18,-1
 1194 672 l 1,19,-1
 850 329 l 1,14,-1
448 434 m 1,20,-1
 343 329 l 1,21,-1
 0 672 l 1,22,-1
 343 1015 l 1,23,-1
 448 910 l 1,24,-1
 210 672 l 1,25,-1
 448 434 l 1,20,-1
970 150 m 1,26,-1
 970 298 l 1,27,-1
 1120 298 l 1,28,-1
 1120 0 l 2,29,30
 1120 -63 1120 -63 1076 -106.5 c 128,-1,31
 1032 -150 1032 -150 970 -150 c 2,32,-1
 224 -150 l 2,33,34
 161 -150 161 -150 117.5 -106.5 c 128,-1,35
 74 -63 74 -63 74 0 c 2,36,-1
 74 298 l 1,37,-1
 224 298 l 1,38,-1
 224 150 l 1,39,-1
 970 150 l 1,26,-1
EndSplineSet
EndChar

StartChar: uniF13A
Encoding: 61754 61754 60
Width: 1494
Flags: W
LayerCount: 2
Fore
SplineSet
553 329 m 1,0,-1
 448 224 l 1,1,-1
 0 672 l 1,2,-1
 448 1120 l 1,3,-1
 553 1015 l 1,4,-1
 210 672 l 1,5,-1
 553 329 l 1,0,-1
942 329 m 1,6,-1
 1284 672 l 1,7,-1
 942 1015 l 1,8,-1
 1046 1120 l 1,9,-1
 1494 672 l 1,10,-1
 1046 224 l 1,11,-1
 942 329 l 1,6,-1
EndSplineSet
EndChar

StartChar: uniF13B
Encoding: 61755 61755 61
Width: 1494
Flags: W
LayerCount: 2
Fore
SplineSet
1344 1344 m 2,0,1
 1407 1344 1407 1344 1450.5 1300 c 128,-1,2
 1494 1256 1494 1256 1494 1194 c 2,3,-1
 1494 970 l 2,4,5
 1494 910 1494 910 1450.5 866 c 128,-1,6
 1407 822 1407 822 1344 822 c 2,7,-1
 1194 822 l 1,8,-1
 1194 598 l 2,9,10
 1194 472 1194 472 1106 385 c 128,-1,11
 1018 298 1018 298 896 298 c 2,12,-1
 448 298 l 2,13,14
 326 298 326 298 238 385 c 128,-1,15
 150 472 150 472 150 598 c 2,16,-1
 150 1344 l 1,17,-1
 1344 1344 l 2,0,1
1344 970 m 1,18,-1
 1344 1194 l 1,19,-1
 1194 1194 l 1,20,-1
 1194 970 l 1,21,-1
 1344 970 l 1,18,-1
0 0 m 1,22,-1
 0 150 l 1,23,-1
 1344 150 l 1,24,-1
 1344 0 l 1,25,-1
 0 0 l 1,22,-1
EndSplineSet
EndChar

StartChar: uniF13C
Encoding: 61756 61756 62
Width: 1494
Flags: W
LayerCount: 2
Fore
SplineSet
150 1120 m 1,0,-1
 150 74 l 1,1,-1
 1194 74 l 1,2,-1
 1194 -74 l 1,3,-1
 150 -74 l 2,4,5
 87 -74 87 -74 43.5 -30 c 128,-1,6
 0 14 0 14 0 74 c 2,7,-1
 0 1120 l 1,8,-1
 150 1120 l 1,0,-1
1344 1418 m 2,9,10
 1407 1418 1407 1418 1450.5 1374 c 128,-1,11
 1494 1330 1494 1330 1494 1270 c 2,12,-1
 1494 374 l 2,13,14
 1494 311 1494 311 1450.5 267.5 c 128,-1,15
 1407 224 1407 224 1344 224 c 2,16,-1
 448 224 l 2,17,18
 385 224 385 224 341.5 268 c 128,-1,19
 298 312 298 312 298 374 c 2,20,-1
 298 1270 l 2,21,22
 298 1330 298 1330 341.5 1374 c 128,-1,23
 385 1418 385 1418 448 1418 c 2,24,-1
 1344 1418 l 2,9,10
1344 672 m 1,25,-1
 1344 1270 l 1,26,-1
 970 1270 l 1,27,-1
 970 672 l 1,28,-1
 1158 784 l 1,29,-1
 1344 672 l 1,25,-1
EndSplineSet
EndChar

StartChar: uniF13D
Encoding: 61757 61757 63
Width: 1641
Flags: W
LayerCount: 2
Fore
SplineSet
150 896 m 1,0,-1
 150 74 l 1,1,-1
 1344 74 l 1,2,3
 1344 14 1344 14 1300 -30 c 128,-1,4
 1256 -74 1256 -74 1194 -74 c 2,5,-1
 150 -74 l 2,6,7
 87 -74 87 -74 43.5 -30 c 128,-1,8
 0 14 0 14 0 74 c 2,9,-1
 0 896 l 1,10,-1
 150 896 l 1,0,-1
1270 1194 m 1,11,-1
 1642 1194 l 1,12,-1
 1642 374 l 2,13,14
 1642 311 1642 311 1598 267.5 c 128,-1,15
 1554 224 1554 224 1494 224 c 2,16,-1
 448 224 l 2,17,18
 385 224 385 224 341.5 268 c 128,-1,19
 298 312 298 312 298 374 c 2,20,-1
 298 1194 l 1,21,-1
 672 1194 l 1,22,-1
 672 1344 l 2,23,24
 672 1407 672 1407 716 1450.5 c 128,-1,25
 760 1494 760 1494 822 1494 c 2,26,-1
 1120 1494 l 2,27,28
 1183 1494 1183 1494 1226.5 1450.5 c 128,-1,29
 1270 1407 1270 1407 1270 1344 c 2,30,-1
 1270 1194 l 1,11,-1
822 1344 m 1,31,-1
 822 1194 l 1,32,-1
 1120 1194 l 1,33,-1
 1120 1344 l 1,34,-1
 822 1344 l 1,31,-1
822 448 m 1,35,-1
 1232 746 l 1,36,-1
 822 970 l 1,37,-1
 822 448 l 1,35,-1
EndSplineSet
EndChar

StartChar: uniF13E
Encoding: 61758 61758 64
Width: 1792
Flags: W
LayerCount: 2
Fore
SplineSet
150 1120 m 1,0,-1
 150 74 l 1,1,-1
 1494 74 l 1,2,-1
 1494 -74 l 1,3,-1
 150 -74 l 2,4,5
 87 -74 87 -74 43.5 -30 c 128,-1,6
 0 14 0 14 0 74 c 2,7,-1
 0 746 l 1,8,-1
 0 1120 l 1,9,-1
 150 1120 l 1,0,-1
1642 1270 m 2,10,11
 1705 1270 1705 1270 1748.5 1226.5 c 128,-1,12
 1792 1183 1792 1183 1792 1120 c 2,13,-1
 1792 374 l 2,14,15
 1792 311 1792 311 1748 267.5 c 128,-1,16
 1704 224 1704 224 1642 224 c 2,17,-1
 448 224 l 2,18,19
 385 224 385 224 341.5 268 c 128,-1,20
 298 312 298 312 298 374 c 2,21,-1
 301 1270 l 2,22,23
 301 1330 301 1330 343 1374 c 128,-1,24
 385 1418 385 1418 448 1418 c 2,25,-1
 896 1418 l 1,26,-1
 1046 1270 l 1,27,-1
 1642 1270 l 2,10,11
522 448 m 1,28,-1
 1568 448 l 1,29,-1
 1306 784 l 1,30,-1
 1120 560 l 1,31,-1
 858 896 l 1,32,-1
 522 448 l 1,28,-1
EndSplineSet
EndChar

StartChar: uniF13F
Encoding: 61759 61759 65
Width: 1641
Flags: W
LayerCount: 2
Fore
SplineSet
1116 798 m 1,0,-1
 1382 448 l 1,1,-1
 560 448 l 1,2,-1
 766 710 l 1,3,-1
 910 536 l 1,4,-1
 1116 798 l 1,0,-1
150 1194 m 1,5,-1
 150 0 l 1,6,-1
 1344 0 l 1,7,-1
 1344 -150 l 1,8,-1
 150 -150 l 2,9,10
 87 -150 87 -150 43.5 -106.5 c 128,-1,11
 0 -63 0 -63 0 0 c 2,12,-1
 0 1194 l 1,13,-1
 150 1194 l 1,5,-1
1494 1494 m 2,14,15
 1554 1494 1554 1494 1598 1450.5 c 128,-1,16
 1642 1407 1642 1407 1642 1344 c 2,17,-1
 1642 298 l 2,18,19
 1642 238 1642 238 1598 194 c 128,-1,20
 1554 150 1554 150 1494 150 c 2,21,-1
 448 150 l 2,22,23
 385 150 385 150 341.5 194 c 128,-1,24
 298 238 298 238 298 298 c 2,25,-1
 298 1344 l 2,26,27
 298 1407 298 1407 341.5 1450.5 c 128,-1,28
 385 1494 385 1494 448 1494 c 2,29,-1
 1494 1494 l 2,14,15
1494 298 m 1,30,-1
 1494 1344 l 1,31,-1
 448 1344 l 1,32,-1
 448 298 l 1,33,-1
 1494 298 l 1,30,-1
EndSplineSet
EndChar

StartChar: uniF140
Encoding: 61760 61760 66
Width: 1494
Flags: W
LayerCount: 2
Fore
SplineSet
1494 374 m 2,0,1
 1494 311 1494 311 1450.5 267.5 c 128,-1,2
 1407 224 1407 224 1344 224 c 2,3,-1
 448 224 l 2,4,5
 385 224 385 224 341.5 268 c 128,-1,6
 298 312 298 312 298 374 c 2,7,-1
 298 1270 l 2,8,9
 298 1330 298 1330 341.5 1374 c 128,-1,10
 385 1418 385 1418 448 1418 c 2,11,-1
 1344 1418 l 2,12,13
 1407 1418 1407 1418 1450.5 1374 c 128,-1,14
 1494 1330 1494 1330 1494 1270 c 2,15,-1
 1494 374 l 2,0,1
672 672 m 1,16,-1
 448 374 l 1,17,-1
 1344 374 l 1,18,-1
 1046 746 l 1,19,-1
 822 469 l 1,20,-1
 672 672 l 1,16,-1
0 1120 m 1,21,-1
 150 1120 l 1,22,-1
 150 74 l 1,23,-1
 1194 74 l 1,24,-1
 1194 -74 l 1,25,-1
 150 -74 l 2,26,27
 87 -74 87 -74 43.5 -30 c 128,-1,28
 0 14 0 14 0 74 c 2,29,-1
 0 1120 l 1,21,-1
EndSplineSet
EndChar

StartChar: uniF141
Encoding: 61761 61761 67
Width: 1641
Flags: W
LayerCount: 2
Fore
SplineSet
150 1194 m 1,0,-1
 150 0 l 1,1,-1
 1344 0 l 1,2,-1
 1344 -150 l 1,3,-1
 150 -150 l 2,4,5
 87 -150 87 -150 43.5 -106.5 c 128,-1,6
 0 -63 0 -63 0 0 c 2,7,-1
 0 1194 l 1,8,-1
 150 1194 l 1,0,-1
970 448 m 1,9,-1
 970 1046 l 1,10,-1
 822 1046 l 1,11,-1
 822 1194 l 1,12,-1
 1120 1194 l 1,13,-1
 1120 448 l 1,14,-1
 970 448 l 1,9,-1
1494 1494 m 2,15,16
 1554 1494 1554 1494 1598 1450.5 c 128,-1,17
 1642 1407 1642 1407 1642 1344 c 2,18,-1
 1642 298 l 2,19,20
 1642 238 1642 238 1598 194 c 128,-1,21
 1554 150 1554 150 1494 150 c 2,22,-1
 448 150 l 2,23,24
 385 150 385 150 341.5 194 c 128,-1,25
 298 238 298 238 298 298 c 2,26,-1
 298 1344 l 2,27,28
 298 1407 298 1407 341.5 1450.5 c 128,-1,29
 385 1494 385 1494 448 1494 c 2,30,-1
 1494 1494 l 2,15,16
1494 298 m 1,31,-1
 1494 1344 l 1,32,-1
 448 1344 l 1,33,-1
 448 298 l 1,34,-1
 1494 298 l 1,31,-1
EndSplineSet
EndChar

StartChar: uniF142
Encoding: 61762 61762 68
Width: 1641
Flags: W
LayerCount: 2
Fore
SplineSet
150 1194 m 1,0,-1
 150 0 l 1,1,-1
 1344 0 l 1,2,-1
 1344 -150 l 1,3,-1
 150 -150 l 2,4,5
 87 -150 87 -150 43.5 -106.5 c 128,-1,6
 0 -63 0 -63 0 0 c 2,7,-1
 0 1194 l 1,8,-1
 150 1194 l 1,0,-1
1494 1494 m 2,9,10
 1554 1494 1554 1494 1598 1450.5 c 128,-1,11
 1642 1407 1642 1407 1642 1344 c 2,12,-1
 1642 298 l 2,13,14
 1642 238 1642 238 1598 194 c 128,-1,15
 1554 150 1554 150 1494 150 c 2,16,-1
 448 150 l 2,17,18
 385 150 385 150 341.5 194 c 128,-1,19
 298 238 298 238 298 298 c 2,20,-1
 298 1344 l 2,21,22
 298 1407 298 1407 341.5 1450.5 c 128,-1,23
 385 1494 385 1494 448 1494 c 2,24,-1
 1494 1494 l 2,9,10
1494 298 m 1,25,-1
 1494 1344 l 1,26,-1
 448 1344 l 1,27,-1
 448 298 l 1,28,-1
 1494 298 l 1,25,-1
1194 598 m 1,29,-1
 1194 448 l 1,30,-1
 746 448 l 1,31,-1
 746 746 l 2,32,33
 746 809 746 809 789.5 852.5 c 128,-1,34
 833 896 833 896 896 896 c 2,35,-1
 1046 896 l 1,36,-1
 1046 1046 l 1,37,-1
 746 1046 l 1,38,-1
 746 1194 l 1,39,-1
 1046 1194 l 2,40,41
 1106 1194 1106 1194 1150 1150 c 128,-1,42
 1194 1106 1194 1106 1194 1046 c 2,43,-1
 1194 896 l 2,44,45
 1194 833 1194 833 1150 789.5 c 128,-1,46
 1106 746 1106 746 1046 746 c 2,47,-1
 896 746 l 1,48,-1
 896 598 l 1,49,-1
 1194 598 l 1,29,-1
EndSplineSet
EndChar

StartChar: uniF143
Encoding: 61763 61763 69
Width: 1641
Flags: W
LayerCount: 2
Fore
SplineSet
1494 1494 m 2,0,1
 1554 1494 1554 1494 1598 1450.5 c 128,-1,2
 1642 1407 1642 1407 1642 1344 c 2,3,-1
 1642 298 l 2,4,5
 1642 238 1642 238 1598 194 c 128,-1,6
 1554 150 1554 150 1494 150 c 2,7,-1
 448 150 l 2,8,9
 385 150 385 150 341.5 194 c 128,-1,10
 298 238 298 238 298 298 c 2,11,-1
 298 1344 l 2,12,13
 298 1407 298 1407 341.5 1450.5 c 128,-1,14
 385 1494 385 1494 448 1494 c 2,15,-1
 1494 1494 l 2,0,1
1494 298 m 1,16,-1
 1494 1344 l 1,17,-1
 448 1344 l 1,18,-1
 448 298 l 1,19,-1
 1494 298 l 1,16,-1
150 1194 m 1,20,-1
 150 0 l 1,21,-1
 1344 0 l 1,22,-1
 1344 -150 l 1,23,-1
 150 -150 l 2,24,25
 87 -150 87 -150 43.5 -106.5 c 128,-1,26
 0 -63 0 -63 0 0 c 2,27,-1
 0 1194 l 1,28,-1
 150 1194 l 1,20,-1
1194 598 m 2,29,30
 1194 535 1194 535 1150 491.5 c 128,-1,31
 1106 448 1106 448 1046 448 c 2,32,-1
 746 448 l 1,33,-1
 746 598 l 1,34,-1
 1046 598 l 1,35,-1
 1046 746 l 1,36,-1
 896 746 l 1,37,-1
 896 896 l 1,38,-1
 1046 896 l 1,39,-1
 1046 1046 l 1,40,-1
 746 1046 l 1,41,-1
 746 1194 l 1,42,-1
 1046 1194 l 2,43,44
 1106 1194 1106 1194 1150 1150 c 128,-1,45
 1194 1106 1194 1106 1194 1046 c 2,46,-1
 1194 934 l 2,47,48
 1194 885 1194 885 1162 853.5 c 128,-1,49
 1130 822 1130 822 1082 822 c 1,50,51
 1131 822 1131 822 1162.5 789 c 128,-1,52
 1194 756 1194 756 1194 710 c 2,53,-1
 1194 598 l 2,29,30
EndSplineSet
EndChar

StartChar: uniF144
Encoding: 61764 61764 70
Width: 1641
Flags: W
LayerCount: 2
Fore
SplineSet
150 1194 m 1,0,-1
 150 0 l 1,1,-1
 1344 0 l 1,2,-1
 1344 -150 l 1,3,-1
 150 -150 l 2,4,5
 87 -150 87 -150 43.5 -106.5 c 128,-1,6
 0 -63 0 -63 0 0 c 2,7,-1
 0 1194 l 1,8,-1
 150 1194 l 1,0,-1
1046 448 m 1,9,-1
 1046 746 l 1,10,-1
 746 746 l 1,11,-1
 746 1194 l 1,12,-1
 896 1194 l 1,13,-1
 896 896 l 1,14,-1
 1046 896 l 1,15,-1
 1046 1194 l 1,16,-1
 1194 1194 l 1,17,-1
 1194 448 l 1,18,-1
 1046 448 l 1,9,-1
1494 1494 m 2,19,20
 1554 1494 1554 1494 1598 1450.5 c 128,-1,21
 1642 1407 1642 1407 1642 1344 c 2,22,-1
 1642 298 l 2,23,24
 1642 238 1642 238 1598 194 c 128,-1,25
 1554 150 1554 150 1494 150 c 2,26,-1
 448 150 l 2,27,28
 385 150 385 150 341.5 194 c 128,-1,29
 298 238 298 238 298 298 c 2,30,-1
 298 1344 l 2,31,32
 298 1407 298 1407 341.5 1450.5 c 128,-1,33
 385 1494 385 1494 448 1494 c 2,34,-1
 1494 1494 l 2,19,20
1494 298 m 1,35,-1
 1494 1344 l 1,36,-1
 448 1344 l 1,37,-1
 448 298 l 1,38,-1
 1494 298 l 1,35,-1
EndSplineSet
EndChar

StartChar: uniF145
Encoding: 61765 61765 71
Width: 1641
Flags: W
LayerCount: 2
Fore
SplineSet
1494 1494 m 2,0,1
 1554 1494 1554 1494 1598 1450.5 c 128,-1,2
 1642 1407 1642 1407 1642 1344 c 2,3,-1
 1642 298 l 2,4,5
 1642 238 1642 238 1598 194 c 128,-1,6
 1554 150 1554 150 1494 150 c 2,7,-1
 448 150 l 2,8,9
 385 150 385 150 341.5 194 c 128,-1,10
 298 238 298 238 298 298 c 2,11,-1
 298 1344 l 2,12,13
 298 1407 298 1407 341.5 1450.5 c 128,-1,14
 385 1494 385 1494 448 1494 c 2,15,-1
 1494 1494 l 2,0,1
1494 298 m 1,16,-1
 1494 1344 l 1,17,-1
 448 1344 l 1,18,-1
 448 298 l 1,19,-1
 1494 298 l 1,16,-1
150 1194 m 1,20,-1
 150 0 l 1,21,-1
 1344 0 l 1,22,-1
 1344 -150 l 1,23,-1
 150 -150 l 2,24,25
 87 -150 87 -150 43.5 -106.5 c 128,-1,26
 0 -63 0 -63 0 0 c 2,27,-1
 0 1194 l 1,28,-1
 150 1194 l 1,20,-1
1194 598 m 2,29,30
 1194 535 1194 535 1150 491.5 c 128,-1,31
 1106 448 1106 448 1046 448 c 2,32,-1
 746 448 l 1,33,-1
 746 598 l 1,34,-1
 1046 598 l 1,35,-1
 1046 746 l 1,36,-1
 746 746 l 1,37,-1
 746 1194 l 1,38,-1
 1194 1194 l 1,39,-1
 1194 1046 l 1,40,-1
 896 1046 l 1,41,-1
 896 896 l 1,42,-1
 1046 896 l 2,43,44
 1106 896 1106 896 1150 852 c 128,-1,45
 1194 808 1194 808 1194 746 c 2,46,-1
 1194 598 l 2,29,30
EndSplineSet
EndChar

StartChar: uniF146
Encoding: 61766 61766 72
Width: 1641
Flags: W
LayerCount: 2
Fore
SplineSet
150 1194 m 1,0,-1
 150 0 l 1,1,-1
 1344 0 l 1,2,-1
 1344 -150 l 1,3,-1
 150 -150 l 2,4,5
 87 -150 87 -150 43.5 -106.5 c 128,-1,6
 0 -63 0 -63 0 0 c 2,7,-1
 0 1194 l 1,8,-1
 150 1194 l 1,0,-1
1494 1494 m 2,9,10
 1554 1494 1554 1494 1598 1450.5 c 128,-1,11
 1642 1407 1642 1407 1642 1344 c 2,12,-1
 1642 298 l 2,13,14
 1642 238 1642 238 1598 194 c 128,-1,15
 1554 150 1554 150 1494 150 c 2,16,-1
 448 150 l 2,17,18
 385 150 385 150 341.5 194 c 128,-1,19
 298 238 298 238 298 298 c 2,20,-1
 298 1344 l 2,21,22
 298 1407 298 1407 341.5 1450.5 c 128,-1,23
 385 1494 385 1494 448 1494 c 2,24,-1
 1494 1494 l 2,9,10
1494 298 m 1,25,-1
 1494 1344 l 1,26,-1
 448 1344 l 1,27,-1
 448 298 l 1,28,-1
 1494 298 l 1,25,-1
896 448 m 2,29,30
 833 448 833 448 789.5 492 c 128,-1,31
 746 536 746 536 746 598 c 2,32,-1
 746 1046 l 2,33,34
 746 1106 746 1106 789.5 1150 c 128,-1,35
 833 1194 833 1194 896 1194 c 2,36,-1
 1194 1194 l 1,37,-1
 1194 1046 l 1,38,-1
 896 1046 l 1,39,-1
 896 896 l 1,40,-1
 1046 896 l 2,41,42
 1106 896 1106 896 1150 852 c 128,-1,43
 1194 808 1194 808 1194 746 c 2,44,-1
 1194 598 l 2,45,46
 1194 535 1194 535 1150 491.5 c 128,-1,47
 1106 448 1106 448 1046 448 c 2,48,-1
 896 448 l 2,29,30
896 746 m 1,49,-1
 896 598 l 1,50,-1
 1046 598 l 1,51,-1
 1046 746 l 1,52,-1
 896 746 l 1,49,-1
EndSplineSet
EndChar

StartChar: uniF147
Encoding: 61767 61767 73
Width: 1641
Flags: W
LayerCount: 2
Fore
SplineSet
150 1194 m 1,0,-1
 150 0 l 1,1,-1
 1344 0 l 1,2,-1
 1344 -150 l 1,3,-1
 150 -150 l 2,4,5
 87 -150 87 -150 43.5 -106.5 c 128,-1,6
 0 -63 0 -63 0 0 c 2,7,-1
 0 1194 l 1,8,-1
 150 1194 l 1,0,-1
1494 1494 m 2,9,10
 1554 1494 1554 1494 1598 1450.5 c 128,-1,11
 1642 1407 1642 1407 1642 1344 c 2,12,-1
 1642 298 l 2,13,14
 1642 238 1642 238 1598 194 c 128,-1,15
 1554 150 1554 150 1494 150 c 2,16,-1
 448 150 l 2,17,18
 385 150 385 150 341.5 194 c 128,-1,19
 298 238 298 238 298 298 c 2,20,-1
 298 1344 l 2,21,22
 298 1407 298 1407 341.5 1450.5 c 128,-1,23
 385 1494 385 1494 448 1494 c 2,24,-1
 1494 1494 l 2,9,10
1494 298 m 1,25,-1
 1494 1344 l 1,26,-1
 448 1344 l 1,27,-1
 448 298 l 1,28,-1
 1494 298 l 1,25,-1
896 448 m 1,29,-1
 746 448 l 1,30,-1
 1046 1046 l 1,31,-1
 746 1046 l 1,32,-1
 746 1194 l 1,33,-1
 1194 1194 l 1,34,-1
 1194 1046 l 1,35,-1
 896 448 l 1,29,-1
EndSplineSet
EndChar

StartChar: uniF148
Encoding: 61768 61768 74
Width: 1641
Flags: W
LayerCount: 2
Fore
SplineSet
150 1194 m 1,0,-1
 150 0 l 1,1,-1
 1344 0 l 1,2,-1
 1344 -150 l 1,3,-1
 150 -150 l 2,4,5
 87 -150 87 -150 43.5 -106.5 c 128,-1,6
 0 -63 0 -63 0 0 c 2,7,-1
 0 1194 l 1,8,-1
 150 1194 l 1,0,-1
1494 1494 m 2,9,10
 1554 1494 1554 1494 1598 1450.5 c 128,-1,11
 1642 1407 1642 1407 1642 1344 c 2,12,-1
 1642 298 l 2,13,14
 1642 238 1642 238 1598 194 c 128,-1,15
 1554 150 1554 150 1494 150 c 2,16,-1
 448 150 l 2,17,18
 385 150 385 150 341.5 194 c 128,-1,19
 298 238 298 238 298 298 c 2,20,-1
 298 1344 l 2,21,22
 298 1407 298 1407 341.5 1450.5 c 128,-1,23
 385 1494 385 1494 448 1494 c 2,24,-1
 1494 1494 l 2,9,10
1494 298 m 1,25,-1
 1494 1344 l 1,26,-1
 448 1344 l 1,27,-1
 448 298 l 1,28,-1
 1494 298 l 1,25,-1
896 448 m 2,29,30
 833 448 833 448 789.5 492 c 128,-1,31
 746 536 746 536 746 598 c 2,32,-1
 746 710 l 2,33,34
 746 756 746 756 779 789 c 128,-1,35
 812 822 812 822 858 822 c 1,36,37
 812 822 812 822 779 854 c 128,-1,38
 746 886 746 886 746 934 c 2,39,-1
 746 1046 l 2,40,41
 746 1106 746 1106 789.5 1150 c 128,-1,42
 833 1194 833 1194 896 1194 c 2,43,-1
 1046 1194 l 2,44,45
 1106 1194 1106 1194 1150 1150 c 128,-1,46
 1194 1106 1194 1106 1194 1046 c 2,47,-1
 1194 934 l 2,48,49
 1194 885 1194 885 1162 853.5 c 128,-1,50
 1130 822 1130 822 1082 822 c 1,51,52
 1131 822 1131 822 1162.5 789 c 128,-1,53
 1194 756 1194 756 1194 710 c 2,54,-1
 1194 598 l 2,55,56
 1194 535 1194 535 1150 491.5 c 128,-1,57
 1106 448 1106 448 1046 448 c 2,58,-1
 896 448 l 2,29,30
896 1046 m 1,59,-1
 896 896 l 1,60,-1
 1046 896 l 1,61,-1
 1046 1046 l 1,62,-1
 896 1046 l 1,59,-1
896 746 m 1,63,-1
 896 598 l 1,64,-1
 1046 598 l 1,65,-1
 1046 746 l 1,66,-1
 896 746 l 1,63,-1
EndSplineSet
EndChar

StartChar: uniF149
Encoding: 61769 61769 75
Width: 1641
Flags: W
LayerCount: 2
Fore
SplineSet
150 1194 m 1,0,-1
 150 0 l 1,1,-1
 1344 0 l 1,2,-1
 1344 -150 l 1,3,-1
 150 -150 l 2,4,5
 87 -150 87 -150 43.5 -106.5 c 128,-1,6
 0 -63 0 -63 0 0 c 2,7,-1
 0 1194 l 1,8,-1
 150 1194 l 1,0,-1
970 672 m 2,9,10
 970 609 970 609 926 565.5 c 128,-1,11
 882 522 882 522 822 522 c 2,12,-1
 598 522 l 1,13,-1
 598 672 l 1,14,-1
 822 672 l 1,15,-1
 822 746 l 1,16,-1
 746 746 l 2,17,18
 686 746 686 746 642 789.5 c 128,-1,19
 598 833 598 833 598 896 c 2,20,-1
 598 970 l 2,21,22
 598 1033 598 1033 642 1076.5 c 128,-1,23
 686 1120 686 1120 746 1120 c 2,24,-1
 822 1120 l 2,25,26
 882 1120 882 1120 926 1076 c 128,-1,27
 970 1032 970 1032 970 970 c 2,28,-1
 970 672 l 2,9,10
746 896 m 1,29,-1
 822 896 l 1,30,-1
 822 970 l 1,31,-1
 746 970 l 1,32,-1
 746 896 l 1,29,-1
1494 1494 m 2,33,34
 1554 1494 1554 1494 1598 1450.5 c 128,-1,35
 1642 1407 1642 1407 1642 1344 c 2,36,-1
 1642 298 l 2,37,38
 1642 238 1642 238 1598 194 c 128,-1,39
 1554 150 1554 150 1494 150 c 2,40,-1
 448 150 l 2,41,42
 385 150 385 150 341.5 194 c 128,-1,43
 298 238 298 238 298 298 c 2,44,-1
 298 1344 l 2,45,46
 298 1407 298 1407 341.5 1450.5 c 128,-1,47
 385 1494 385 1494 448 1494 c 2,48,-1
 1494 1494 l 2,33,34
1494 896 m 1,49,-1
 1494 1344 l 1,50,-1
 448 1344 l 1,51,-1
 448 298 l 1,52,-1
 1494 298 l 1,53,-1
 1494 746 l 1,54,-1
 1344 746 l 1,55,-1
 1344 598 l 1,56,-1
 1194 598 l 1,57,-1
 1194 746 l 1,58,-1
 1046 746 l 1,59,-1
 1046 896 l 1,60,-1
 1194 896 l 1,61,-1
 1194 1046 l 1,62,-1
 1344 1046 l 1,63,-1
 1344 896 l 1,64,-1
 1494 896 l 1,49,-1
EndSplineSet
EndChar

StartChar: uniF14A
Encoding: 61770 61770 76
Width: 1641
Flags: W
LayerCount: 2
Fore
SplineSet
150 1194 m 1,0,-1
 150 0 l 1,1,-1
 1344 0 l 1,2,-1
 1344 -150 l 1,3,-1
 150 -150 l 2,4,5
 87 -150 87 -150 43.5 -106.5 c 128,-1,6
 0 -63 0 -63 0 0 c 2,7,-1
 0 1194 l 1,8,-1
 150 1194 l 1,0,-1
1494 1494 m 2,9,10
 1554 1494 1554 1494 1598 1450.5 c 128,-1,11
 1642 1407 1642 1407 1642 1344 c 2,12,-1
 1642 298 l 2,13,14
 1642 238 1642 238 1598 194 c 128,-1,15
 1554 150 1554 150 1494 150 c 2,16,-1
 448 150 l 2,17,18
 385 150 385 150 341.5 194 c 128,-1,19
 298 238 298 238 298 298 c 2,20,-1
 298 1344 l 2,21,22
 298 1407 298 1407 341.5 1450.5 c 128,-1,23
 385 1494 385 1494 448 1494 c 2,24,-1
 1494 1494 l 2,9,10
1494 298 m 1,25,-1
 1494 1344 l 1,26,-1
 448 1344 l 1,27,-1
 448 298 l 1,28,-1
 1494 298 l 1,25,-1
1046 1194 m 2,29,30
 1106 1194 1106 1194 1150 1150 c 128,-1,31
 1194 1106 1194 1106 1194 1046 c 2,32,-1
 1194 598 l 2,33,34
 1194 535 1194 535 1150 491.5 c 128,-1,35
 1106 448 1106 448 1046 448 c 2,36,-1
 746 448 l 1,37,-1
 746 598 l 1,38,-1
 1046 598 l 1,39,-1
 1046 746 l 1,40,-1
 896 746 l 2,41,42
 833 746 833 746 789.5 789.5 c 128,-1,43
 746 833 746 833 746 896 c 2,44,-1
 746 1046 l 2,45,46
 746 1106 746 1106 789.5 1150 c 128,-1,47
 833 1194 833 1194 896 1194 c 2,48,-1
 1046 1194 l 2,29,30
1046 896 m 1,49,-1
 1046 1046 l 1,50,-1
 896 1046 l 1,51,-1
 896 896 l 1,52,-1
 1046 896 l 1,49,-1
EndSplineSet
EndChar

StartChar: uniF14B
Encoding: 61771 61771 77
Width: 1641
Flags: W
LayerCount: 2
Fore
SplineSet
150 1194 m 1,0,-1
 150 0 l 1,1,-1
 1344 0 l 1,2,-1
 1344 -150 l 1,3,-1
 150 -150 l 2,4,5
 87 -150 87 -150 43.5 -106.5 c 128,-1,6
 0 -63 0 -63 0 0 c 2,7,-1
 0 1194 l 1,8,-1
 150 1194 l 1,0,-1
1494 1494 m 2,9,10
 1554 1494 1554 1494 1598 1450.5 c 128,-1,11
 1642 1407 1642 1407 1642 1344 c 2,12,-1
 1642 298 l 2,13,14
 1642 238 1642 238 1598 194 c 128,-1,15
 1554 150 1554 150 1494 150 c 2,16,-1
 448 150 l 2,17,18
 385 150 385 150 341.5 194 c 128,-1,19
 298 238 298 238 298 298 c 2,20,-1
 298 1344 l 2,21,22
 298 1407 298 1407 341.5 1450.5 c 128,-1,23
 385 1494 385 1494 448 1494 c 2,24,-1
 1494 1494 l 2,9,10
1494 298 m 1,25,-1
 1494 1344 l 1,26,-1
 448 1344 l 1,27,-1
 448 298 l 1,28,-1
 1494 298 l 1,25,-1
EndSplineSet
EndChar

StartChar: uniF14C
Encoding: 61772 61772 78
Width: 1494
Flags: W
LayerCount: 2
Fore
SplineSet
1344 1418 m 2,0,1
 1407 1418 1407 1418 1450.5 1374 c 128,-1,2
 1494 1330 1494 1330 1494 1270 c 2,3,-1
 1494 374 l 2,4,5
 1494 311 1494 311 1450.5 267.5 c 128,-1,6
 1407 224 1407 224 1344 224 c 2,7,-1
 448 224 l 2,8,9
 385 224 385 224 341.5 268 c 128,-1,10
 298 312 298 312 298 374 c 2,11,-1
 298 1270 l 2,12,13
 298 1330 298 1330 341.5 1374 c 128,-1,14
 385 1418 385 1418 448 1418 c 2,15,-1
 1344 1418 l 2,0,1
1194 1046 m 1,16,-1
 1194 1194 l 1,17,-1
 896 1194 l 1,18,-1
 896 784 l 1,19,20
 847 822 847 822 784 822 c 0,21,22
 707 822 707 822 652.5 766 c 128,-1,23
 598 710 598 710 598 633 c 128,-1,24
 598 556 598 556 652.5 502 c 128,-1,25
 707 448 707 448 784 448 c 128,-1,26
 861 448 861 448 915.5 502 c 128,-1,27
 970 556 970 556 970 634 c 2,28,-1
 970 1046 l 1,29,-1
 1194 1046 l 1,16,-1
150 1120 m 1,30,-1
 150 74 l 1,31,-1
 1194 74 l 1,32,-1
 1194 -74 l 1,33,-1
 150 -74 l 2,34,35
 87 -74 87 -74 43.5 -30 c 128,-1,36
 0 14 0 14 0 74 c 2,37,-1
 0 1120 l 1,38,-1
 150 1120 l 1,30,-1
EndSplineSet
EndChar

StartChar: uniF14D
Encoding: 61773 61773 79
Width: 1494
Flags: W
LayerCount: 2
Fore
SplineSet
1344 1418 m 2,0,1
 1407 1418 1407 1418 1450.5 1374 c 128,-1,2
 1494 1330 1494 1330 1494 1270 c 2,3,-1
 1494 374 l 2,4,5
 1494 311 1494 311 1450.5 267.5 c 128,-1,6
 1407 224 1407 224 1344 224 c 2,7,-1
 448 224 l 2,8,9
 385 224 385 224 341.5 268 c 128,-1,10
 298 312 298 312 298 374 c 2,11,-1
 298 1270 l 2,12,13
 298 1330 298 1330 341.5 1374 c 128,-1,14
 385 1418 385 1418 448 1418 c 2,15,-1
 1344 1418 l 2,0,1
710 858 m 2,16,-1
 710 934 l 2,17,18
 710 980 710 980 677 1013 c 128,-1,19
 644 1046 644 1046 598 1046 c 2,20,-1
 410 1046 l 1,21,-1
 410 598 l 1,22,-1
 522 598 l 1,23,-1
 522 746 l 1,24,-1
 598 746 l 2,25,26
 644 746 644 746 677 779 c 128,-1,27
 710 812 710 812 710 858 c 2,16,-1
1082 710 m 2,28,-1
 1082 934 l 2,29,30
 1082 980 1082 980 1050 1013 c 128,-1,31
 1018 1046 1018 1046 970 1046 c 2,32,-1
 784 1046 l 1,33,-1
 784 598 l 1,34,-1
 970 598 l 2,35,36
 1019 598 1019 598 1050.5 629.5 c 128,-1,37
 1082 661 1082 661 1082 710 c 2,28,-1
1382 934 m 1,38,-1
 1382 1046 l 1,39,-1
 1158 1046 l 1,40,-1
 1158 598 l 1,41,-1
 1270 598 l 1,42,-1
 1270 746 l 1,43,-1
 1382 746 l 1,44,-1
 1382 858 l 1,45,-1
 1270 858 l 1,46,-1
 1270 934 l 1,47,-1
 1382 934 l 1,38,-1
522 858 m 1,48,-1
 522 934 l 1,49,-1
 598 934 l 1,50,-1
 598 858 l 1,51,-1
 522 858 l 1,48,-1
150 1120 m 1,52,-1
 150 74 l 1,53,-1
 1194 74 l 1,54,-1
 1194 -74 l 1,55,-1
 150 -74 l 2,56,57
 87 -74 87 -74 43.5 -30 c 128,-1,58
 0 14 0 14 0 74 c 2,59,-1
 0 1120 l 1,60,-1
 150 1120 l 1,52,-1
896 710 m 1,61,-1
 896 934 l 1,62,-1
 970 934 l 1,63,-1
 970 710 l 1,64,-1
 896 710 l 1,61,-1
EndSplineSet
EndChar

StartChar: uniF14E
Encoding: 61774 61774 80
Width: 1494
Flags: W
LayerCount: 2
Fore
SplineSet
150 1120 m 1,0,-1
 150 74 l 1,1,-1
 1194 74 l 1,2,-1
 1194 -74 l 1,3,-1
 150 -74 l 2,4,5
 87 -74 87 -74 43.5 -30 c 128,-1,6
 0 14 0 14 0 74 c 2,7,-1
 0 1120 l 1,8,-1
 150 1120 l 1,0,-1
1344 1418 m 2,9,10
 1407 1418 1407 1418 1450.5 1374 c 128,-1,11
 1494 1330 1494 1330 1494 1270 c 2,12,-1
 1494 374 l 2,13,14
 1494 311 1494 311 1450.5 267.5 c 128,-1,15
 1407 224 1407 224 1344 224 c 2,16,-1
 448 224 l 2,17,18
 385 224 385 224 341.5 268 c 128,-1,19
 298 312 298 312 298 374 c 2,20,-1
 298 1270 l 2,21,22
 298 1330 298 1330 341.5 1374 c 128,-1,23
 385 1418 385 1418 448 1418 c 2,24,-1
 1344 1418 l 2,9,10
1270 746 m 1,25,-1
 1270 896 l 1,26,-1
 970 896 l 1,27,-1
 970 1194 l 1,28,-1
 822 1194 l 1,29,-1
 822 896 l 1,30,-1
 522 896 l 1,31,-1
 522 746 l 1,32,-1
 822 746 l 1,33,-1
 822 448 l 1,34,-1
 970 448 l 1,35,-1
 970 746 l 1,36,-1
 1270 746 l 1,25,-1
EndSplineSet
EndChar

StartChar: uniF14F
Encoding: 61775 61775 81
Width: 1193
Flags: W
LayerCount: 2
Fore
SplineSet
1060 1494 m 2,0,1
 1116 1494 1116 1494 1155 1454 c 128,-1,2
 1194 1414 1194 1414 1194 1358 c 2,3,-1
 1194 284 l 2,4,5
 1194 228 1194 228 1155 189 c 128,-1,6
 1116 150 1116 150 1060 150 c 2,7,-1
 434 150 l 2,8,9
 378 150 378 150 338 189 c 128,-1,10
 298 228 298 228 298 284 c 2,11,-1
 298 1358 l 2,12,13
 298 1414 298 1414 338 1454 c 128,-1,14
 378 1494 378 1494 434 1494 c 2,15,-1
 1060 1494 l 2,0,1
747 1344 m 128,-1,17
 686 1344 686 1344 642 1300 c 128,-1,18
 598 1256 598 1256 598 1195 c 128,-1,19
 598 1134 598 1134 642 1090 c 128,-1,20
 686 1046 686 1046 747 1046 c 128,-1,21
 808 1046 808 1046 852 1090 c 128,-1,22
 896 1134 896 1134 896 1195 c 128,-1,23
 896 1256 896 1256 852 1300 c 128,-1,16
 808 1344 808 1344 747 1344 c 128,-1,17
747.5 336 m 128,-1,25
 872 336 872 336 959 423.5 c 128,-1,26
 1046 511 1046 511 1046 635.5 c 128,-1,27
 1046 760 1046 760 959 847 c 128,-1,28
 872 934 872 934 747.5 934 c 128,-1,29
 623 934 623 934 535.5 847 c 128,-1,30
 448 760 448 760 448 635.5 c 128,-1,31
 448 511 448 511 535.5 423.5 c 128,-1,24
 623 336 623 336 747.5 336 c 128,-1,25
560 635 m 128,-1,33
 560 822 560 822 747 822 c 128,-1,34
 934 822 934 822 934 635 c 128,-1,35
 934 448 934 448 747 448 c 128,-1,32
 560 448 560 448 560 635 c 128,-1,33
150 1194 m 1,36,-1
 150 0 l 1,37,-1
 896 0 l 1,38,-1
 896 -150 l 1,39,-1
 150 -150 l 2,40,41
 87 -150 87 -150 43.5 -106.5 c 128,-1,42
 0 -63 0 -63 0 0 c 2,43,-1
 0 1194 l 1,44,-1
 150 1194 l 1,36,-1
EndSplineSet
EndChar

StartChar: uniF150
Encoding: 61776 61776 82
Width: 1494
Flags: W
LayerCount: 2
Fore
SplineSet
150 1120 m 1,0,-1
 150 74 l 1,1,-1
 1194 74 l 1,2,-1
 1194 -74 l 1,3,-1
 150 -74 l 2,4,5
 87 -74 87 -74 43.5 -30 c 128,-1,6
 0 14 0 14 0 74 c 2,7,-1
 0 1120 l 1,8,-1
 150 1120 l 1,0,-1
1344 1418 m 2,9,10
 1407 1418 1407 1418 1450.5 1374 c 128,-1,11
 1494 1330 1494 1330 1494 1270 c 2,12,-1
 1494 374 l 2,13,14
 1494 311 1494 311 1450.5 267.5 c 128,-1,15
 1407 224 1407 224 1344 224 c 2,16,-1
 448 224 l 2,17,18
 385 224 385 224 341.5 268 c 128,-1,19
 298 312 298 312 298 374 c 2,20,-1
 298 1270 l 2,21,22
 298 1330 298 1330 341.5 1374 c 128,-1,23
 385 1418 385 1418 448 1418 c 2,24,-1
 1344 1418 l 2,9,10
1270 746 m 1,25,-1
 1270 896 l 1,26,-1
 522 896 l 1,27,-1
 522 746 l 1,28,-1
 1270 746 l 1,25,-1
970 448 m 1,29,-1
 970 598 l 1,30,-1
 522 598 l 1,31,-1
 522 448 l 1,32,-1
 970 448 l 1,29,-1
1270 1046 m 1,33,-1
 1270 1194 l 1,34,-1
 522 1194 l 1,35,-1
 522 1046 l 1,36,-1
 1270 1046 l 1,33,-1
EndSplineSet
EndChar

StartChar: uniF151
Encoding: 61777 61777 83
Width: 1494
Flags: W
LayerCount: 2
Fore
SplineSet
150 1120 m 1,0,-1
 150 74 l 1,1,-1
 1194 74 l 1,2,-1
 1194 -74 l 1,3,-1
 150 -74 l 2,4,5
 87 -74 87 -74 43.5 -30 c 128,-1,6
 0 14 0 14 0 74 c 2,7,-1
 0 1120 l 1,8,-1
 150 1120 l 1,0,-1
1344 1418 m 2,9,10
 1407 1418 1407 1418 1450.5 1374 c 128,-1,11
 1494 1330 1494 1330 1494 1270 c 2,12,-1
 1494 374 l 2,13,14
 1494 311 1494 311 1450.5 267.5 c 128,-1,15
 1407 224 1407 224 1344 224 c 2,16,-1
 448 224 l 2,17,18
 385 224 385 224 341.5 268 c 128,-1,19
 298 312 298 312 298 374 c 2,20,-1
 298 1270 l 2,21,22
 298 1330 298 1330 341.5 1374 c 128,-1,23
 385 1418 385 1418 448 1418 c 2,24,-1
 1344 1418 l 2,9,10
746 486 m 1,25,-1
 1194 822 l 1,26,-1
 746 1158 l 1,27,-1
 746 486 l 1,25,-1
EndSplineSet
EndChar

StartChar: uniF152
Encoding: 61778 61778 84
Width: 1494
Flags: W
LayerCount: 2
Fore
SplineSet
747 752 m 128,-1,1
 780 752 780 752 805 729.5 c 128,-1,2
 830 707 830 707 830 672 c 128,-1,3
 830 637 830 637 805 614.5 c 128,-1,4
 780 592 780 592 747 592 c 128,-1,5
 714 592 714 592 689.5 614.5 c 128,-1,6
 665 637 665 637 665 672 c 128,-1,7
 665 707 665 707 689.5 729.5 c 128,-1,0
 714 752 714 752 747 752 c 128,-1,1
747.5 1418 m 128,-1,9
 1057 1418 1057 1418 1275.5 1199 c 128,-1,10
 1494 980 1494 980 1494 672 c 128,-1,11
 1494 364 1494 364 1275.5 145 c 128,-1,12
 1057 -74 1057 -74 747.5 -74 c 128,-1,13
 438 -74 438 -74 219 145 c 128,-1,14
 0 364 0 364 0 672 c 128,-1,15
 0 980 0 980 219 1199 c 128,-1,8
 438 1418 438 1418 747.5 1418 c 128,-1,9
910 508 m 1,16,-1
 1194 1120 l 1,17,-1
 584 836 l 1,18,-1
 298 224 l 1,19,-1
 910 508 l 1,16,-1
EndSplineSet
EndChar

StartChar: uniF153
Encoding: 61779 61779 85
Width: 1428
Flags: W
LayerCount: 2
Fore
SplineSet
399 570 m 1,0,-1
 88 886 l 2,1,2
 0 974 0 974 0 1096 c 128,-1,3
 0 1218 0 1218 88 1306 c 1,4,-1
 612 784 l 1,5,-1
 399 570 l 1,0,-1
906 707 m 1,6,-1
 798 598 l 1,7,-1
 1309 84 l 1,8,-1
 1204 -21 l 1,9,-1
 693 494 l 1,10,-1
 178 -21 l 1,11,-1
 70 84 l 1,12,-1
 802 812 l 1,13,14
 760 896 760 896 788 1008 c 128,-1,15
 816 1120 816 1120 903 1208 c 0,16,17
 1011 1313 1011 1313 1144.5 1330.5 c 128,-1,18
 1278 1348 1278 1348 1360 1265.5 c 128,-1,19
 1442 1183 1442 1183 1424.5 1050 c 0,20,21
 1406 916 1406 916 1298 808 c 0,22,23
 1210 720 1210 720 1100 692.5 c 128,-1,24
 990 665 990 665 906 707 c 1,6,-1
EndSplineSet
EndChar

StartChar: uniF154
Encoding: 61780 61780 86
Width: 1046
Flags: W
LayerCount: 2
Fore
SplineSet
74 150 m 2,0,-1
 74 1046 l 1,1,-1
 970 1046 l 1,2,-1
 970 150 l 2,3,4
 970 87 970 87 926 43.5 c 128,-1,5
 882 0 882 0 822 0 c 2,6,-1
 224 0 l 2,7,8
 161 0 161 0 117.5 43.5 c 128,-1,9
 74 87 74 87 74 150 c 2,0,-1
1046 1270 m 1,10,-1
 1046 1120 l 1,11,-1
 0 1120 l 1,12,-1
 0 1270 l 1,13,-1
 262 1270 l 1,14,-1
 336 1344 l 1,15,-1
 710 1344 l 1,16,-1
 784 1270 l 1,17,-1
 1046 1270 l 1,10,-1
EndSplineSet
EndChar

StartChar: uniF155
Encoding: 61781 61781 87
Width: 1193
Flags: W
LayerCount: 2
Fore
SplineSet
597 150 m 128,-1,1
 658 150 658 150 702 106.5 c 128,-1,2
 746 63 746 63 746 0 c 128,-1,3
 746 -63 746 -63 702 -106.5 c 128,-1,4
 658 -150 658 -150 597 -150 c 128,-1,5
 536 -150 536 -150 492 -106.5 c 128,-1,6
 448 -63 448 -63 448 0 c 128,-1,7
 448 63 448 63 492 106.5 c 128,-1,0
 536 150 536 150 597 150 c 128,-1,1
149 1494 m 128,-1,9
 210 1494 210 1494 254 1450.5 c 128,-1,10
 298 1407 298 1407 298 1344 c 128,-1,11
 298 1281 298 1281 254 1237.5 c 128,-1,12
 210 1194 210 1194 149 1194 c 128,-1,13
 88 1194 88 1194 44 1237.5 c 128,-1,14
 0 1281 0 1281 0 1344 c 128,-1,15
 0 1407 0 1407 44 1450.5 c 128,-1,8
 88 1494 88 1494 149 1494 c 128,-1,9
149 1046 m 128,-1,17
 210 1046 210 1046 254 1002.5 c 128,-1,18
 298 959 298 959 298 896 c 128,-1,19
 298 833 298 833 254 789.5 c 128,-1,20
 210 746 210 746 149 746 c 128,-1,21
 88 746 88 746 44 789.5 c 128,-1,22
 0 833 0 833 0 896 c 128,-1,23
 0 959 0 959 44 1002.5 c 128,-1,16
 88 1046 88 1046 149 1046 c 128,-1,17
149 598 m 128,-1,25
 210 598 210 598 254 554.5 c 128,-1,26
 298 511 298 511 298 448 c 128,-1,27
 298 385 298 385 254 341.5 c 128,-1,28
 210 298 210 298 149 298 c 128,-1,29
 88 298 88 298 44 341.5 c 128,-1,30
 0 385 0 385 0 448 c 128,-1,31
 0 511 0 511 44 554.5 c 128,-1,24
 88 598 88 598 149 598 c 128,-1,25
1045 1194 m 128,-1,33
 984 1194 984 1194 940 1237.5 c 128,-1,34
 896 1281 896 1281 896 1344 c 128,-1,35
 896 1407 896 1407 940 1450.5 c 128,-1,36
 984 1494 984 1494 1045 1494 c 128,-1,37
 1106 1494 1106 1494 1150 1450.5 c 128,-1,38
 1194 1407 1194 1407 1194 1344 c 128,-1,39
 1194 1281 1194 1281 1150 1237.5 c 128,-1,32
 1106 1194 1106 1194 1045 1194 c 128,-1,33
597 598 m 128,-1,41
 658 598 658 598 702 554.5 c 128,-1,42
 746 511 746 511 746 448 c 128,-1,43
 746 385 746 385 702 341.5 c 128,-1,44
 658 298 658 298 597 298 c 128,-1,45
 536 298 536 298 492 341.5 c 128,-1,46
 448 385 448 385 448 448 c 128,-1,47
 448 511 448 511 492 554.5 c 128,-1,40
 536 598 536 598 597 598 c 128,-1,41
1045 598 m 128,-1,49
 1106 598 1106 598 1150 554.5 c 128,-1,50
 1194 511 1194 511 1194 448 c 128,-1,51
 1194 385 1194 385 1150 341.5 c 128,-1,52
 1106 298 1106 298 1045 298 c 128,-1,53
 984 298 984 298 940 341.5 c 128,-1,54
 896 385 896 385 896 448 c 128,-1,55
 896 511 896 511 940 554.5 c 128,-1,48
 984 598 984 598 1045 598 c 128,-1,49
1045 1046 m 128,-1,57
 1106 1046 1106 1046 1150 1002.5 c 128,-1,58
 1194 959 1194 959 1194 896 c 128,-1,59
 1194 833 1194 833 1150 789.5 c 128,-1,60
 1106 746 1106 746 1045 746 c 128,-1,61
 984 746 984 746 940 789.5 c 128,-1,62
 896 833 896 833 896 896 c 128,-1,63
 896 959 896 959 940 1002.5 c 128,-1,56
 984 1046 984 1046 1045 1046 c 128,-1,57
597 1046 m 128,-1,65
 658 1046 658 1046 702 1002.5 c 128,-1,66
 746 959 746 959 746 896 c 128,-1,67
 746 833 746 833 702 789.5 c 128,-1,68
 658 746 658 746 597 746 c 128,-1,69
 536 746 536 746 492 789.5 c 128,-1,70
 448 833 448 833 448 896 c 128,-1,71
 448 959 448 959 492 1002.5 c 128,-1,64
 536 1046 536 1046 597 1046 c 128,-1,65
597 1494 m 128,-1,73
 658 1494 658 1494 702 1450.5 c 128,-1,74
 746 1407 746 1407 746 1344 c 128,-1,75
 746 1281 746 1281 702 1237.5 c 128,-1,76
 658 1194 658 1194 597 1194 c 128,-1,77
 536 1194 536 1194 492 1237.5 c 128,-1,78
 448 1281 448 1281 448 1344 c 128,-1,79
 448 1407 448 1407 492 1450.5 c 128,-1,72
 536 1494 536 1494 597 1494 c 128,-1,73
EndSplineSet
EndChar

StartChar: uniF156
Encoding: 61782 61782 88
Width: 1344
Flags: W
LayerCount: 2
Fore
SplineSet
1270 598 m 2,0,1
 1298 598 1298 598 1321 575.5 c 0,2,3
 1344 554 1344 554 1344 522 c 2,4,-1
 1344 74 l 2,5,6
 1344 46 1344 46 1321 23 c 128,-1,7
 1298 0 1298 0 1270 0 c 2,8,-1
 74 0 l 2,9,10
 46 0 46 0 23 23 c 128,-1,11
 0 46 0 46 0 74 c 2,12,-1
 0 522 l 2,13,14
 0 554 0 554 23 576 c 128,-1,15
 46 598 46 598 74 598 c 2,16,-1
 1270 598 l 2,0,1
299 150 m 128,-1,18
 360 150 360 150 404 194 c 128,-1,19
 448 238 448 238 448 299 c 128,-1,20
 448 360 448 360 404 404 c 128,-1,21
 360 448 360 448 299 448 c 128,-1,22
 238 448 238 448 194 404 c 128,-1,23
 150 360 150 360 150 299 c 128,-1,24
 150 238 150 238 194 194 c 128,-1,17
 238 150 238 150 299 150 c 128,-1,18
1270 1344 m 2,25,26
 1298 1344 1298 1344 1321 1321 c 128,-1,27
 1344 1298 1344 1298 1344 1270 c 2,28,-1
 1344 822 l 2,29,30
 1344 790 1344 790 1321 768 c 128,-1,31
 1298 746 1298 746 1270 746 c 2,32,-1
 74 746 l 2,33,34
 46 746 46 746 23 768.5 c 0,35,36
 0 790 0 790 0 822 c 2,37,-1
 0 1270 l 2,38,39
 0 1298 0 1298 23 1321 c 128,-1,40
 46 1344 46 1344 74 1344 c 2,41,-1
 1270 1344 l 2,25,26
299 896 m 128,-1,43
 360 896 360 896 404 940 c 128,-1,44
 448 984 448 984 448 1045 c 128,-1,45
 448 1106 448 1106 404 1150 c 128,-1,46
 360 1194 360 1194 299 1194 c 128,-1,47
 238 1194 238 1194 194 1150 c 128,-1,48
 150 1106 150 1106 150 1045 c 128,-1,49
 150 984 150 984 194 940 c 128,-1,42
 238 896 238 896 299 896 c 128,-1,43
EndSplineSet
EndChar

StartChar: uniF157
Encoding: 61783 61783 89
Width: 1344
Flags: W
LayerCount: 2
Fore
SplineSet
0 1418 m 1,0,-1
 1344 1418 l 1,1,-1
 1194 56 l 2,2,3
 1187 0 1187 0 1144.5 -37 c 128,-1,4
 1102 -74 1102 -74 1046 -74 c 2,5,-1
 298 -74 l 2,6,7
 242 -74 242 -74 200 -37 c 128,-1,8
 158 0 158 0 150 56 c 2,9,-1
 0 1418 l 1,0,-1
672 150 m 128,-1,11
 766 150 766 150 831 215 c 128,-1,12
 896 280 896 280 896 374 c 0,13,14
 896 440 896 440 840 540 c 128,-1,15
 784 640 784 640 728 710 c 2,16,-1
 672 777 l 1,17,18
 648 749 648 749 611 701.5 c 128,-1,19
 574 654 574 654 511 547.5 c 0,20,21
 448 440 448 440 448 374 c 0,22,23
 448 280 448 280 513 215 c 128,-1,10
 578 150 578 150 672 150 c 128,-1,11
1144 970 m 1,24,-1
 1176 1270 l 1,25,-1
 168 1270 l 1,26,-1
 200 970 l 1,27,-1
 1144 970 l 1,24,-1
EndSplineSet
EndChar

StartChar: uniF158
Encoding: 61784 61784 90
Width: 1344
Flags: W
LayerCount: 2
Fore
SplineSet
0 280 m 1,0,-1
 826 1106 l 1,1,-1
 1106 826 l 1,2,-1
 280 0 l 1,3,-1
 0 0 l 1,4,-1
 0 280 l 1,0,-1
1323 1043 m 2,5,-1
 1186 906 l 1,6,-1
 906 1186 l 1,7,-1
 1043 1323 l 2,8,9
 1064 1344 1064 1344 1095.5 1344 c 128,-1,10
 1127 1344 1127 1344 1148 1323 c 2,11,-1
 1323 1148 l 2,12,13
 1344 1127 1344 1127 1344 1095.5 c 128,-1,14
 1344 1064 1344 1064 1323 1043 c 2,5,-1
EndSplineSet
EndChar

StartChar: uniF159
Encoding: 61785 61785 91
Width: 1494
Flags: W
LayerCount: 2
Fore
SplineSet
1491 970 m 2,0,-1
 1494 224 l 2,1,2
 1494 161 1494 161 1450.5 117.5 c 128,-1,3
 1407 74 1407 74 1344 74 c 2,4,-1
 150 74 l 2,5,6
 87 74 87 74 43.5 117.5 c 128,-1,7
 0 161 0 161 0 224 c 2,8,-1
 0 970 l 2,9,10
 0 1054 0 1054 70 1099 c 1,11,-1
 746 1494 l 1,12,-1
 1421 1099 l 1,13,14
 1491 1054 1491 1054 1491 970 c 2,0,-1
746 598 m 1,15,-1
 1365 984 l 1,16,-1
 746 1344 l 1,17,-1
 130 984 l 1,18,-1
 746 598 l 1,15,-1
EndSplineSet
EndChar

StartChar: uniF15A
Encoding: 61786 61786 92
Width: 1494
Flags: W
LayerCount: 2
Fore
SplineSet
1344 1270 m 2,0,1
 1407 1270 1407 1270 1450.5 1226.5 c 128,-1,2
 1494 1183 1494 1183 1494 1120 c 2,3,-1
 1494 224 l 2,4,5
 1494 161 1494 161 1450.5 117.5 c 128,-1,6
 1407 74 1407 74 1344 74 c 2,7,-1
 150 74 l 2,8,9
 87 74 87 74 43.5 117.5 c 128,-1,10
 0 161 0 161 0 224 c 2,11,-1
 0 1120 l 2,12,13
 0 1183 0 1183 44 1226.5 c 128,-1,14
 88 1270 88 1270 150 1270 c 2,15,-1
 1344 1270 l 2,0,1
1344 970 m 1,16,-1
 1344 1120 l 1,17,-1
 746 746 l 1,18,-1
 150 1120 l 1,19,-1
 150 970 l 1,20,-1
 746 598 l 1,21,-1
 1344 970 l 1,16,-1
EndSplineSet
EndChar

StartChar: uniF15B
Encoding: 61787 61787 93
Width: 1641
Flags: W
LayerCount: 2
Fore
SplineSet
822 1046 m 0,0,1
 752 1046 752 1046 686 1018 c 1,2,-1
 525 1180 l 1,3,4
 669 1232 669 1232 819 1232 c 0,5,6
 1095 1232 1095 1232 1319.5 1076 c 128,-1,7
 1544 920 1544 920 1642 672 c 1,8,9
 1562 462 1562 462 1386 318 c 1,10,-1
 1169 536 l 1,11,12
 1194 602 1194 602 1194 672 c 0,13,14
 1194 826 1194 826 1085 936 c 128,-1,15
 976 1046 976 1046 822 1046 c 0,0,1
74 1250 m 1,16,-1
 168 1344 l 1,17,-1
 1494 21 l 1,18,-1
 1400 -74 l 1,19,-1
 1180 144 l 1,20,-1
 1148 175 l 1,21,22
 990 112 990 112 822 112 c 0,23,24
 546 112 546 112 322 268 c 128,-1,25
 98 424 98 424 0 672 c 1,26,27
 88 896 88 896 280 1043 c 1,28,-1
 245 1078 l 1,29,-1
 74 1250 l 1,16,-1
486 836 m 1,30,31
 448 756 448 756 448 672 c 0,32,33
 448 518 448 518 558 408 c 128,-1,34
 668 298 668 298 822 298 c 0,35,36
 906 298 906 298 987 340 c 1,37,-1
 872 455 l 1,38,39
 844 448 844 448 822 448 c 0,40,41
 728 448 728 448 663 513 c 128,-1,42
 598 578 598 578 598 672 c 0,43,44
 598 696 598 696 602 721 c 1,45,-1
 486 836 l 1,30,31
808 896 m 1,46,-1
 822 896 l 2,47,48
 913 896 913 896 979.5 829.5 c 128,-1,49
 1046 763 1046 763 1046 672 c 1,50,-1
 1043 658 l 1,51,-1
 808 896 l 1,46,-1
EndSplineSet
EndChar

StartChar: uniF15C
Encoding: 61788 61788 94
Width: 1641
Flags: W
LayerCount: 2
Fore
SplineSet
822.5 1232 m 128,-1,1
 1099 1232 1099 1232 1321.5 1076 c 128,-1,2
 1544 920 1544 920 1642 672 c 1,3,4
 1544 424 1544 424 1321.5 268 c 128,-1,5
 1099 112 1099 112 822.5 112 c 128,-1,6
 546 112 546 112 322 268 c 128,-1,7
 98 424 98 424 0 672 c 1,8,9
 98 920 98 920 322 1076 c 128,-1,0
 546 1232 546 1232 822.5 1232 c 128,-1,1
822 298 m 128,-1,11
 976 298 976 298 1085 408 c 128,-1,12
 1194 518 1194 518 1194 672 c 128,-1,13
 1194 826 1194 826 1085 936 c 128,-1,14
 976 1046 976 1046 822 1046 c 128,-1,15
 668 1046 668 1046 558 936 c 128,-1,16
 448 826 448 826 448 672 c 128,-1,17
 448 518 448 518 558 408 c 128,-1,10
 668 298 668 298 822 298 c 128,-1,11
821 896 m 128,-1,19
 914 896 914 896 980 831 c 128,-1,20
 1046 766 1046 766 1046 672 c 128,-1,21
 1046 578 1046 578 980 513 c 128,-1,22
 914 448 914 448 821 448 c 128,-1,23
 728 448 728 448 663 513 c 128,-1,24
 598 578 598 578 598 672 c 128,-1,25
 598 766 598 766 663 831 c 128,-1,18
 728 896 728 896 821 896 c 128,-1,19
EndSplineSet
EndChar

StartChar: uniF15D
Encoding: 61789 61789 95
Width: 1344
Flags: W
LayerCount: 2
Fore
SplineSet
1323 1148 m 2,0,1
 1344 1127 1344 1127 1344 1095.5 c 128,-1,2
 1344 1064 1344 1064 1323 1043 c 2,3,-1
 1088 808 l 1,4,-1
 1232 665 l 1,5,-1
 1127 560 l 1,6,-1
 1022 665 l 1,7,-1
 354 0 l 1,8,-1
 0 0 l 1,9,-1
 0 354 l 1,10,-1
 665 1022 l 1,11,-1
 560 1127 l 1,12,-1
 665 1232 l 1,13,-1
 808 1088 l 1,14,-1
 1043 1323 l 2,15,16
 1064 1344 1064 1344 1095.5 1344 c 128,-1,17
 1127 1344 1127 1344 1148 1323 c 2,18,-1
 1323 1148 l 2,0,1
294 150 m 1,19,-1
 896 752 l 1,20,-1
 752 896 l 1,21,-1
 150 294 l 1,22,-1
 294 150 l 1,19,-1
EndSplineSet
EndChar

StartChar: uniF15E
Encoding: 61790 61790 96
Width: 1494
Flags: W
LayerCount: 2
Fore
SplineSet
1082 1344 m 0,0,1
 1257 1344 1257 1344 1375.5 1225 c 128,-1,2
 1494 1106 1494 1106 1494 934 c 0,3,4
 1494 850 1494 850 1459 764.5 c 128,-1,5
 1424 679 1424 679 1382 612.5 c 128,-1,6
 1340 546 1340 546 1240.5 441 c 128,-1,7
 1141 336 1141 336 1072.5 271 c 128,-1,8
 1004 206 1004 206 854 74 c 2,9,-1
 746 -24 l 1,10,-1
 637 70 l 1,11,12
 490 206 490 206 420 271 c 128,-1,13
 350 336 350 336 250 441 c 128,-1,14
 150 546 150 546 108 612.5 c 128,-1,15
 66 679 66 679 33 764.5 c 128,-1,16
 0 850 0 850 0 934 c 0,17,18
 0 1106 0 1106 119 1225 c 128,-1,19
 238 1344 238 1344 410 1344 c 0,20,21
 614 1344 614 1344 746 1186 c 1,22,23
 880 1344 880 1344 1082 1344 c 0,0,1
752 182 m 1,24,25
 924 336 924 336 1003 411 c 128,-1,26
 1082 486 1082 486 1176 591 c 128,-1,27
 1270 696 1270 696 1307 775 c 128,-1,28
 1344 854 1344 854 1344 934 c 0,29,30
 1344 1046 1344 1046 1269 1120 c 128,-1,31
 1194 1194 1194 1194 1082 1194 c 0,32,33
 998 1194 998 1194 922.5 1145 c 0,34,35
 848 1096 848 1096 816 1018 c 1,36,-1
 676 1018 l 1,37,38
 648 1095 648 1095 572.5 1144.5 c 0,39,40
 498 1194 498 1194 410 1194 c 0,41,42
 298 1194 298 1194 224 1120 c 128,-1,43
 150 1046 150 1046 150 934 c 0,44,45
 150 854 150 854 185 775 c 128,-1,46
 220 696 220 696 316.5 591 c 128,-1,47
 413 486 413 486 491.5 411 c 128,-1,48
 570 336 570 336 738 182 c 1,49,-1
 746 175 l 1,50,-1
 752 182 l 1,24,25
EndSplineSet
EndChar

StartChar: uniF15F
Encoding: 61791 61791 97
Width: 1494
Flags: W
LayerCount: 2
Fore
SplineSet
746 -24 m 1,0,-1
 637 74 l 2,1,2
 490 207 490 207 420 271.5 c 128,-1,3
 350 336 350 336 252 441 c 128,-1,4
 154 546 154 546 110 612.5 c 128,-1,5
 66 679 66 679 33 764.5 c 128,-1,6
 0 850 0 850 0 934 c 0,7,8
 0 1106 0 1106 119 1225 c 128,-1,9
 238 1344 238 1344 410 1344 c 0,10,11
 614 1344 614 1344 746 1186 c 1,12,13
 880 1344 880 1344 1082 1344 c 0,14,15
 1257 1344 1257 1344 1375.5 1225 c 128,-1,16
 1494 1106 1494 1106 1494 934 c 0,17,18
 1494 850 1494 850 1459 764.5 c 128,-1,19
 1424 679 1424 679 1382 612.5 c 128,-1,20
 1340 546 1340 546 1240.5 441 c 128,-1,21
 1141 336 1141 336 1072.5 271 c 128,-1,22
 1004 206 1004 206 854 70 c 1,23,-1
 746 -24 l 1,0,-1
EndSplineSet
EndChar

StartChar: uniF160
Encoding: 61792 61792 98
Width: 1344
Flags: W
LayerCount: 2
Fore
SplineSet
522 224 m 1,0,-1
 522 374 l 1,1,-1
 822 374 l 1,2,-1
 822 224 l 1,3,-1
 522 224 l 1,0,-1
0 1120 m 1,4,-1
 1344 1120 l 1,5,-1
 1344 970 l 1,6,-1
 0 970 l 1,7,-1
 0 1120 l 1,4,-1
224 598 m 1,8,-1
 224 746 l 1,9,-1
 1120 746 l 1,10,-1
 1120 598 l 1,11,-1
 224 598 l 1,8,-1
EndSplineSet
EndChar

StartChar: uniF161
Encoding: 61793 61793 99
Width: 1193
Flags: W
LayerCount: 2
Fore
SplineSet
710 1519 m 1,0,1
 934 1337 934 1337 1064 1078 c 0,2,3
 1194 820 1194 820 1194 522 c 0,4,5
 1194 277 1194 277 1019 101.5 c 128,-1,6
 844 -74 844 -74 597 -74 c 128,-1,7
 350 -74 350 -74 175 101 c 128,-1,8
 0 276 0 276 0 522 c 0,9,10
 0 900 0 900 242 1186 c 1,11,-1
 238 1158 l 1,12,13
 238 1042 238 1042 317 962 c 128,-1,14
 396 882 396 882 511 882 c 0,15,16
 623 882 623 882 693 962.5 c 0,17,18
 763 1042 763 1042 763 1158 c 0,19,20
 763 1232 763 1232 750.5 1321 c 128,-1,21
 738 1410 738 1410 724 1463 c 2,22,-1
 710 1519 l 1,0,1
574 150 m 0,23,24
 724 150 724 150 829 255 c 128,-1,25
 934 360 934 360 934 508 c 0,26,27
 934 666 934 666 889 808 c 1,28,29
 784 664 784 664 546 616 c 0,30,31
 444 595 444 595 390 533.5 c 128,-1,32
 336 472 336 472 336 385 c 0,33,34
 336 287 336 287 406 218.5 c 128,-1,35
 476 150 476 150 574 150 c 0,23,24
EndSplineSet
EndChar

StartChar: uniF162
Encoding: 61794 61794 100
Width: 1120
Flags: W
LayerCount: 2
Fore
SplineSet
704 1120 m 1,0,-1
 1120 1120 l 1,1,-1
 1120 374 l 1,2,-1
 598 374 l 1,3,-1
 567 522 l 1,4,-1
 150 522 l 1,5,-1
 150 0 l 1,6,-1
 0 0 l 1,7,-1
 0 1270 l 1,8,-1
 672 1270 l 1,9,-1
 704 1120 l 1,0,-1
EndSplineSet
EndChar

StartChar: uniF163
Encoding: 61795 61795 101
Width: 1641
Flags: W
LayerCount: 2
Fore
SplineSet
448 746 m 1,0,-1
 448 598 l 1,1,-1
 0 598 l 1,2,-1
 0 746 l 1,3,-1
 448 746 l 1,0,-1
609 987 m 1,4,-1
 504 882 l 1,5,-1
 346 1043 l 1,6,-1
 452 1148 l 1,7,-1
 609 987 l 1,4,-1
896 1494 m 1,8,-1
 896 1046 l 1,9,-1
 746 1046 l 1,10,-1
 746 1494 l 1,11,-1
 896 1494 l 1,8,-1
1295 1043 m 1,12,-1
 1138 882 l 1,13,-1
 1032 987 l 1,14,-1
 1190 1148 l 1,15,-1
 1295 1043 l 1,12,-1
1194 746 m 1,16,-1
 1642 746 l 1,17,-1
 1642 598 l 1,18,-1
 1194 598 l 1,19,-1
 1194 746 l 1,16,-1
821 896 m 128,-1,21
 914 896 914 896 980 831 c 128,-1,22
 1046 766 1046 766 1046 672 c 128,-1,23
 1046 578 1046 578 980 513 c 128,-1,24
 914 448 914 448 821 448 c 128,-1,25
 728 448 728 448 663 513 c 128,-1,26
 598 578 598 578 598 672 c 128,-1,27
 598 766 598 766 663 831 c 128,-1,20
 728 896 728 896 821 896 c 128,-1,21
1032 357 m 1,28,-1
 1138 462 l 1,29,-1
 1295 301 l 1,30,-1
 1190 196 l 1,31,-1
 1032 357 l 1,28,-1
346 301 m 1,32,-1
 504 462 l 1,33,-1
 609 357 l 1,34,-1
 452 196 l 1,35,-1
 346 301 l 1,32,-1
746 -150 m 1,36,-1
 746 298 l 1,37,-1
 896 298 l 1,38,-1
 896 -150 l 1,39,-1
 746 -150 l 1,36,-1
EndSplineSet
EndChar

StartChar: uniF164
Encoding: 61796 61796 102
Width: 1435
Flags: W
LayerCount: 2
Fore
SplineSet
0 1418 m 1,0,-1
 746 1418 l 1,1,-1
 448 746 l 1,2,-1
 746 746 l 1,3,-1
 224 -150 l 1,4,-1
 224 522 l 1,5,-1
 0 522 l 1,6,-1
 0 1418 l 1,0,-1
1194 1418 m 1,7,-1
 1435 746 l 1,8,-1
 1292 746 l 1,9,-1
 1239 896 l 1,10,-1
 1001 896 l 1,11,-1
 948 746 l 1,12,-1
 805 746 l 1,13,-1
 1046 1418 l 1,14,-1
 1194 1418 l 1,7,-1
1032 998 m 1,15,-1
 1208 998 l 1,16,-1
 1120 1270 l 1,17,-1
 1032 998 l 1,15,-1
EndSplineSet
EndChar

StartChar: uniF165
Encoding: 61797 61797 103
Width: 1270
Flags: W
LayerCount: 2
Fore
SplineSet
94 1344 m 1,0,-1
 1270 168 l 1,1,-1
 1176 74 l 1,2,-1
 864 385 l 1,3,-1
 598 -74 l 1,4,-1
 598 598 l 1,5,-1
 374 598 l 1,6,-1
 374 875 l 1,7,-1
 0 1250 l 1,8,-1
 94 1344 l 1,0,-1
1120 822 m 1,9,-1
 1004 623 l 1,10,-1
 374 1256 l 1,11,-1
 374 1418 l 1,12,-1
 1120 1418 l 1,13,-1
 822 822 l 1,14,-1
 1120 822 l 1,9,-1
EndSplineSet
EndChar

StartChar: uniF166
Encoding: 61798 61798 104
Width: 745
Flags: W
LayerCount: 2
Fore
SplineSet
0 1418 m 1,0,-1
 746 1418 l 1,1,-1
 448 822 l 1,2,-1
 746 822 l 1,3,-1
 224 -74 l 1,4,-1
 224 598 l 1,5,-1
 0 598 l 1,6,-1
 0 1418 l 1,0,-1
EndSplineSet
EndChar

StartChar: uniF167
Encoding: 61799 61799 105
Width: 1344
Flags: W
LayerCount: 2
Fore
SplineSet
896 0 m 1,0,-1
 896 150 l 1,1,-1
 1046 150 l 1,2,-1
 1046 0 l 1,3,-1
 896 0 l 1,0,-1
1194 896 m 1,4,-1
 1194 1046 l 1,5,-1
 1344 1046 l 1,6,-1
 1344 896 l 1,7,-1
 1194 896 l 1,4,-1
0 1194 m 2,8,9
 0 1257 0 1257 44 1300.5 c 128,-1,10
 88 1344 88 1344 150 1344 c 2,11,-1
 448 1344 l 1,12,-1
 448 1194 l 1,13,-1
 150 1194 l 1,14,-1
 150 150 l 1,15,-1
 448 150 l 1,16,-1
 448 0 l 1,17,-1
 150 0 l 2,18,19
 87 0 87 0 43.5 44 c 128,-1,20
 0 88 0 88 0 150 c 2,21,-1
 0 1194 l 2,8,9
1194 1344 m 1,22,23
 1257 1344 1257 1344 1300.5 1300 c 128,-1,24
 1344 1256 1344 1256 1344 1194 c 1,25,-1
 1194 1194 l 1,26,-1
 1194 1344 l 1,22,23
598 -150 m 1,27,-1
 598 1494 l 1,28,-1
 746 1494 l 1,29,-1
 746 -150 l 1,30,-1
 598 -150 l 1,27,-1
1194 298 m 1,31,-1
 1194 448 l 1,32,-1
 1344 448 l 1,33,-1
 1344 298 l 1,34,-1
 1194 298 l 1,31,-1
896 1194 m 1,35,-1
 896 1344 l 1,36,-1
 1046 1344 l 1,37,-1
 1046 1194 l 1,38,-1
 896 1194 l 1,35,-1
1194 598 m 1,39,-1
 1194 746 l 1,40,-1
 1344 746 l 1,41,-1
 1344 598 l 1,42,-1
 1194 598 l 1,39,-1
1194 0 m 1,43,-1
 1194 150 l 1,44,-1
 1344 150 l 1,45,46
 1344 87 1344 87 1300.5 43.5 c 128,-1,47
 1257 0 1257 0 1194 0 c 1,43,-1
EndSplineSet
EndChar

StartChar: uniF168
Encoding: 61800 61800 106
Width: 1344
Flags: W
LayerCount: 2
Fore
SplineSet
672 -74 m 1,0,1
 672 202 672 202 868 400 c 128,-1,2
 1064 598 1064 598 1344 598 c 1,3,4
 1344 318 1344 318 1148 122 c 128,-1,5
 952 -74 952 -74 672 -74 c 1,0,1
192 802 m 0,6,7
 192 922 192 922 301 970 c 1,8,9
 192 1022 192 1022 192 1138 c 0,10,11
 192 1215 192 1215 248 1270.5 c 128,-1,12
 304 1326 304 1326 382 1326 c 0,13,14
 442 1326 442 1326 486 1292 c 1,15,-1
 486 1306 l 2,16,17
 486 1383 486 1383 540.5 1438.5 c 128,-1,18
 595 1494 595 1494 672 1494 c 128,-1,19
 749 1494 749 1494 803.5 1438 c 128,-1,20
 858 1382 858 1382 858 1306 c 2,21,-1
 858 1292 l 1,22,23
 906 1326 906 1326 962 1326 c 0,24,25
 1039 1326 1039 1326 1095.5 1270 c 128,-1,26
 1152 1214 1152 1214 1152 1138 c 0,27,28
 1152 1022 1152 1022 1043 970 c 1,29,30
 1152 922 1152 922 1152 802 c 0,31,32
 1152 725 1152 725 1096 670.5 c 128,-1,33
 1040 616 1040 616 962 616 c 0,34,35
 902 616 902 616 858 648 c 1,36,-1
 858 634 l 2,37,38
 858 557 858 557 803.5 502.5 c 128,-1,39
 749 448 749 448 672 448 c 128,-1,40
 595 448 595 448 540.5 502 c 128,-1,41
 486 556 486 556 486 634 c 2,42,-1
 486 648 l 1,43,44
 438 616 438 616 382 616 c 0,45,46
 305 616 305 616 248.5 670.5 c 128,-1,47
 192 725 192 725 192 802 c 0,6,7
672 1158 m 128,-1,49
 595 1158 595 1158 540.5 1102 c 128,-1,50
 486 1046 486 1046 486 969 c 128,-1,51
 486 892 486 892 540.5 838 c 128,-1,52
 595 784 595 784 672 784 c 128,-1,53
 749 784 749 784 803.5 838 c 128,-1,54
 858 892 858 892 858 969 c 128,-1,55
 858 1046 858 1046 803.5 1102 c 128,-1,48
 749 1158 749 1158 672 1158 c 128,-1,49
0 598 m 1,56,57
 280 598 280 598 476 400.5 c 0,58,59
 672 202 672 202 672 -74 c 1,60,61
 392 -74 392 -74 196 122 c 128,-1,62
 0 318 0 318 0 598 c 1,56,57
EndSplineSet
EndChar

StartChar: uniF169
Encoding: 61801 61801 107
Width: 1449
Flags: W
LayerCount: 2
Fore
SplineSet
1225 640 m 0,0,1
 1330 580 1330 580 1389.5 475.5 c 0,2,3
 1449 372 1449 372 1449 256 c 1,4,5
 1347 196 1347 196 1228.5 194 c 128,-1,6
 1110 192 1110 192 1001 256 c 0,7,8
 970 274 970 274 942 294 c 1,9,10
 948 259 948 259 948 224 c 0,11,12
 948 102 948 102 887 -1.5 c 0,13,14
 826 -104 826 -104 724 -164 c 1,15,16
 622 -104 622 -104 561 -1 c 128,-1,17
 500 102 500 102 500 224 c 0,18,19
 500 259 500 259 508 294 c 1,20,21
 476 270 476 270 448 256 c 0,22,23
 340 196 340 196 221 196 c 128,-1,24
 102 196 102 196 0 256 c 1,25,26
 0 375 0 375 59.5 478 c 128,-1,27
 119 581 119 581 224 644 c 0,28,29
 252 658 252 658 287 672 c 1,30,31
 252 686 252 686 224 704 c 0,32,33
 119 764 119 764 59.5 868.5 c 0,34,35
 0 972 0 972 0 1088 c 1,36,37
 102 1148 102 1148 221 1150 c 128,-1,38
 340 1152 340 1152 448 1088 c 0,39,40
 476 1074 476 1074 508 1050 c 1,41,42
 500 1085 500 1085 500 1120 c 0,43,44
 500 1242 500 1242 561.5 1345.5 c 0,45,46
 622 1448 622 1448 724 1508 c 1,47,48
 826 1448 826 1448 887 1345 c 128,-1,49
 948 1242 948 1242 948 1120 c 0,50,51
 948 1085 948 1085 942 1050 c 1,52,53
 974 1074 974 1074 1001 1088 c 0,54,55
 1109 1151 1109 1151 1228.5 1149.5 c 128,-1,56
 1348 1148 1348 1148 1449 1088 c 1,57,58
 1449 972 1449 972 1389.5 867.5 c 0,59,60
 1330 764 1330 764 1225 704 c 0,61,62
 1197 686 1197 686 1162 672 c 1,63,64
 1197 658 1197 658 1225 640 c 0,0,1
724.5 374 m 128,-1,66
 847 374 847 374 934.5 462 c 128,-1,67
 1022 550 1022 550 1022 672 c 128,-1,68
 1022 794 1022 794 934.5 882 c 128,-1,69
 847 970 847 970 724.5 970 c 128,-1,70
 602 970 602 970 514.5 882 c 128,-1,71
 427 794 427 794 427 672 c 128,-1,72
 427 550 427 550 514.5 462 c 128,-1,65
 602 374 602 374 724.5 374 c 128,-1,66
EndSplineSet
EndChar

StartChar: uniF16A
Encoding: 61802 61802 108
Width: 1494
Flags: W
LayerCount: 2
Fore
SplineSet
592 560 m 1,0,-1
 746 973 l 1,1,-1
 900 560 l 1,2,-1
 592 560 l 1,0,-1
1344 1418 m 2,3,4
 1407 1418 1407 1418 1450.5 1374 c 128,-1,5
 1494 1330 1494 1330 1494 1270 c 2,6,-1
 1494 74 l 2,7,8
 1494 14 1494 14 1450.5 -30 c 128,-1,9
 1407 -74 1407 -74 1344 -74 c 2,10,-1
 150 -74 l 2,11,12
 87 -74 87 -74 43.5 -30 c 128,-1,13
 0 14 0 14 0 74 c 2,14,-1
 0 1270 l 2,15,16
 0 1330 0 1330 44 1374 c 128,-1,17
 88 1418 88 1418 150 1418 c 2,18,-1
 1344 1418 l 2,3,4
1043 186 m 1,19,-1
 1197 186 l 1,20,-1
 816 1158 l 1,21,-1
 676 1158 l 1,22,-1
 294 186 l 1,23,-1
 452 186 l 1,24,-1
 536 410 l 1,25,-1
 956 410 l 1,26,-1
 1043 186 l 1,19,-1
EndSplineSet
EndChar

StartChar: uniF16B
Encoding: 61803 61803 109
Width: 1641
Flags: W
LayerCount: 2
Fore
SplineSet
822 1158 m 1,0,-1
 970 970 l 1,1,-1
 672 970 l 1,2,-1
 822 1158 l 1,0,-1
1270 822 m 1,3,-1
 1456 672 l 1,4,-1
 1270 522 l 1,5,-1
 1270 822 l 1,3,-1
374 822 m 1,6,-1
 374 522 l 1,7,-1
 186 672 l 1,8,-1
 374 822 l 1,6,-1
970 374 m 1,9,-1
 822 186 l 1,10,-1
 672 374 l 1,11,-1
 970 374 l 1,9,-1
1494 1344 m 2,12,13
 1554 1344 1554 1344 1598 1300 c 128,-1,14
 1642 1256 1642 1256 1642 1194 c 2,15,-1
 1642 150 l 2,16,17
 1642 87 1642 87 1598 43.5 c 128,-1,18
 1554 0 1554 0 1494 0 c 2,19,-1
 150 0 l 2,20,21
 87 0 87 0 43.5 44 c 128,-1,22
 0 88 0 88 0 150 c 2,23,-1
 0 1194 l 2,24,25
 0 1257 0 1257 44 1300.5 c 128,-1,26
 88 1344 88 1344 150 1344 c 2,27,-1
 1494 1344 l 2,12,13
1494 147 m 1,28,-1
 1494 1197 l 1,29,-1
 150 1197 l 1,30,-1
 150 147 l 1,31,-1
 1494 147 l 1,28,-1
EndSplineSet
EndChar

StartChar: uniF16C
Encoding: 61804 61804 110
Width: 1046
Flags: W
LayerCount: 2
Fore
SplineSet
0 374 m 1,0,-1
 0 522 l 1,1,-1
 374 522 l 1,2,-1
 374 150 l 1,3,-1
 224 150 l 1,4,-1
 224 374 l 1,5,-1
 0 374 l 1,0,-1
224 970 m 1,6,-1
 224 1194 l 1,7,-1
 374 1194 l 1,8,-1
 374 822 l 1,9,-1
 0 822 l 1,10,-1
 0 970 l 1,11,-1
 224 970 l 1,6,-1
672 150 m 1,12,-1
 672 522 l 1,13,-1
 1046 522 l 1,14,-1
 1046 374 l 1,15,-1
 822 374 l 1,16,-1
 822 150 l 1,17,-1
 672 150 l 1,12,-1
822 970 m 1,18,-1
 1046 970 l 1,19,-1
 1046 822 l 1,20,-1
 672 822 l 1,21,-1
 672 1194 l 1,22,-1
 822 1194 l 1,23,-1
 822 970 l 1,18,-1
EndSplineSet
EndChar

StartChar: uniF16D
Encoding: 61805 61805 111
Width: 1046
Flags: W
LayerCount: 2
Fore
SplineSet
150 522 m 1,0,-1
 150 298 l 1,1,-1
 374 298 l 1,2,-1
 374 150 l 1,3,-1
 0 150 l 1,4,-1
 0 522 l 1,5,-1
 150 522 l 1,0,-1
0 822 m 1,6,-1
 0 1194 l 1,7,-1
 374 1194 l 1,8,-1
 374 1046 l 1,9,-1
 150 1046 l 1,10,-1
 150 822 l 1,11,-1
 0 822 l 1,6,-1
896 298 m 1,12,-1
 896 522 l 1,13,-1
 1046 522 l 1,14,-1
 1046 150 l 1,15,-1
 672 150 l 1,16,-1
 672 298 l 1,17,-1
 896 298 l 1,12,-1
672 1194 m 1,18,-1
 1046 1194 l 1,19,-1
 1046 822 l 1,20,-1
 896 822 l 1,21,-1
 896 1046 l 1,22,-1
 672 1046 l 1,23,-1
 672 1194 l 1,18,-1
EndSplineSet
EndChar

StartChar: uniF16E
Encoding: 61806 61806 112
Width: 896
Flags: W
LayerCount: 2
Fore
SplineSet
896 1270 m 1,0,-1
 896 1046 l 1,1,-1
 374 1046 l 1,2,-1
 746 672 l 1,3,-1
 374 298 l 1,4,-1
 896 298 l 1,5,-1
 896 74 l 1,6,-1
 0 74 l 1,7,-1
 0 224 l 1,8,-1
 486 672 l 1,9,-1
 0 1120 l 1,10,-1
 0 1270 l 1,11,-1
 896 1270 l 1,0,-1
EndSplineSet
EndChar

StartChar: uniF16F
Encoding: 61807 61807 113
Width: 1232
Flags: W
LayerCount: 2
Fore
SplineSet
1176 1029 m 1,0,1
 1232 973 1232 973 1232 896 c 2,2,-1
 1232 186 l 2,3,4
 1232 109 1232 109 1178 54.5 c 128,-1,5
 1124 0 1124 0 1047 0 c 128,-1,6
 970 0 970 0 914 54 c 128,-1,7
 858 108 858 108 858 186 c 2,8,-1
 858 560 l 1,9,-1
 746 560 l 1,10,-1
 746 0 l 1,11,-1
 0 0 l 1,12,-1
 0 1194 l 2,13,14
 0 1257 0 1257 44 1300.5 c 128,-1,15
 88 1344 88 1344 150 1344 c 2,16,-1
 598 1344 l 2,17,18
 658 1344 658 1344 702 1300 c 128,-1,19
 746 1256 746 1256 746 1194 c 2,20,-1
 746 672 l 1,21,-1
 822 672 l 2,22,23
 882 672 882 672 926 628 c 128,-1,24
 970 584 970 584 970 522 c 2,25,-1
 970 186 l 2,26,27
 970 158 970 158 992.5 135 c 128,-1,28
 1015 112 1015 112 1044.5 112 c 128,-1,29
 1074 112 1074 112 1097 135 c 128,-1,30
 1120 158 1120 158 1120 186 c 2,31,-1
 1120 724 l 1,32,33
 1082 710 1082 710 1046 710 c 0,34,35
 969 710 969 710 913.5 764.5 c 128,-1,36
 858 819 858 819 858 896 c 0,37,38
 858 956 858 956 891 1003 c 128,-1,39
 924 1050 924 1050 980 1071 c 1,40,-1
 822 1228 l 1,41,-1
 900 1306 l 1,42,-1
 1180 1029 l 1,43,-1
 1176 1029 l 1,0,1
598 822 m 1,44,-1
 598 1194 l 1,45,-1
 150 1194 l 1,46,-1
 150 822 l 1,47,-1
 598 822 l 1,44,-1
1044.5 822 m 128,-1,49
 1074 822 1074 822 1097 843 c 128,-1,50
 1120 864 1120 864 1120 896 c 128,-1,51
 1120 928 1120 928 1097 949 c 128,-1,52
 1074 970 1074 970 1044.5 970 c 128,-1,53
 1015 970 1015 970 992.5 949 c 128,-1,54
 970 928 970 928 970 896 c 128,-1,55
 970 864 970 864 992.5 843 c 128,-1,48
 1015 822 1015 822 1044.5 822 c 128,-1,49
EndSplineSet
EndChar

StartChar: uniF170
Encoding: 61808 61808 114
Width: 1354
Flags: W
LayerCount: 2
Fore
SplineSet
130 1054 m 1,0,-1
 0 1180 l 1,1,2
 18 1202 18 1202 66 1250 c 0,3,4
 158 1344 158 1344 270 1344 c 0,5,6
 333 1344 333 1344 394 1291.5 c 0,7,8
 455 1238 455 1238 455 1130 c 0,9,10
 455 1060 455 1060 434 1011 c 0,11,12
 412 962 412 962 360 886 c 0,13,14
 258 736 258 736 220 623 c 1,15,16
 202 560 202 560 211 520 c 128,-1,17
 220 480 220 480 248 480 c 0,18,19
 280 480 280 480 332 542 c 1,20,21
 388 602 388 602 500 746 c 0,22,23
 563 823 563 823 661.5 889.5 c 128,-1,24
 760 956 760 956 872 956 c 0,25,26
 1019 956 1019 956 1090.5 859.5 c 128,-1,27
 1162 763 1162 763 1172 644 c 1,28,-1
 1354 644 l 1,29,-1
 1354 458 l 1,30,-1
 1172 458 l 1,31,32
 1151 216 1151 216 1044.5 108 c 128,-1,33
 938 0 938 0 822 0 c 0,34,35
 724 0 724 0 652.5 68 c 128,-1,36
 581 136 581 136 581 231 c 0,37,38
 581 347 581 347 686 474.5 c 0,39,40
 792 602 792 602 984 634 c 0,41,42
 984 638 984 638 984 644 c 0,43,44
 980 672 980 672 975 688 c 128,-1,45
 970 704 970 704 957.5 725 c 128,-1,46
 945 746 945 746 918.5 756 c 128,-1,47
 892 766 892 766 854 766 c 0,48,49
 791 766 791 766 717.5 696 c 128,-1,50
 644 626 644 626 550 511 c 0,51,52
 494 445 494 445 467.5 413.5 c 128,-1,53
 441 382 441 382 399 348.5 c 0,54,55
 356 314 356 314 318 304 c 0,56,57
 212 269 212 269 122 336 c 0,58,59
 20 413 20 413 21 560 c 0,60,61
 21 609 21 609 42 673.5 c 128,-1,62
 63 738 63 738 94.5 798 c 128,-1,63
 126 858 126 858 152 903 c 128,-1,64
 178 948 178 948 206 988.5 c 0,65,66
 234 1028 234 1028 234 1032 c 0,67,68
 297 1130 297 1130 259 1144 c 0,69,70
 232 1156 232 1156 130 1054 c 1,0,-1
826 182 m 0,71,72
 875 182 875 182 922.5 245 c 128,-1,73
 970 308 970 308 984 444 c 1,74,75
 879 416 879 416 824.5 350 c 128,-1,76
 770 284 770 284 770 238 c 0,77,78
 770 214 770 214 787.5 198 c 128,-1,79
 805 182 805 182 826 182 c 0,71,72
EndSplineSet
EndChar

StartChar: uniF171
Encoding: 61809 61809 115
Width: 1494
Flags: W
LayerCount: 2
Fore
SplineSet
747.5 1418 m 128,-1,1
 1057 1418 1057 1418 1275.5 1199 c 128,-1,2
 1494 980 1494 980 1494 672 c 128,-1,3
 1494 364 1494 364 1275.5 145 c 128,-1,4
 1057 -74 1057 -74 747.5 -74 c 128,-1,5
 438 -74 438 -74 219 145 c 128,-1,6
 0 364 0 364 0 672 c 128,-1,7
 0 980 0 980 219 1199 c 128,-1,0
 438 1418 438 1418 747.5 1418 c 128,-1,1
1264 970 m 1,8,9
 1152 1166 1152 1166 942 1236 c 1,10,11
 1008 1114 1008 1114 1043 970 c 1,12,-1
 1264 970 l 1,8,9
746 1267 m 1,13,14
 652 1132 652 1132 606 970 c 1,15,-1
 889 970 l 1,16,17
 840 1132 840 1132 746 1267 c 1,13,14
168 522 m 1,18,-1
 420 522 l 1,19,20
 410 610 410 610 410 672.5 c 0,21,22
 410 734 410 734 420 822 c 1,23,-1
 168 822 l 1,24,25
 150 742 150 742 150 672 c 128,-1,26
 150 602 150 602 168 522 c 1,18,-1
231 374 m 1,27,28
 343 178 343 178 553 108 c 1,29,30
 488 230 488 230 452 374 c 1,31,-1
 231 374 l 1,27,28
452 970 m 1,32,33
 487 1114 487 1114 553 1236 c 1,34,35
 343 1166 343 1166 231 970 c 1,36,-1
 452 970 l 1,32,33
746 77 m 1,37,38
 840 212 840 212 889 374 c 1,39,-1
 606 374 l 1,40,41
 652 212 652 212 746 77 c 1,37,38
920 522 m 1,42,43
 934 610 934 610 934 672 c 256,44,45
 934 734 934 734 920 822 c 1,46,-1
 570 822 l 1,47,48
 560 734 560 734 560 672 c 256,49,50
 560 610 560 610 570 522 c 1,51,-1
 920 522 l 1,42,43
942 108 m 1,52,53
 1152 178 1152 178 1264 374 c 1,54,-1
 1043 374 l 1,55,56
 1008 230 1008 230 942 108 c 1,52,53
1071 522 m 1,57,-1
 1323 522 l 1,58,59
 1344 602 1344 602 1344 672 c 128,-1,60
 1344 742 1344 742 1323 822 c 1,61,-1
 1071 822 l 1,62,63
 1081 734 1081 734 1081 672 c 128,-1,64
 1081 610 1081 610 1071 522 c 1,57,-1
EndSplineSet
EndChar

StartChar: uniF172
Encoding: 61810 61810 116
Width: 1641
Flags: W
LayerCount: 2
Fore
SplineSet
1568 1270 m 1,0,1
 1600 1270 1600 1270 1621 1247.5 c 0,2,3
 1642 1226 1642 1226 1642 1194 c 2,4,-1
 1642 896 l 2,5,6
 1642 864 1642 864 1621 843 c 128,-1,7
 1600 822 1600 822 1568 822 c 2,8,-1
 1194 822 l 2,9,10
 1166 822 1166 822 1143 843 c 128,-1,11
 1120 864 1120 864 1120 896 c 2,12,-1
 1120 1194 l 2,13,14
 1120 1226 1120 1226 1143 1248 c 128,-1,15
 1166 1270 1166 1270 1194 1270 c 1,16,-1
 1194 1306 l 2,17,18
 1194 1383 1194 1383 1250 1438.5 c 128,-1,19
 1306 1494 1306 1494 1383 1494 c 128,-1,20
 1460 1494 1460 1494 1514 1438 c 128,-1,21
 1568 1382 1568 1382 1568 1306 c 2,22,-1
 1568 1270 l 1,0,1
1508 1270 m 1,23,-1
 1508 1306 l 2,24,25
 1508 1358 1508 1358 1471.5 1396.5 c 128,-1,26
 1435 1435 1435 1435 1382.5 1435 c 128,-1,27
 1330 1435 1330 1435 1291.5 1396.5 c 128,-1,28
 1253 1358 1253 1358 1253 1306 c 2,29,-1
 1253 1270 l 1,30,-1
 1508 1270 l 1,23,-1
1337 672 m 1,31,-1
 1491 672 l 1,32,33
 1494 630 1494 630 1494 598 c 0,34,35
 1494 286 1494 286 1275.5 68 c 128,-1,36
 1057 -150 1057 -150 747.5 -150 c 128,-1,37
 438 -150 438 -150 219 68.5 c 128,-1,38
 0 287 0 287 0 596.5 c 128,-1,39
 0 906 0 906 219 1125 c 128,-1,40
 438 1344 438 1344 746 1344 c 0,41,42
 862 1344 862 1344 970 1309 c 1,43,-1
 970 1120 l 2,44,45
 970 1057 970 1057 926 1013.5 c 128,-1,46
 882 970 882 970 822 970 c 2,47,-1
 672 970 l 1,48,-1
 672 822 l 2,49,50
 672 790 672 790 649 768 c 128,-1,51
 626 746 626 746 598 746 c 2,52,-1
 448 746 l 1,53,-1
 448 598 l 1,54,-1
 896 598 l 2,55,56
 928 598 928 598 949 575.5 c 0,57,58
 970 554 970 554 970 522 c 2,59,-1
 970 298 l 1,60,-1
 1046 298 l 2,61,62
 1095 298 1095 298 1133.5 270 c 128,-1,63
 1172 242 1172 242 1186 196 c 1,64,65
 1344 368 1344 368 1344 598 c 0,66,67
 1344 622 1344 622 1337 672 c 1,31,-1
672 4 m 1,68,-1
 672 150 l 1,69,70
 609 150 609 150 565.5 194 c 128,-1,71
 522 238 522 238 522 298 c 2,72,-1
 522 374 l 1,73,-1
 164 732 l 1,74,75
 150 662 150 662 150 598 c 0,76,77
 150 370 150 370 299 201 c 128,-1,78
 448 32 448 32 672 4 c 1,68,-1
EndSplineSet
EndChar

StartChar: uniF173
Encoding: 61811 61811 117
Width: 1494
Flags: W
LayerCount: 2
Fore
SplineSet
747.5 1418 m 128,-1,1
 1057 1418 1057 1418 1275.5 1199 c 128,-1,2
 1494 980 1494 980 1494 672 c 128,-1,3
 1494 364 1494 364 1275.5 145 c 128,-1,4
 1057 -74 1057 -74 747.5 -74 c 128,-1,5
 438 -74 438 -74 219 145 c 128,-1,6
 0 364 0 364 0 672 c 128,-1,7
 0 980 0 980 219 1199 c 128,-1,0
 438 1418 438 1418 747.5 1418 c 128,-1,1
672 80 m 1,8,-1
 672 224 l 1,9,10
 609 224 609 224 565.5 268 c 128,-1,11
 522 312 522 312 522 374 c 2,12,-1
 522 448 l 1,13,-1
 164 805 l 1,14,15
 150 735 150 735 150 672 c 0,16,17
 150 444 150 444 299 276 c 128,-1,18
 448 108 448 108 672 80 c 1,8,-1
1186 270 m 1,19,20
 1344 442 1344 442 1344 672 c 0,21,22
 1344 858 1344 858 1241 1008 c 128,-1,23
 1138 1158 1138 1158 970 1225 c 1,24,-1
 970 1194 l 2,25,26
 970 1134 970 1134 926 1090 c 128,-1,27
 882 1046 882 1046 822 1046 c 2,28,-1
 672 1046 l 1,29,-1
 672 896 l 2,30,31
 672 864 672 864 649 843 c 128,-1,32
 626 822 626 822 598 822 c 2,33,-1
 448 822 l 1,34,-1
 448 672 l 1,35,-1
 896 672 l 2,36,37
 928 672 928 672 949 649 c 128,-1,38
 970 626 970 626 970 598 c 2,39,-1
 970 374 l 1,40,-1
 1046 374 l 2,41,42
 1095 374 1095 374 1133.5 345 c 128,-1,43
 1172 316 1172 316 1186 270 c 1,19,20
EndSplineSet
EndChar

StartChar: uniF174
Encoding: 61812 61812 118
Width: 1641
Flags: W
LayerCount: 2
Fore
SplineSet
298 584 m 1,0,-1
 822 298 l 1,1,-1
 1344 584 l 1,2,-1
 1344 284 l 1,3,-1
 822 0 l 1,4,-1
 298 284 l 1,5,-1
 298 584 l 1,0,-1
822 1344 m 1,6,-1
 1642 896 l 1,7,-1
 1642 298 l 1,8,-1
 1494 298 l 1,9,-1
 1494 816 l 1,10,-1
 822 448 l 1,11,-1
 0 896 l 1,12,-1
 822 1344 l 1,6,-1
EndSplineSet
EndChar

StartChar: uniF175
Encoding: 61813 61813 119
Width: 1494
Flags: W
LayerCount: 2
Fore
SplineSet
598 74 m 1,0,-1
 224 74 l 1,1,-1
 224 672 l 1,2,-1
 0 672 l 1,3,-1
 746 1344 l 1,4,-1
 1494 672 l 1,5,-1
 1270 672 l 1,6,-1
 1270 74 l 1,7,-1
 896 74 l 1,8,-1
 896 522 l 1,9,-1
 598 522 l 1,10,-1
 598 74 l 1,0,-1
EndSplineSet
EndChar

StartChar: uniF176
Encoding: 61814 61814 120
Width: 1344
Flags: W
LayerCount: 2
Fore
SplineSet
1344 1194 m 1,0,-1
 1344 1046 l 1,1,-1
 1194 598 l 1,2,-1
 1344 150 l 1,3,-1
 1344 0 l 1,4,-1
 0 0 l 1,5,-1
 0 150 l 1,6,-1
 150 598 l 1,7,-1
 0 1046 l 1,8,-1
 0 1194 l 1,9,-1
 948 1194 l 1,10,-1
 1057 1494 l 1,11,-1
 1232 1428 l 1,12,-1
 1148 1194 l 1,13,-1
 1344 1194 l 1,0,-1
970 522 m 1,14,-1
 970 672 l 1,15,-1
 746 672 l 1,16,-1
 746 896 l 1,17,-1
 598 896 l 1,18,-1
 598 672 l 1,19,-1
 374 672 l 1,20,-1
 374 522 l 1,21,-1
 598 522 l 1,22,-1
 598 298 l 1,23,-1
 746 298 l 1,24,-1
 746 522 l 1,25,-1
 970 522 l 1,14,-1
EndSplineSet
EndChar

StartChar: uniF177
Encoding: 61815 61815 121
Width: 1344
Flags: W
LayerCount: 2
Fore
SplineSet
1194 1344 m 2,0,1
 1257 1344 1257 1344 1300.5 1300 c 128,-1,2
 1344 1256 1344 1256 1344 1194 c 2,3,-1
 1344 150 l 2,4,5
 1344 87 1344 87 1300 43.5 c 128,-1,6
 1256 0 1256 0 1194 0 c 2,7,-1
 150 0 l 2,8,9
 87 0 87 0 43.5 44 c 128,-1,10
 0 88 0 88 0 150 c 2,11,-1
 0 1194 l 2,12,13
 0 1257 0 1257 44 1300.5 c 128,-1,14
 88 1344 88 1344 150 1344 c 2,15,-1
 1194 1344 l 2,0,1
1120 522 m 1,16,-1
 1120 822 l 1,17,-1
 822 822 l 1,18,-1
 822 1120 l 1,19,-1
 522 1120 l 1,20,-1
 522 822 l 1,21,-1
 224 822 l 1,22,-1
 224 522 l 1,23,-1
 522 522 l 1,24,-1
 522 224 l 1,25,-1
 822 224 l 1,26,-1
 822 522 l 1,27,-1
 1120 522 l 1,16,-1
EndSplineSet
EndChar

StartChar: uniF178
Encoding: 61816 61816 122
Width: 1641
Flags: W
LayerCount: 2
Fore
SplineSet
448 598 m 128,-1,1
 354 598 354 598 289 663 c 128,-1,2
 224 728 224 728 224 821 c 128,-1,3
 224 914 224 914 289 980 c 128,-1,4
 354 1046 354 1046 448 1046 c 128,-1,5
 542 1046 542 1046 607 980 c 128,-1,6
 672 914 672 914 672 821 c 128,-1,7
 672 728 672 728 607 663 c 128,-1,0
 542 598 542 598 448 598 c 128,-1,1
1344 1046 m 2,8,9
 1466 1046 1466 1046 1554 959 c 128,-1,10
 1642 872 1642 872 1642 746 c 2,11,-1
 1642 74 l 1,12,-1
 1494 74 l 1,13,-1
 1494 298 l 1,14,-1
 150 298 l 1,15,-1
 150 74 l 1,16,-1
 0 74 l 1,17,-1
 0 1194 l 1,18,-1
 150 1194 l 1,19,-1
 150 522 l 1,20,-1
 746 522 l 1,21,-1
 746 1046 l 1,22,-1
 1344 1046 l 2,8,9
EndSplineSet
EndChar

StartChar: uniF179
Encoding: 61817 61817 123
Width: 896
Flags: W
LayerCount: 2
Fore
SplineSet
0 1418 m 1,0,-1
 896 1418 l 1,1,-1
 896 970 l 1,2,-1
 896 970 l 1,3,-1
 598 672 l 1,4,-1
 896 374 l 1,5,-1
 896 371 l 1,6,-1
 896 -74 l 1,7,-1
 0 -74 l 1,8,-1
 0 371 l 1,9,-1
 0 374 l 1,10,-1
 298 672 l 1,11,-1
 0 970 l 1,12,-1
 0 970 l 1,13,-1
 0 1418 l 1,0,-1
746 336 m 1,14,-1
 448 634 l 1,15,-1
 150 336 l 1,16,-1
 746 336 l 1,14,-1
150 1008 m 1,17,-1
 746 1008 l 1,18,-1
 746 1270 l 1,19,-1
 150 1270 l 1,20,-1
 150 1008 l 1,17,-1
EndSplineSet
EndChar

StartChar: uniF17A
Encoding: 61818 61818 124
Width: 896
Flags: W
LayerCount: 2
Fore
SplineSet
0 1418 m 1,0,-1
 896 1418 l 1,1,-1
 896 970 l 1,2,-1
 896 970 l 1,3,-1
 598 672 l 1,4,-1
 896 374 l 1,5,-1
 896 371 l 1,6,-1
 896 -74 l 1,7,-1
 0 -74 l 1,8,-1
 0 371 l 1,9,-1
 0 374 l 1,10,-1
 298 672 l 1,11,-1
 0 970 l 1,12,-1
 0 970 l 1,13,-1
 0 1418 l 1,0,-1
746 336 m 1,14,-1
 448 634 l 1,15,-1
 150 336 l 1,16,-1
 150 74 l 1,17,-1
 746 74 l 1,18,-1
 746 336 l 1,14,-1
448 710 m 1,19,-1
 746 1008 l 1,20,-1
 746 1270 l 1,21,-1
 150 1270 l 1,22,-1
 150 1008 l 1,23,-1
 448 710 l 1,19,-1
EndSplineSet
EndChar

StartChar: uniF17B
Encoding: 61819 61819 125
Width: 896
Flags: W
LayerCount: 2
Fore
SplineSet
0 1418 m 1,0,-1
 896 1418 l 1,1,-1
 896 970 l 1,2,-1
 896 970 l 1,3,-1
 598 672 l 1,4,-1
 896 374 l 1,5,-1
 896 371 l 1,6,-1
 896 -74 l 1,7,-1
 0 -74 l 1,8,-1
 0 371 l 1,9,-1
 0 374 l 1,10,-1
 298 672 l 1,11,-1
 0 970 l 1,12,-1
 0 970 l 1,13,-1
 0 1418 l 1,0,-1
EndSplineSet
EndChar

StartChar: uniF17C
Encoding: 61820 61820 126
Width: 1641
Flags: W
LayerCount: 2
Fore
SplineSet
262 746 m 1,0,-1
 262 896 l 1,1,-1
 374 896 l 1,2,-1
 374 448 l 1,3,-1
 262 448 l 1,4,-1
 262 634 l 1,5,-1
 112 634 l 1,6,-1
 112 448 l 1,7,-1
 0 448 l 1,8,-1
 0 896 l 1,9,-1
 112 896 l 1,10,-1
 112 746 l 1,11,-1
 262 746 l 1,0,-1
448 784 m 1,12,-1
 448 896 l 1,13,-1
 784 896 l 1,14,-1
 784 784 l 1,15,-1
 672 784 l 1,16,-1
 672 448 l 1,17,-1
 560 448 l 1,18,-1
 560 784 l 1,19,-1
 448 784 l 1,12,-1
858 784 m 1,20,-1
 858 896 l 1,21,-1
 1194 896 l 1,22,-1
 1194 784 l 1,23,-1
 1082 784 l 1,24,-1
 1082 448 l 1,25,-1
 970 448 l 1,26,-1
 970 784 l 1,27,-1
 858 784 l 1,20,-1
1530 896 m 2,28,29
 1576 896 1576 896 1609 863 c 128,-1,30
 1642 830 1642 830 1642 784 c 2,31,-1
 1642 710 l 2,32,33
 1642 664 1642 664 1608.5 631 c 0,34,35
 1576 598 1576 598 1530 598 c 2,36,-1
 1382 598 l 1,37,-1
 1382 448 l 1,38,-1
 1270 448 l 1,39,-1
 1270 896 l 1,40,-1
 1530 896 l 2,28,29
1530 710 m 1,41,-1
 1530 784 l 1,42,-1
 1382 784 l 1,43,-1
 1382 710 l 1,44,-1
 1530 710 l 1,41,-1
EndSplineSet
EndChar

StartChar: uniF17D
Encoding: 61821 61821 127
Width: 1641
Flags: W
LayerCount: 2
Fore
SplineSet
1642 224 m 2,0,1
 1642 161 1642 161 1598 117.5 c 128,-1,2
 1554 74 1554 74 1494 74 c 2,3,-1
 150 74 l 2,4,5
 87 74 87 74 43.5 117.5 c 128,-1,6
 0 161 0 161 0 224 c 2,7,-1
 0 1120 l 2,8,9
 0 1183 0 1183 44 1226.5 c 128,-1,10
 88 1270 88 1270 150 1270 c 2,11,-1
 1494 1270 l 2,12,13
 1554 1270 1554 1270 1598 1226.5 c 128,-1,14
 1642 1183 1642 1183 1642 1120 c 2,15,-1
 1642 224 l 2,0,1
560 634 m 1,16,-1
 298 298 l 1,17,-1
 1344 298 l 1,18,-1
 1008 746 l 1,19,-1
 746 410 l 1,20,-1
 560 634 l 1,16,-1
EndSplineSet
EndChar

StartChar: uniF17E
Encoding: 61822 61822 128
Width: 1344
Flags: W
LayerCount: 2
Fore
SplineSet
1194 1344 m 2,0,1
 1257 1344 1257 1344 1300.5 1300 c 128,-1,2
 1344 1256 1344 1256 1344 1194 c 2,3,-1
 1344 150 l 2,4,5
 1344 87 1344 87 1300 43.5 c 128,-1,6
 1256 0 1256 0 1194 0 c 2,7,-1
 150 0 l 2,8,9
 87 0 87 0 43.5 44 c 128,-1,10
 0 88 0 88 0 150 c 2,11,-1
 0 1194 l 2,12,13
 0 1257 0 1257 44 1300.5 c 128,-1,14
 88 1344 88 1344 150 1344 c 2,15,-1
 1194 1344 l 2,0,1
1194 150 m 1,16,-1
 1194 1194 l 1,17,-1
 150 1194 l 1,18,-1
 150 150 l 1,19,-1
 1194 150 l 1,16,-1
819 651 m 1,20,-1
 1082 298 l 1,21,-1
 262 298 l 1,22,-1
 466 564 l 1,23,-1
 612 385 l 1,24,-1
 819 651 l 1,20,-1
EndSplineSet
EndChar

StartChar: uniF17F
Encoding: 61823 61823 129
Width: 1344
Flags: W
LayerCount: 2
Fore
SplineSet
1344 150 m 2,0,1
 1344 87 1344 87 1300 43.5 c 128,-1,2
 1256 0 1256 0 1194 0 c 2,3,-1
 150 0 l 2,4,5
 87 0 87 0 43.5 44 c 128,-1,6
 0 88 0 88 0 150 c 2,7,-1
 0 1194 l 2,8,9
 0 1257 0 1257 44 1300.5 c 128,-1,10
 88 1344 88 1344 150 1344 c 2,11,-1
 1194 1344 l 2,12,13
 1257 1344 1257 1344 1300.5 1300 c 128,-1,14
 1344 1256 1344 1256 1344 1194 c 2,15,-1
 1344 150 l 2,0,1
410 560 m 1,16,-1
 150 224 l 1,17,-1
 1194 224 l 1,18,-1
 858 672 l 1,19,-1
 598 336 l 1,20,-1
 410 560 l 1,16,-1
EndSplineSet
EndChar

StartChar: uniF180
Encoding: 61824 61824 130
Width: 1344
Flags: W
LayerCount: 2
Fore
SplineSet
1194 1344 m 2,0,1
 1257 1344 1257 1344 1300.5 1300 c 128,-1,2
 1344 1256 1344 1256 1344 1194 c 2,3,-1
 1344 150 l 2,4,5
 1344 87 1344 87 1300 43.5 c 128,-1,6
 1256 0 1256 0 1194 0 c 2,7,-1
 147 0 l 2,8,9
 87 0 87 0 43.5 44 c 128,-1,10
 0 88 0 88 0 150 c 2,11,-1
 0 1194 l 2,12,13
 0 1257 0 1257 44 1300.5 c 128,-1,14
 88 1344 88 1344 147 1344 c 2,15,-1
 1194 1344 l 2,0,1
1194 448 m 1,16,-1
 1194 1194 l 1,17,-1
 147 1194 l 1,18,-1
 147 448 l 1,19,-1
 448 448 l 1,20,21
 448 354 448 354 513 289 c 128,-1,22
 578 224 578 224 672 224 c 128,-1,23
 766 224 766 224 831 289 c 128,-1,24
 896 354 896 354 896 448 c 1,25,-1
 1194 448 l 1,16,-1
970 822 m 1,26,-1
 672 522 l 1,27,-1
 374 822 l 1,28,-1
 522 822 l 1,29,-1
 522 1046 l 1,30,-1
 822 1046 l 1,31,-1
 822 822 l 1,32,-1
 970 822 l 1,26,-1
EndSplineSet
EndChar

StartChar: uniF181
Encoding: 61825 61825 131
Width: 1344
Flags: W
LayerCount: 2
Fore
SplineSet
1320 10 m 1,0,-1
 1344 -18 l 1,1,-1
 1250 -112 l 1,2,-1
 1046 91 l 1,3,4
 885 -42 885 -42 672 -42 c 0,5,6
 424 -42 424 -42 248 133 c 0,7,8
 87 294 87 294 75 525 c 0,9,10
 62 756 62 756 206 931 c 1,11,-1
 0 1138 l 1,12,-1
 94 1232 l 1,13,-1
 301 1026 l 1,14,-1
 406 920 l 1,15,-1
 672 654 l 1,16,-1
 1141 186 l 1,17,-1
 1320 10 l 1,0,-1
672 105 m 1,18,-1
 672 466 l 1,19,-1
 315 822 l 1,20,21
 224 703 224 703 224 553 c 0,22,23
 224 367 224 367 357 238 c 1,24,25
 486 105 486 105 672 105 c 1,18,-1
672 1186 m 1,26,-1
 500 1018 l 1,27,-1
 396 1124 l 1,28,-1
 672 1400 l 1,29,-1
 1096 976 l 2,30,31
 1229 840 1229 840 1260.5 653 c 128,-1,32
 1292 466 1292 466 1214 304 c 1,33,-1
 672 844 l 1,34,-1
 672 1186 l 1,26,-1
EndSplineSet
EndChar

StartChar: uniF182
Encoding: 61826 61826 132
Width: 1193
Flags: W
LayerCount: 2
Fore
SplineSet
1018 976 m 2,0,1
 1193 801 1193 801 1193.5 552.5 c 128,-1,2
 1194 304 1194 304 1019 131 c 128,-1,3
 844 -42 844 -42 597 -42 c 128,-1,4
 350 -42 350 -42 175 131 c 128,-1,5
 0 304 0 304 0 553 c 128,-1,6
 0 802 0 802 175 976 c 2,7,-1
 598 1400 l 1,8,-1
 1018 976 l 2,0,1
598 105 m 1,9,-1
 598 1186 l 1,10,-1
 280 872 l 1,11,12
 150 739 150 739 150 553 c 256,13,14
 150 367 150 367 280 238 c 0,15,16
 409 105 409 105 598 105 c 1,9,-1
EndSplineSet
EndChar

StartChar: uniF183
Encoding: 61827 61827 133
Width: 1641
Flags: W
LayerCount: 2
Fore
SplineSet
872 822 m 1,0,-1
 1642 822 l 1,1,-1
 1642 522 l 1,2,-1
 1494 522 l 1,3,-1
 1494 224 l 1,4,-1
 1194 224 l 1,5,-1
 1194 522 l 1,6,-1
 872 522 l 1,7,8
 823 392 823 392 707.5 308 c 128,-1,9
 592 224 592 224 448 224 c 0,10,11
 262 224 262 224 131 355 c 128,-1,12
 0 486 0 486 0 672 c 128,-1,13
 0 858 0 858 131 989 c 128,-1,14
 262 1120 262 1120 448 1120 c 0,15,16
 592 1120 592 1120 707.5 1036 c 128,-1,17
 823 952 823 952 872 822 c 1,0,-1
448 522 m 128,-1,19
 511 522 511 522 554.5 565.5 c 128,-1,20
 598 609 598 609 598 672 c 128,-1,21
 598 735 598 735 554.5 778.5 c 128,-1,22
 511 822 511 822 448 822 c 128,-1,23
 385 822 385 822 341.5 778.5 c 128,-1,24
 298 735 298 735 298 672 c 128,-1,25
 298 609 298 609 341.5 565.5 c 128,-1,18
 385 522 385 522 448 522 c 128,-1,19
EndSplineSet
EndChar

StartChar: uniF184
Encoding: 61828 61828 134
Width: 1417
Flags: W
LayerCount: 2
Fore
SplineSet
1092 1130 m 2,0,-1
 1418 672 l 1,1,-1
 1092 214 l 2,2,3
 1046 150 1046 150 970 150 c 2,4,-1
 150 150 l 2,5,6
 87 150 87 150 43.5 194 c 128,-1,7
 0 238 0 238 0 298 c 2,8,-1
 0 1046 l 2,9,10
 0 1106 0 1106 44 1150 c 128,-1,11
 88 1194 88 1194 150 1194 c 2,12,-1
 970 1194 l 2,13,14
 1046 1194 1046 1194 1092 1130 c 2,0,-1
970 298 m 1,15,-1
 1236 672 l 1,16,-1
 970 1046 l 1,17,-1
 150 1046 l 1,18,-1
 150 298 l 1,19,-1
 970 298 l 1,15,-1
EndSplineSet
EndChar

StartChar: uniF185
Encoding: 61829 61829 135
Width: 1417
Flags: W
LayerCount: 2
Fore
SplineSet
1092 1130 m 2,0,-1
 1418 672 l 1,1,-1
 1092 214 l 2,2,3
 1046 150 1046 150 970 150 c 2,4,-1
 150 150 l 2,5,6
 87 150 87 150 43.5 194 c 128,-1,7
 0 238 0 238 0 298 c 2,8,-1
 0 1046 l 2,9,10
 0 1106 0 1106 44 1150 c 128,-1,11
 88 1194 88 1194 150 1194 c 2,12,-1
 970 1194 l 2,13,14
 1046 1194 1046 1194 1092 1130 c 2,0,-1
EndSplineSet
EndChar

StartChar: uniF186
Encoding: 61830 61830 136
Width: 1494
Flags: W
LayerCount: 2
Fore
SplineSet
1449 704 m 2,0,1
 1495 658 1495 658 1494.5 597 c 128,-1,2
 1494 536 1494 536 1449 494 c 2,3,-1
 928 -32 l 2,4,5
 882 -74 882 -74 821 -74 c 128,-1,6
 760 -74 760 -74 718 -32 c 2,7,-1
 46 640 l 2,8,9
 0 686 0 686 0 746 c 2,10,-1
 0 1270 l 2,11,12
 0 1330 0 1330 44 1374 c 128,-1,13
 88 1418 88 1418 150 1418 c 2,14,-1
 672 1418 l 2,15,16
 735 1418 735 1418 777 1376 c 2,17,-1
 1449 704 l 2,0,1
261 1046 m 128,-1,19
 308 1046 308 1046 341 1078 c 128,-1,20
 374 1110 374 1110 374 1157 c 128,-1,21
 374 1204 374 1204 341 1237 c 128,-1,22
 308 1270 308 1270 261 1270 c 128,-1,23
 214 1270 214 1270 182 1237 c 128,-1,24
 150 1204 150 1204 150 1157 c 128,-1,25
 150 1110 150 1110 182 1078 c 128,-1,18
 214 1046 214 1046 261 1046 c 128,-1,19
1141 427 m 2,26,27
 1193 483 1193 483 1193.5 560 c 128,-1,28
 1194 637 1194 637 1139.5 691.5 c 128,-1,29
 1085 746 1085 746 1008 746 c 128,-1,30
 931 746 931 746 875 693 c 1,31,-1
 822 637 l 1,32,-1
 766 693 l 2,33,34
 714 746 714 746 634 746 c 0,35,36
 557 746 557 746 502.5 691.5 c 128,-1,37
 448 637 448 637 448 560 c 256,38,39
 448 483 448 483 504 427 c 2,40,-1
 822 108 l 1,41,-1
 1141 427 l 2,26,27
EndSplineSet
EndChar

StartChar: uniF187
Encoding: 61831 61831 137
Width: 1494
Flags: W
LayerCount: 2
Fore
SplineSet
1449 704 m 2,0,1
 1495 658 1495 658 1494.5 597 c 128,-1,2
 1494 536 1494 536 1449 494 c 2,3,-1
 928 -32 l 2,4,5
 882 -74 882 -74 821 -74 c 128,-1,6
 760 -74 760 -74 718 -32 c 2,7,-1
 46 640 l 2,8,9
 0 686 0 686 0 746 c 2,10,-1
 0 1270 l 2,11,12
 0 1330 0 1330 44 1374 c 128,-1,13
 88 1418 88 1418 150 1418 c 2,14,-1
 672 1418 l 2,15,16
 735 1418 735 1418 777 1376 c 2,17,-1
 1449 704 l 2,0,1
261 1046 m 128,-1,19
 308 1046 308 1046 341 1078 c 128,-1,20
 374 1110 374 1110 374 1157 c 128,-1,21
 374 1204 374 1204 341 1237 c 128,-1,22
 308 1270 308 1270 261 1270 c 128,-1,23
 214 1270 214 1270 182 1237 c 128,-1,24
 150 1204 150 1204 150 1157 c 128,-1,25
 150 1110 150 1110 182 1078 c 128,-1,18
 214 1046 214 1046 261 1046 c 128,-1,19
EndSplineSet
EndChar

StartChar: uniF188
Encoding: 61832 61832 138
Width: 1561
Flags: W
LayerCount: 2
Fore
SplineSet
91 102 m 2,0,1
 35 126 35 126 12.5 182 c 128,-1,2
 -10 238 -10 238 10 294 c 2,3,-1
 192 732 l 1,4,-1
 192 60 l 1,5,-1
 91 102 l 2,0,1
1547 378 m 2,6,7
 1571 322 1571 322 1546.5 264 c 128,-1,8
 1522 206 1522 206 1466 182 c 2,9,-1
 917 -46 l 2,10,11
 889 -56 889 -56 861 -56 c 0,12,13
 758 -56 758 -56 724 35 c 2,14,-1
 354 931 l 2,15,16
 340 958 340 958 343 990 c 1,17,18
 343 1088 343 1088 434 1124 c 2,19,-1
 984 1351 l 2,20,21
 1012 1362 1012 1362 1043 1362 c 0,22,23
 1142 1362 1142 1362 1180 1270 c 2,24,-1
 1547 378 l 2,6,7
492 914 m 128,-1,26
 522 914 522 914 544.5 936.5 c 128,-1,27
 567 959 567 959 567 988.5 c 128,-1,28
 567 1018 567 1018 544.5 1041 c 128,-1,29
 522 1064 522 1064 492 1064 c 128,-1,30
 462 1064 462 1064 439 1041 c 128,-1,31
 416 1018 416 1018 416 988.5 c 128,-1,32
 416 959 416 959 439 936.5 c 128,-1,25
 462 914 462 914 492 914 c 128,-1,26
343 94 m 2,33,-1
 343 567 l 1,34,-1
 598 -56 l 1,35,-1
 490 -56 l 2,36,37
 430 -56 430 -56 386.5 -12.5 c 128,-1,38
 343 31 343 31 343 94 c 2,33,-1
EndSplineSet
EndChar

StartChar: uniF189
Encoding: 61833 61833 139
Width: 1641
Flags: W
LayerCount: 2
Fore
SplineSet
189 182 m 1,0,-1
 326 318 l 1,1,-1
 430 214 l 1,2,-1
 294 77 l 1,3,-1
 189 182 l 1,0,-1
746 -108 m 1,4,-1
 746 112 l 1,5,-1
 896 112 l 1,6,-1
 896 -108 l 1,7,-1
 746 -108 l 1,4,-1
224 784 m 1,8,-1
 224 634 l 1,9,-1
 0 634 l 1,10,-1
 0 784 l 1,11,-1
 224 784 l 1,8,-1
1046 1096 m 1,12,13
 1148 1036 1148 1036 1209 934.5 c 0,14,15
 1270 832 1270 832 1270 710 c 0,16,17
 1270 524 1270 524 1139 393 c 128,-1,18
 1008 262 1008 262 822.5 262 c 128,-1,19
 637 262 637 262 505.5 393.5 c 0,20,21
 374 524 374 524 374 710 c 0,22,23
 374 832 374 832 434 934 c 128,-1,24
 494 1036 494 1036 598 1096 c 1,25,-1
 598 1456 l 1,26,-1
 1046 1456 l 1,27,-1
 1046 1096 l 1,12,13
1418 784 m 1,28,-1
 1642 784 l 1,29,-1
 1642 634 l 1,30,-1
 1418 634 l 1,31,-1
 1418 784 l 1,28,-1
1211 214 m 1,32,-1
 1316 315 l 1,33,-1
 1452 182 l 1,34,-1
 1348 77 l 1,35,-1
 1211 214 l 1,32,-1
EndSplineSet
EndChar

StartChar: uniF18A
Encoding: 61834 61834 140
Width: 1641
Flags: W
LayerCount: 2
Fore
SplineSet
970 1120 m 1,0,-1
 1642 224 l 1,1,-1
 0 224 l 1,2,-1
 448 822 l 1,3,4
 658 542 658 542 784 374 c 1,5,-1
 903 462 l 1,6,-1
 690 746 l 1,7,-1
 970 1120 l 1,0,-1
EndSplineSet
EndChar

StartChar: uniF18B
Encoding: 61835 61835 141
Width: 1494
Flags: W
LayerCount: 2
Fore
SplineSet
1330 448 m 1,0,-1
 1222 556 l 1,1,-1
 1312 623 l 1,2,-1
 1418 518 l 1,3,-1
 1330 448 l 1,0,-1
1295 802 m 1,4,-1
 1116 662 l 1,5,-1
 528 1250 l 1,6,-1
 746 1418 l 1,7,-1
 1418 896 l 1,8,-1
 1295 802 l 1,4,-1
94 1494 m 1,9,-1
 1494 94 l 1,10,-1
 1400 0 l 1,11,-1
 1116 284 l 1,12,-1
 746 -4 l 1,13,-1
 74 518 l 1,14,-1
 196 612 l 1,15,-1
 746 182 l 1,16,-1
 1012 388 l 1,17,-1
 903 494 l 1,18,-1
 746 374 l 1,19,-1
 196 802 l 1,20,-1
 74 896 l 1,21,-1
 315 1085 l 1,22,-1
 0 1400 l 1,23,-1
 94 1494 l 1,9,-1
EndSplineSet
EndChar

StartChar: uniF18C
Encoding: 61836 61836 142
Width: 1344
Flags: W
LayerCount: 2
Fore
SplineSet
672 182 m 1,0,-1
 1222 612 l 1,1,-1
 1344 518 l 1,2,-1
 672 -4 l 1,3,-1
 0 518 l 1,4,-1
 122 612 l 1,5,-1
 672 182 l 1,0,-1
672 374 m 1,6,-1
 122 802 l 1,7,-1
 0 896 l 1,8,-1
 672 1418 l 1,9,-1
 1344 896 l 1,10,-1
 1222 802 l 1,11,-1
 672 374 l 1,6,-1
EndSplineSet
EndChar

StartChar: uniF18D
Encoding: 61837 61837 143
Width: 1344
Flags: W
LayerCount: 2
Fore
SplineSet
672 707 m 1,0,1
 956 970 956 970 1344 970 c 1,2,-1
 1344 150 l 1,3,4
 959 150 959 150 672 -116 c 1,5,6
 388 150 388 150 0 150 c 1,7,-1
 0 970 l 1,8,9
 388 970 388 970 672 707 c 1,0,1
672 970 m 128,-1,11
 578 970 578 970 513 1036 c 128,-1,12
 448 1102 448 1102 448 1195 c 128,-1,13
 448 1288 448 1288 513 1353 c 128,-1,14
 578 1418 578 1418 672 1418 c 128,-1,15
 766 1418 766 1418 831 1353 c 128,-1,16
 896 1288 896 1288 896 1195 c 128,-1,17
 896 1102 896 1102 831 1036 c 128,-1,10
 766 970 766 970 672 970 c 128,-1,11
EndSplineSet
EndChar

StartChar: uniF18E
Encoding: 61838 61838 144
Width: 1494
Flags: W
LayerCount: 2
Fore
SplineSet
144 672 m 128,-1,1
 144 578 144 578 210 509.5 c 128,-1,2
 276 441 276 441 374 441 c 2,3,-1
 672 441 l 1,4,-1
 672 298 l 1,5,-1
 374 298 l 2,6,7
 220 298 220 298 110 408 c 128,-1,8
 0 518 0 518 0 672 c 128,-1,9
 0 826 0 826 110 936 c 128,-1,10
 220 1046 220 1046 374 1046 c 2,11,-1
 672 1046 l 1,12,-1
 672 903 l 1,13,-1
 374 903 l 2,14,15
 276 903 276 903 210 834.5 c 128,-1,0
 144 766 144 766 144 672 c 128,-1,1
448 598 m 1,16,-1
 448 746 l 1,17,-1
 1046 746 l 1,18,-1
 1046 598 l 1,19,-1
 448 598 l 1,16,-1
1120 1046 m 2,20,21
 1274 1046 1274 1046 1384 936 c 128,-1,22
 1494 826 1494 826 1494 672 c 128,-1,23
 1494 518 1494 518 1384 408 c 128,-1,24
 1274 298 1274 298 1120 298 c 2,25,-1
 822 298 l 1,26,-1
 822 441 l 1,27,-1
 1120 441 l 2,28,29
 1214 441 1214 441 1282.5 509.5 c 128,-1,30
 1351 578 1351 578 1351 672 c 128,-1,31
 1351 766 1351 766 1282.5 834.5 c 128,-1,32
 1214 903 1214 903 1120 903 c 2,33,-1
 822 903 l 1,34,-1
 822 1046 l 1,35,-1
 1120 1046 l 2,20,21
EndSplineSet
EndChar

StartChar: uniF18F
Encoding: 61839 61839 145
Width: 1193
Flags: W
LayerCount: 2
Fore
SplineSet
597 298 m 128,-1,1
 536 298 536 298 492 341.5 c 128,-1,2
 448 385 448 385 448 448 c 128,-1,3
 448 511 448 511 492 554.5 c 128,-1,4
 536 598 536 598 597 598 c 128,-1,5
 658 598 658 598 702 554.5 c 128,-1,6
 746 511 746 511 746 448 c 128,-1,7
 746 385 746 385 702 341.5 c 128,-1,0
 658 298 658 298 597 298 c 128,-1,1
1046 970 m 2,8,9
 1106 970 1106 970 1150 926 c 128,-1,10
 1194 882 1194 882 1194 822 c 2,11,-1
 1194 74 l 2,12,13
 1194 14 1194 14 1150 -30 c 128,-1,14
 1106 -74 1106 -74 1046 -74 c 2,15,-1
 150 -74 l 2,16,17
 87 -74 87 -74 43.5 -30 c 128,-1,18
 0 14 0 14 0 74 c 2,19,-1
 0 822 l 2,20,21
 0 882 0 882 44 926 c 128,-1,22
 88 970 88 970 150 970 c 2,23,-1
 830 970 l 1,24,-1
 830 1120 l 2,25,26
 830 1214 830 1214 761.5 1282.5 c 128,-1,27
 693 1351 693 1351 596.5 1351 c 128,-1,28
 500 1351 500 1351 434 1282.5 c 128,-1,29
 368 1214 368 1214 368 1120 c 1,30,-1
 224 1120 l 1,31,32
 224 1274 224 1274 334 1384 c 128,-1,33
 444 1494 444 1494 598 1494 c 128,-1,34
 752 1494 752 1494 861 1384 c 128,-1,35
 970 1274 970 1274 970 1120 c 2,36,-1
 970 970 l 1,37,-1
 1046 970 l 2,8,9
1046 74 m 1,38,-1
 1046 822 l 1,39,-1
 150 822 l 1,40,-1
 150 74 l 1,41,-1
 1046 74 l 1,38,-1
EndSplineSet
EndChar

StartChar: uniF190
Encoding: 61840 61840 146
Width: 1193
Flags: W
LayerCount: 2
Fore
SplineSet
1046 970 m 2,0,1
 1106 970 1106 970 1150 926 c 128,-1,2
 1194 882 1194 882 1194 822 c 2,3,-1
 1194 74 l 2,4,5
 1194 14 1194 14 1150 -30 c 128,-1,6
 1106 -74 1106 -74 1046 -74 c 2,7,-1
 150 -74 l 2,8,9
 87 -74 87 -74 43.5 -30 c 128,-1,10
 0 14 0 14 0 74 c 2,11,-1
 0 822 l 2,12,13
 0 882 0 882 44 926 c 128,-1,14
 88 970 88 970 150 970 c 2,15,-1
 224 970 l 1,16,-1
 224 1120 l 2,17,18
 224 1274 224 1274 334 1384 c 128,-1,19
 444 1494 444 1494 598 1494 c 128,-1,20
 752 1494 752 1494 861 1384 c 128,-1,21
 970 1274 970 1274 970 1120 c 2,22,-1
 970 970 l 1,23,-1
 1046 970 l 2,0,1
596.5 1351 m 128,-1,25
 500 1351 500 1351 434 1282.5 c 128,-1,26
 368 1214 368 1214 368 1120 c 1,27,-1
 374 1120 l 1,28,-1
 374 970 l 1,29,-1
 830 970 l 1,30,-1
 830 1120 l 2,31,32
 830 1214 830 1214 761.5 1282.5 c 128,-1,24
 693 1351 693 1351 596.5 1351 c 128,-1,25
1046 74 m 1,33,-1
 1046 822 l 1,34,-1
 150 822 l 1,35,-1
 150 74 l 1,36,-1
 1046 74 l 1,33,-1
597 298 m 128,-1,38
 536 298 536 298 492 341.5 c 128,-1,39
 448 385 448 385 448 448 c 128,-1,40
 448 511 448 511 492 554.5 c 128,-1,41
 536 598 536 598 597 598 c 128,-1,42
 658 598 658 598 702 554.5 c 128,-1,43
 746 511 746 511 746 448 c 128,-1,44
 746 385 746 385 702 341.5 c 128,-1,37
 658 298 658 298 597 298 c 128,-1,38
EndSplineSet
EndChar

StartChar: uniF191
Encoding: 61841 61841 147
Width: 1193
Flags: W
LayerCount: 2
Fore
SplineSet
1046 970 m 2,0,1
 1106 970 1106 970 1150 926 c 128,-1,2
 1194 882 1194 882 1194 822 c 2,3,-1
 1194 74 l 2,4,5
 1194 14 1194 14 1150 -30 c 128,-1,6
 1106 -74 1106 -74 1046 -74 c 2,7,-1
 150 -74 l 2,8,9
 87 -74 87 -74 43.5 -30 c 128,-1,10
 0 14 0 14 0 74 c 2,11,-1
 0 822 l 2,12,13
 0 882 0 882 44 926 c 128,-1,14
 88 970 88 970 150 970 c 2,15,-1
 224 970 l 1,16,-1
 224 1120 l 2,17,18
 224 1274 224 1274 334 1384 c 128,-1,19
 444 1494 444 1494 598 1494 c 128,-1,20
 752 1494 752 1494 861 1384 c 128,-1,21
 970 1274 970 1274 970 1120 c 2,22,-1
 970 970 l 1,23,-1
 1046 970 l 2,0,1
597 298 m 128,-1,25
 658 298 658 298 702 341.5 c 128,-1,26
 746 385 746 385 746 448 c 128,-1,27
 746 511 746 511 702 554.5 c 128,-1,28
 658 598 658 598 597 598 c 128,-1,29
 536 598 536 598 492 554.5 c 128,-1,30
 448 511 448 511 448 448 c 128,-1,31
 448 385 448 385 492 341.5 c 128,-1,24
 536 298 536 298 597 298 c 128,-1,25
830 970 m 1,32,-1
 830 1120 l 2,33,34
 830 1214 830 1214 761.5 1282.5 c 128,-1,35
 693 1351 693 1351 596.5 1351 c 128,-1,36
 500 1351 500 1351 434 1282.5 c 128,-1,37
 368 1214 368 1214 368 1120 c 2,38,-1
 368 970 l 1,39,-1
 830 970 l 1,32,-1
EndSplineSet
EndChar

StartChar: uniF192
Encoding: 61842 61842 148
Width: 1792
Flags: W
LayerCount: 2
Fore
SplineSet
522 970 m 1,0,-1
 224 672 l 1,1,-1
 522 374 l 1,2,-1
 522 150 l 1,3,-1
 0 672 l 1,4,-1
 522 1194 l 1,5,-1
 522 970 l 1,0,-1
970 896 m 1,6,7
 1159 868 1159 868 1307.5 789 c 128,-1,8
 1456 710 1456 710 1550.5 595 c 128,-1,9
 1645 480 1645 480 1702.5 352 c 128,-1,10
 1760 224 1760 224 1792 74 c 1,11,12
 1520 456 1520 456 970 455 c 1,13,-1
 970 150 l 1,14,-1
 448 672 l 1,15,-1
 970 1194 l 1,16,-1
 970 896 l 1,6,7
EndSplineSet
EndChar

StartChar: uniF193
Encoding: 61843 61843 149
Width: 1344
Flags: W
LayerCount: 2
Fore
SplineSet
522 896 m 1,0,1
 711 868 711 868 859.5 789 c 128,-1,2
 1008 710 1008 710 1102.5 595 c 128,-1,3
 1197 480 1197 480 1254.5 352 c 128,-1,4
 1312 224 1312 224 1344 74 c 1,5,6
 1072 456 1072 456 522 455 c 1,7,-1
 522 150 l 1,8,-1
 0 672 l 1,9,-1
 522 1194 l 1,10,-1
 522 896 l 1,0,1
EndSplineSet
EndChar

StartChar: uniF194
Encoding: 61844 61844 150
Width: 1568
Flags: W
LayerCount: 2
Fore
SplineSet
0 0 m 1,0,-1
 0 522 l 1,1,-1
 1120 672 l 1,2,-1
 0 822 l 1,3,-1
 0 1344 l 1,4,-1
 1568 672 l 1,5,-1
 0 0 l 1,0,-1
EndSplineSet
EndChar

StartChar: uniF195
Encoding: 61845 61845 151
Width: 1344
Flags: W
LayerCount: 2
Fore
SplineSet
1194 1120 m 2,0,1
 1257 1120 1257 1120 1300.5 1076 c 128,-1,2
 1344 1032 1344 1032 1344 970 c 2,3,-1
 1344 74 l 2,4,5
 1344 14 1344 14 1300 -30 c 128,-1,6
 1256 -74 1256 -74 1194 -74 c 2,7,-1
 150 -74 l 2,8,9
 87 -74 87 -74 43.5 -30 c 128,-1,10
 0 14 0 14 0 74 c 2,11,-1
 0 970 l 2,12,13
 0 1033 0 1033 44 1076.5 c 128,-1,14
 88 1120 88 1120 150 1120 c 2,15,-1
 298 1120 l 1,16,17
 298 1274 298 1274 408 1384 c 128,-1,18
 518 1494 518 1494 672 1494 c 128,-1,19
 826 1494 826 1494 936 1384 c 128,-1,20
 1046 1274 1046 1274 1046 1120 c 1,21,-1
 1194 1120 l 2,0,1
672 1344 m 128,-1,23
 578 1344 578 1344 513 1279 c 128,-1,24
 448 1214 448 1214 448 1120 c 1,25,-1
 896 1120 l 1,26,27
 896 1214 896 1214 831 1279 c 128,-1,22
 766 1344 766 1344 672 1344 c 128,-1,23
672 598 m 128,-1,29
 826 598 826 598 936 707 c 128,-1,30
 1046 816 1046 816 1046 970 c 1,31,-1
 896 970 l 1,32,33
 896 879 896 879 831 812.5 c 128,-1,34
 766 746 766 746 672 746 c 128,-1,35
 578 746 578 746 513 812 c 128,-1,36
 448 878 448 878 448 970 c 1,37,-1
 298 970 l 1,38,39
 298 816 298 816 408 707 c 128,-1,28
 518 598 518 598 672 598 c 128,-1,29
EndSplineSet
EndChar

StartChar: uniF196
Encoding: 61846 61846 152
Width: 1344
Flags: W
LayerCount: 2
Fore
SplineSet
1306 1344 m 1,0,1
 1344 1344 1344 1344 1344 1306 c 2,2,-1
 1344 178 l 2,3,4
 1344 150 1344 150 1316 144 c 2,5,-1
 896 0 l 1,6,-1
 448 158 l 1,7,-1
 49 4 l 1,8,-1
 38 0 l 1,9,10
 0 0 0 0 0 38 c 2,11,-1
 0 1166 l 2,12,13
 0 1194 0 1194 28 1200 c 2,14,-1
 448 1344 l 1,15,-1
 896 1186 l 1,16,-1
 1295 1340 l 1,17,-1
 1306 1344 l 1,0,1
896 150 m 1,18,-1
 896 1036 l 1,19,-1
 448 1194 l 1,20,-1
 448 308 l 1,21,-1
 896 150 l 1,18,-1
EndSplineSet
EndChar

StartChar: uniF197
Encoding: 61847 61847 153
Width: 1512
Flags: W
LayerCount: 2
Fore
SplineSet
0 168 m 1,0,-1
 0 336 l 1,1,-1
 1512 336 l 1,2,-1
 1512 168 l 1,3,-1
 0 168 l 1,0,-1
0 588 m 1,4,-1
 0 756 l 1,5,-1
 1512 756 l 1,6,-1
 1512 588 l 1,7,-1
 0 588 l 1,4,-1
0 1176 m 1,8,-1
 1512 1176 l 1,9,-1
 1512 1008 l 1,10,-1
 0 1008 l 1,11,-1
 0 1176 l 1,8,-1
EndSplineSet
EndChar

StartChar: uniF198
Encoding: 61848 61848 154
Width: 1494
Flags: W
LayerCount: 2
Fore
SplineSet
672 298 m 1,0,-1
 672 374 l 1,1,-1
 522 374 l 1,2,-1
 522 522 l 1,3,-1
 822 522 l 1,4,-1
 822 598 l 1,5,-1
 598 598 l 2,6,7
 566 598 566 598 544 619 c 128,-1,8
 522 640 522 640 522 672 c 2,9,-1
 522 896 l 2,10,11
 522 928 522 928 544.5 949 c 0,12,13
 566 970 566 970 598 970 c 2,14,-1
 672 970 l 1,15,-1
 672 1046 l 1,16,-1
 822 1046 l 1,17,-1
 822 970 l 1,18,-1
 970 970 l 1,19,-1
 970 822 l 1,20,-1
 672 822 l 1,21,-1
 672 746 l 1,22,-1
 896 746 l 2,23,24
 928 746 928 746 949 725 c 128,-1,25
 970 704 970 704 970 672 c 2,26,-1
 970 448 l 2,27,28
 970 416 970 416 949 395 c 128,-1,29
 928 374 928 374 896 374 c 2,30,-1
 822 374 l 1,31,-1
 822 298 l 1,32,-1
 672 298 l 1,0,-1
1344 1270 m 2,33,34
 1407 1270 1407 1270 1450.5 1226.5 c 128,-1,35
 1494 1183 1494 1183 1494 1120 c 2,36,-1
 1494 224 l 2,37,38
 1494 161 1494 161 1450.5 117.5 c 128,-1,39
 1407 74 1407 74 1344 74 c 2,40,-1
 150 74 l 2,41,42
 87 74 87 74 43.5 117.5 c 128,-1,43
 0 161 0 161 0 224 c 2,44,-1
 0 1120 l 2,45,46
 0 1183 0 1183 44 1226.5 c 128,-1,47
 88 1270 88 1270 150 1270 c 2,48,-1
 1344 1270 l 2,33,34
1344 224 m 1,49,-1
 1344 1120 l 1,50,-1
 150 1120 l 1,51,-1
 150 224 l 1,52,-1
 1344 224 l 1,49,-1
EndSplineSet
EndChar

StartChar: uniF199
Encoding: 61849 61849 155
Width: 1186
Flags: W
LayerCount: 2
Fore
SplineSet
630 1054 m 0,0,1
 567 1054 567 1054 518 1032 c 1,2,-1
 406 1141 l 1,3,4
 458 1169 458 1169 518 1183 c 1,5,-1
 518 1344 l 1,6,-1
 742 1344 l 1,7,-1
 742 1180 l 1,8,9
 854 1152 854 1152 915 1075 c 128,-1,10
 976 998 976 998 984 896 c 1,11,-1
 816 896 l 1,12,13
 808 1054 808 1054 630 1054 c 0,0,1
94 1264 m 1,14,-1
 1186 172 l 1,15,-1
 1092 77 l 1,16,-1
 924 245 l 1,17,18
 858 182 858 182 742 161 c 1,19,-1
 742 0 l 1,20,-1
 518 0 l 1,21,-1
 518 161 l 1,22,23
 402 185 402 185 325 258.5 c 128,-1,24
 248 332 248 332 245 448 c 1,25,-1
 406 448 l 1,26,27
 424 290 424 290 630 290 c 0,28,29
 763 290 763 290 812 360 c 1,30,-1
 550 620 l 1,31,32
 256 708 256 708 256 914 c 1,33,-1
 0 1169 l 1,34,-1
 94 1264 l 1,14,-1
EndSplineSet
EndChar

StartChar: uniF19A
Encoding: 61850 61850 156
Width: 759
Flags: W
LayerCount: 2
Fore
SplineSet
410 752 m 1,0,1
 571 714 571 714 665.5 640.5 c 128,-1,2
 760 567 760 567 760 427 c 0,3,4
 760 315 760 315 688 248.5 c 128,-1,5
 616 182 616 182 500 161 c 1,6,-1
 500 0 l 1,7,-1
 276 0 l 1,8,-1
 276 161 l 1,9,10
 157 185 157 185 82 258.5 c 128,-1,11
 7 332 7 332 0 448 c 1,12,-1
 164 448 l 1,13,14
 178 290 178 290 388 290 c 0,15,16
 496 290 496 290 542 332 c 128,-1,17
 588 374 588 374 588 424 c 0,18,19
 588 484 588 484 541 529 c 128,-1,20
 494 574 494 574 364 606 c 0,21,22
 14 690 14 690 14 914 c 0,23,24
 14 1016 14 1016 87.5 1087 c 0,25,26
 160 1158 160 1158 276 1183 c 1,27,-1
 276 1344 l 1,28,-1
 500 1344 l 1,29,-1
 500 1180 l 1,30,31
 612 1152 612 1152 673.5 1075 c 0,32,33
 734 998 734 998 738 896 c 1,34,-1
 574 896 l 1,35,36
 566 1054 566 1054 388 1054 c 0,37,38
 294 1054 294 1054 240 1015 c 128,-1,39
 186 976 186 976 186 914 c 0,40,41
 186 862 186 862 235 824.5 c 128,-1,42
 284 787 284 787 410 752 c 1,0,1
EndSplineSet
EndChar

StartChar: uniF19B
Encoding: 61851 61851 157
Width: 297
Flags: W
LayerCount: 2
Fore
SplineSet
149 970 m 128,-1,1
 88 970 88 970 44 1013.5 c 128,-1,2
 0 1057 0 1057 0 1120 c 128,-1,3
 0 1183 0 1183 44 1226.5 c 128,-1,4
 88 1270 88 1270 149 1270 c 128,-1,5
 210 1270 210 1270 254 1226.5 c 128,-1,6
 298 1183 298 1183 298 1120 c 128,-1,7
 298 1057 298 1057 254 1013.5 c 128,-1,0
 210 970 210 970 149 970 c 128,-1,1
149 822 m 128,-1,9
 210 822 210 822 254 778.5 c 128,-1,10
 298 735 298 735 298 672 c 128,-1,11
 298 609 298 609 254 565.5 c 128,-1,12
 210 522 210 522 149 522 c 128,-1,13
 88 522 88 522 44 565.5 c 128,-1,14
 0 609 0 609 0 672 c 128,-1,15
 0 735 0 735 44 778.5 c 128,-1,8
 88 822 88 822 149 822 c 128,-1,9
149 374 m 128,-1,17
 210 374 210 374 254 330.5 c 128,-1,18
 298 287 298 287 298 224 c 128,-1,19
 298 161 298 161 254 117.5 c 128,-1,20
 210 74 210 74 149 74 c 128,-1,21
 88 74 88 74 44 117.5 c 128,-1,22
 0 161 0 161 0 224 c 128,-1,23
 0 287 0 287 44 330.5 c 128,-1,16
 88 374 88 374 149 374 c 128,-1,17
EndSplineSet
EndChar

StartChar: uniF19C
Encoding: 61852 61852 158
Width: 1193
Flags: W
LayerCount: 2
Fore
SplineSet
149 822 m 128,-1,1
 210 822 210 822 254 778.5 c 128,-1,2
 298 735 298 735 298 672 c 128,-1,3
 298 609 298 609 254 565.5 c 128,-1,4
 210 522 210 522 149 522 c 128,-1,5
 88 522 88 522 44 565.5 c 128,-1,6
 0 609 0 609 0 672 c 128,-1,7
 0 735 0 735 44 778.5 c 128,-1,0
 88 822 88 822 149 822 c 128,-1,1
1045 822 m 128,-1,9
 1106 822 1106 822 1150 778.5 c 128,-1,10
 1194 735 1194 735 1194 672 c 128,-1,11
 1194 609 1194 609 1150 565.5 c 128,-1,12
 1106 522 1106 522 1045 522 c 128,-1,13
 984 522 984 522 940 565.5 c 128,-1,14
 896 609 896 609 896 672 c 128,-1,15
 896 735 896 735 940 778.5 c 128,-1,8
 984 822 984 822 1045 822 c 128,-1,9
597 822 m 128,-1,17
 658 822 658 822 702 778.5 c 128,-1,18
 746 735 746 735 746 672 c 128,-1,19
 746 609 746 609 702 565.5 c 128,-1,20
 658 522 658 522 597 522 c 128,-1,21
 536 522 536 522 492 565.5 c 128,-1,22
 448 609 448 609 448 672 c 128,-1,23
 448 735 448 735 492 778.5 c 128,-1,16
 536 822 536 822 597 822 c 128,-1,17
EndSplineSet
EndChar

StartChar: uniF19D
Encoding: 61853 61853 159
Width: 1193
Flags: W
LayerCount: 2
Fore
SplineSet
1046 1344 m 1,0,-1
 1194 1344 l 1,1,-1
 1194 0 l 1,2,-1
 1046 0 l 1,3,-1
 1046 150 l 1,4,-1
 896 150 l 1,5,-1
 896 0 l 1,6,-1
 298 0 l 1,7,-1
 298 150 l 1,8,-1
 150 150 l 1,9,-1
 150 0 l 1,10,-1
 0 0 l 1,11,-1
 0 1344 l 1,12,-1
 150 1344 l 1,13,-1
 150 1194 l 1,14,-1
 298 1194 l 1,15,-1
 298 1344 l 1,16,-1
 896 1344 l 1,17,-1
 896 1194 l 1,18,-1
 1046 1194 l 1,19,-1
 1046 1344 l 1,0,-1
298 298 m 1,20,-1
 298 448 l 1,21,-1
 150 448 l 1,22,-1
 150 298 l 1,23,-1
 298 298 l 1,20,-1
298 598 m 1,24,-1
 298 746 l 1,25,-1
 150 746 l 1,26,-1
 150 598 l 1,27,-1
 298 598 l 1,24,-1
298 896 m 1,28,-1
 298 1046 l 1,29,-1
 150 1046 l 1,30,-1
 150 896 l 1,31,-1
 298 896 l 1,28,-1
1046 298 m 1,32,-1
 1046 448 l 1,33,-1
 896 448 l 1,34,-1
 896 298 l 1,35,-1
 1046 298 l 1,32,-1
1046 598 m 1,36,-1
 1046 746 l 1,37,-1
 896 746 l 1,38,-1
 896 598 l 1,39,-1
 1046 598 l 1,36,-1
1046 896 m 1,40,-1
 1046 1046 l 1,41,-1
 896 1046 l 1,42,-1
 896 896 l 1,43,-1
 1046 896 l 1,40,-1
EndSplineSet
EndChar

StartChar: uniF19E
Encoding: 61854 61854 160
Width: 1494
Flags: W
LayerCount: 2
Fore
SplineSet
1194 1270 m 1,0,-1
 1494 1270 l 1,1,-1
 1494 224 l 2,2,3
 1494 161 1494 161 1450.5 117.5 c 128,-1,4
 1407 74 1407 74 1344 74 c 2,5,-1
 150 74 l 2,6,7
 87 74 87 74 43.5 117.5 c 128,-1,8
 0 161 0 161 0 224 c 2,9,-1
 0 1120 l 2,10,11
 0 1183 0 1183 44 1226.5 c 128,-1,12
 88 1270 88 1270 150 1270 c 2,13,-1
 224 1270 l 1,14,-1
 374 970 l 1,15,-1
 598 970 l 1,16,-1
 448 1270 l 1,17,-1
 598 1270 l 1,18,-1
 746 970 l 1,19,-1
 970 970 l 1,20,-1
 822 1270 l 1,21,-1
 970 1270 l 1,22,-1
 1120 970 l 1,23,-1
 1344 970 l 1,24,-1
 1194 1270 l 1,0,-1
EndSplineSet
EndChar

StartChar: uniF19F
Encoding: 61855 61855 161
Width: 1505
Flags: W
LayerCount: 2
Fore
SplineSet
1505 882 m 0,0,1
 1505 682 1505 682 1373.5 535 c 128,-1,2
 1242 388 1242 388 1046 364 c 1,3,-1
 1046 74 l 1,4,-1
 1270 74 l 1,5,-1
 1270 -74 l 1,6,-1
 74 -74 l 1,7,-1
 74 298 l 1,8,-1
 0 298 l 1,9,-1
 0 598 l 2,10,11
 0 626 0 626 23 649 c 128,-1,12
 46 672 46 672 74 672 c 2,13,-1
 298 672 l 2,14,15
 330 672 330 672 352 649 c 128,-1,16
 374 626 374 626 374 598 c 2,17,-1
 374 298 l 1,18,-1
 298 298 l 1,19,-1
 298 74 l 1,20,-1
 896 74 l 1,21,-1
 896 368 l 1,22,23
 710 400 710 400 586 545 c 128,-1,24
 462 690 462 690 462 882 c 0,25,26
 462 1099 462 1099 614 1253 c 128,-1,27
 766 1407 766 1407 983 1407 c 128,-1,28
 1200 1407 1200 1407 1352.5 1253 c 128,-1,29
 1505 1099 1505 1099 1505 882 c 0,0,1
187 746 m 128,-1,31
 140 746 140 746 107 779 c 128,-1,32
 74 812 74 812 74 859 c 128,-1,33
 74 906 74 906 107 938 c 128,-1,34
 140 970 140 970 187 970 c 128,-1,35
 234 970 234 970 266 938 c 128,-1,36
 298 906 298 906 298 859 c 128,-1,37
 298 812 298 812 266 779 c 128,-1,30
 234 746 234 746 187 746 c 128,-1,31
EndSplineSet
EndChar

StartChar: uniF1A0
Encoding: 61856 61856 162
Width: 1057
Flags: W
LayerCount: 2
Fore
SplineSet
598 364 m 1,0,-1
 598 74 l 1,1,-1
 1046 74 l 1,2,-1
 1046 -74 l 1,3,-1
 0 -74 l 1,4,-1
 0 74 l 1,5,-1
 448 74 l 1,6,-1
 448 368 l 1,7,8
 262 400 262 400 138 545 c 128,-1,9
 14 690 14 690 14 882 c 0,10,11
 14 1099 14 1099 166 1253 c 128,-1,12
 318 1407 318 1407 535 1407 c 128,-1,13
 752 1407 752 1407 904.5 1253 c 128,-1,14
 1057 1099 1057 1099 1057 882 c 0,15,16
 1057 682 1057 682 925.5 535 c 128,-1,17
 794 388 794 388 598 364 c 1,0,-1
EndSplineSet
EndChar

StartChar: uniF1A1
Encoding: 61857 61857 163
Width: 1120
Flags: W
LayerCount: 2
Fore
SplineSet
560 1418 m 1,0,-1
 1120 52 l 1,1,-1
 1068 0 l 1,2,-1
 560 224 l 1,3,-1
 52 0 l 1,4,-1
 0 52 l 1,5,-1
 560 1418 l 1,0,-1
EndSplineSet
EndChar

StartChar: uniF1A2
Encoding: 61858 61858 164
Width: 1344
Flags: W
LayerCount: 2
Fore
SplineSet
1194 1270 m 2,0,1
 1257 1270 1257 1270 1300.5 1226.5 c 128,-1,2
 1344 1183 1344 1183 1344 1120 c 2,3,-1
 1344 224 l 2,4,5
 1344 161 1344 161 1300 117.5 c 128,-1,6
 1256 74 1256 74 1194 74 c 2,7,-1
 896 74 l 1,8,-1
 896 224 l 1,9,-1
 1194 224 l 1,10,-1
 1194 970 l 1,11,-1
 150 970 l 1,12,-1
 150 224 l 1,13,-1
 448 224 l 1,14,-1
 448 74 l 1,15,-1
 150 74 l 2,16,17
 87 74 87 74 43.5 117.5 c 128,-1,18
 0 161 0 161 0 224 c 2,19,-1
 0 1120 l 2,20,21
 0 1183 0 1183 44 1226.5 c 128,-1,22
 88 1270 88 1270 150 1270 c 2,23,-1
 1194 1270 l 2,0,1
672 822 m 1,24,-1
 970 522 l 1,25,-1
 746 522 l 1,26,-1
 746 74 l 1,27,-1
 598 74 l 1,28,-1
 598 522 l 1,29,-1
 374 522 l 1,30,-1
 672 822 l 1,24,-1
EndSplineSet
EndChar

StartChar: uniF1A3
Encoding: 61859 61859 165
Width: 1344
Flags: W
LayerCount: 2
Fore
SplineSet
1194 150 m 1,0,-1
 1194 672 l 1,1,-1
 1344 672 l 1,2,-1
 1344 150 l 2,3,4
 1344 87 1344 87 1300 43.5 c 128,-1,5
 1256 0 1256 0 1194 0 c 2,6,-1
 150 0 l 2,7,8
 87 0 87 0 43.5 44 c 128,-1,9
 0 88 0 88 0 150 c 2,10,-1
 0 1194 l 2,11,12
 0 1257 0 1257 44 1300.5 c 128,-1,13
 88 1344 88 1344 150 1344 c 2,14,-1
 672 1344 l 1,15,-1
 672 1194 l 1,16,-1
 150 1194 l 1,17,-1
 150 150 l 1,18,-1
 1194 150 l 1,0,-1
822 1344 m 1,19,-1
 1344 1344 l 1,20,-1
 1344 822 l 1,21,-1
 1194 822 l 1,22,-1
 1194 1088 l 1,23,-1
 462 357 l 1,24,-1
 357 462 l 1,25,-1
 1088 1194 l 1,26,-1
 822 1194 l 1,27,-1
 822 1344 l 1,19,-1
EndSplineSet
EndChar

StartChar: uniF1A4
Encoding: 61860 61860 166
Width: 1344
Flags: W
LayerCount: 2
Fore
SplineSet
672 1344 m 256,0,1
 952 1344 952 1344 1148 1169 c 128,-1,2
 1344 994 1344 994 1344 746 c 0,3,4
 1344 592 1344 592 1234 483 c 128,-1,5
 1124 374 1124 374 970 374 c 2,6,-1
 840 374 l 2,7,8
 791 374 791 374 759.5 341 c 128,-1,9
 728 308 728 308 728 262 c 0,10,11
 728 220 728 220 756 189 c 0,12,13
 784 154 784 154 784 112 c 0,14,15
 784 66 784 66 751 33 c 128,-1,16
 718 0 718 0 672 0 c 0,17,18
 392 0 392 0 196 196 c 128,-1,19
 0 392 0 392 0 672 c 128,-1,20
 0 952 0 952 196 1148 c 128,-1,21
 392 1344 392 1344 672 1344 c 256,0,1
261 672 m 128,-1,23
 308 672 308 672 341 705 c 128,-1,24
 374 738 374 738 374 784 c 128,-1,25
 374 830 374 830 341 863 c 128,-1,26
 308 896 308 896 261 896 c 128,-1,27
 214 896 214 896 182 863 c 128,-1,28
 150 830 150 830 150 784 c 128,-1,29
 150 738 150 738 182 705 c 128,-1,22
 214 672 214 672 261 672 c 128,-1,23
485 970 m 128,-1,31
 532 970 532 970 565 1003 c 128,-1,32
 598 1036 598 1036 598 1083 c 128,-1,33
 598 1130 598 1130 565 1162 c 128,-1,34
 532 1194 532 1194 485 1194 c 128,-1,35
 438 1194 438 1194 406 1162 c 128,-1,36
 374 1130 374 1130 374 1083 c 128,-1,37
 374 1036 374 1036 406 1003 c 128,-1,30
 438 970 438 970 485 970 c 128,-1,31
859 970 m 128,-1,39
 906 970 906 970 938 1003 c 128,-1,40
 970 1036 970 1036 970 1083 c 128,-1,41
 970 1130 970 1130 938 1162 c 128,-1,42
 906 1194 906 1194 859 1194 c 128,-1,43
 812 1194 812 1194 779 1162 c 128,-1,44
 746 1130 746 1130 746 1083 c 128,-1,45
 746 1036 746 1036 779 1003 c 128,-1,38
 812 970 812 970 859 970 c 128,-1,39
1083 672 m 128,-1,47
 1130 672 1130 672 1162 705 c 128,-1,48
 1194 738 1194 738 1194 784 c 128,-1,49
 1194 830 1194 830 1162 863 c 128,-1,50
 1130 896 1130 896 1083 896 c 128,-1,51
 1036 896 1036 896 1003 863 c 128,-1,52
 970 830 970 830 970 784 c 128,-1,53
 970 738 970 738 1003 705 c 128,-1,46
 1036 672 1036 672 1083 672 c 128,-1,47
EndSplineSet
EndChar

StartChar: uniF1A5
Encoding: 61861 61861 167
Width: 969
Flags: W
LayerCount: 2
Fore
SplineSet
522 1344 m 2,0,1
 708 1344 708 1344 839 1213 c 128,-1,2
 970 1082 970 1082 970 896 c 128,-1,3
 970 710 970 710 838.5 579 c 0,4,5
 708 448 708 448 522 448 c 2,6,-1
 298 448 l 1,7,-1
 298 0 l 1,8,-1
 0 0 l 1,9,-1
 0 1344 l 1,10,-1
 522 1344 l 2,0,1
539 746 m 2,11,12
 599 746 599 746 642.5 789.5 c 128,-1,13
 686 833 686 833 686 896 c 128,-1,14
 686 959 686 959 642 1002.5 c 128,-1,15
 598 1046 598 1046 539 1046 c 2,16,-1
 298 1046 l 1,17,-1
 298 746 l 1,18,-1
 539 746 l 2,11,12
EndSplineSet
EndChar

StartChar: uniF1A6
Encoding: 61862 61862 168
Width: 1344
Flags: W
LayerCount: 2
Fore
SplineSet
1194 1418 m 2,0,1
 1257 1418 1257 1418 1300.5 1374 c 128,-1,2
 1344 1330 1344 1330 1344 1270 c 2,3,-1
 1344 224 l 2,4,5
 1344 161 1344 161 1300 117.5 c 128,-1,6
 1256 74 1256 74 1194 74 c 2,7,-1
 896 74 l 1,8,-1
 672 -150 l 1,9,-1
 448 74 l 1,10,-1
 150 74 l 2,11,12
 87 74 87 74 43.5 117.5 c 128,-1,13
 0 161 0 161 0 224 c 2,14,-1
 0 1270 l 2,15,16
 0 1330 0 1330 44 1374 c 128,-1,17
 88 1418 88 1418 150 1418 c 2,18,-1
 1194 1418 l 2,0,1
672 1172 m 128,-1,20
 588 1172 588 1172 528.5 1113 c 128,-1,21
 469 1054 469 1054 469 970 c 128,-1,22
 469 886 469 886 528.5 828 c 128,-1,23
 588 770 588 770 672 770 c 128,-1,24
 756 770 756 770 815.5 828 c 128,-1,25
 875 886 875 886 875 970 c 128,-1,26
 875 1054 875 1054 815.5 1113 c 128,-1,19
 756 1172 756 1172 672 1172 c 128,-1,20
1120 374 m 1,27,-1
 1120 441 l 2,28,29
 1120 511 1120 511 1038 565.5 c 128,-1,30
 956 620 956 620 854 646 c 128,-1,31
 752 672 752 672 672 672 c 128,-1,32
 592 672 592 672 490 646 c 128,-1,33
 388 620 388 620 306 565.5 c 128,-1,34
 224 511 224 511 224 441 c 2,35,-1
 224 374 l 1,36,-1
 1120 374 l 1,27,-1
EndSplineSet
EndChar

StartChar: uniF1A7
Encoding: 61863 61863 169
Width: 1344
Flags: W
LayerCount: 2
Fore
SplineSet
1194 1418 m 2,0,1
 1257 1418 1257 1418 1300.5 1374 c 128,-1,2
 1344 1330 1344 1330 1344 1270 c 2,3,-1
 1344 224 l 2,4,5
 1344 161 1344 161 1300 117.5 c 128,-1,6
 1256 74 1256 74 1194 74 c 2,7,-1
 896 74 l 1,8,-1
 672 -150 l 1,9,-1
 448 74 l 1,10,-1
 150 74 l 2,11,12
 87 74 87 74 43.5 117.5 c 128,-1,13
 0 161 0 161 0 224 c 2,14,-1
 0 1270 l 2,15,16
 0 1330 0 1330 44 1374 c 128,-1,17
 88 1418 88 1418 150 1418 c 2,18,-1
 1194 1418 l 2,0,1
812 606 m 1,19,-1
 1120 746 l 1,20,-1
 812 886 l 1,21,-1
 672 1194 l 1,22,-1
 532 886 l 1,23,-1
 224 746 l 1,24,-1
 532 606 l 1,25,-1
 672 298 l 1,26,-1
 812 606 l 1,19,-1
EndSplineSet
EndChar

StartChar: uniF1A8
Encoding: 61864 61864 170
Width: 1046
Flags: W
LayerCount: 2
Fore
SplineSet
970 970 m 0,0,1
 970 876 970 876 924 756.5 c 128,-1,2
 878 637 878 637 812 535.5 c 128,-1,3
 746 434 746 434 681 343 c 128,-1,4
 616 252 616 252 570 203 c 2,5,-1
 522 150 l 1,6,7
 504 168 504 168 474 203 c 128,-1,8
 444 238 444 238 367 339.5 c 128,-1,9
 290 441 290 441 231 537.5 c 128,-1,10
 172 634 172 634 123 754.5 c 0,11,12
 74 876 74 876 74 970 c 0,13,14
 74 1156 74 1156 205 1287 c 128,-1,15
 336 1418 336 1418 521.5 1418 c 128,-1,16
 707 1418 707 1418 838.5 1287 c 128,-1,17
 970 1156 970 1156 970 970 c 0,0,1
374 971 m 128,-1,19
 374 910 374 910 418 866 c 128,-1,20
 462 822 462 822 523 822 c 128,-1,21
 584 822 584 822 628 866 c 128,-1,22
 672 910 672 910 672 971 c 128,-1,23
 672 1032 672 1032 628 1076 c 128,-1,24
 584 1120 584 1120 523 1120 c 128,-1,25
 462 1120 462 1120 418 1076 c 128,-1,18
 374 1032 374 1032 374 971 c 128,-1,19
0 74 m 1,26,-1
 1046 74 l 1,27,-1
 1046 -74 l 1,28,-1
 0 -74 l 1,29,-1
 0 74 l 1,26,-1
EndSplineSet
EndChar

StartChar: uniF1A9
Encoding: 61865 61865 171
Width: 1344
Flags: W
LayerCount: 2
Fore
SplineSet
1194 1418 m 2,0,1
 1257 1418 1257 1418 1300.5 1374 c 128,-1,2
 1344 1330 1344 1330 1344 1270 c 2,3,-1
 1344 224 l 2,4,5
 1344 161 1344 161 1300 117.5 c 128,-1,6
 1256 74 1256 74 1194 74 c 2,7,-1
 896 74 l 1,8,-1
 672 -150 l 1,9,-1
 448 74 l 1,10,-1
 150 74 l 2,11,12
 87 74 87 74 43.5 117.5 c 128,-1,13
 0 161 0 161 0 224 c 2,14,-1
 0 1270 l 2,15,16
 0 1330 0 1330 44 1374 c 128,-1,17
 88 1418 88 1418 150 1418 c 2,18,-1
 1194 1418 l 2,0,1
746 224 m 1,19,-1
 746 374 l 1,20,-1
 598 374 l 1,21,-1
 598 224 l 1,22,-1
 746 224 l 1,19,-1
900 802 m 2,23,24
 970 872 970 872 970 970 c 0,25,26
 970 1096 970 1096 882 1183 c 128,-1,27
 794 1270 794 1270 672 1270 c 128,-1,28
 550 1270 550 1270 462 1183 c 128,-1,29
 374 1096 374 1096 374 970 c 1,30,-1
 522 970 l 1,31,32
 522 1033 522 1033 565.5 1076.5 c 128,-1,33
 609 1120 609 1120 672 1120 c 128,-1,34
 735 1120 735 1120 778.5 1076 c 128,-1,35
 822 1032 822 1032 822 970 c 0,36,37
 822 910 822 910 777 864 c 2,38,-1
 686 770 l 2,39,40
 598 682 598 682 598 560 c 2,41,-1
 598 522 l 1,42,-1
 746 522 l 1,43,44
 746 599 746 599 767 642.5 c 128,-1,45
 788 686 788 686 833 735 c 2,46,-1
 900 802 l 2,23,24
EndSplineSet
EndChar

StartChar: uniF1AA
Encoding: 61866 61866 172
Width: 1344
Flags: W
LayerCount: 2
Fore
SplineSet
746 1082 m 0,0,1
 666 1082 666 1082 609 1018 c 1,2,-1
 371 1256 l 1,3,4
 526 1418 526 1418 746 1418 c 0,5,6
 963 1418 963 1418 1116.5 1265.5 c 128,-1,7
 1270 1113 1270 1113 1270 896 c 0,8,9
 1270 728 1270 728 1141 486 c 1,10,-1
 872 760 l 1,11,12
 934 816 934 816 934 896 c 0,13,14
 934 973 934 973 878.5 1027.5 c 128,-1,15
 823 1082 823 1082 746 1082 c 0,0,1
1074 368 m 1,16,-1
 1344 94 l 1,17,-1
 1250 0 l 1,18,-1
 998 248 l 1,19,20
 942 168 942 168 879 86 c 128,-1,21
 816 4 816 4 780 -35 c 2,22,-1
 746 -74 l 1,23,24
 725 -53 725 -53 689.5 -10.5 c 128,-1,25
 654 32 654 32 565 152.5 c 128,-1,26
 476 273 476 273 406 386.5 c 128,-1,27
 336 500 336 500 280 644 c 128,-1,28
 224 788 224 788 224 896 c 0,29,30
 224 952 224 952 238 1012 c 1,31,-1
 0 1250 l 1,32,-1
 94 1344 l 1,33,-1
 718 721 l 1,34,-1
 728 710 l 1,35,-1
 1074 368 l 1,16,-1
EndSplineSet
EndChar

StartChar: uniF1AB
Encoding: 61867 61867 173
Width: 1046
Flags: W
LayerCount: 2
Fore
SplineSet
521 1418 m 128,-1,1
 738 1418 738 1418 892 1265.5 c 128,-1,2
 1046 1113 1046 1113 1046 896 c 0,3,4
 1046 788 1046 788 992 646 c 128,-1,5
 938 504 938 504 861 383 c 128,-1,6
 784 262 784 262 707 155.5 c 128,-1,7
 630 49 630 49 578 -14 c 1,8,-1
 522 -74 l 1,9,10
 501 -53 501 -53 465.5 -10.5 c 128,-1,11
 430 32 430 32 341 152.5 c 128,-1,12
 252 273 252 273 182 386.5 c 128,-1,13
 112 500 112 500 56 644 c 128,-1,14
 0 788 0 788 0 896 c 0,15,16
 0 1113 0 1113 152 1265.5 c 128,-1,0
 304 1418 304 1418 521 1418 c 128,-1,1
521 710 m 128,-1,18
 598 710 598 710 654 764.5 c 128,-1,19
 710 819 710 819 710 896 c 128,-1,20
 710 973 710 973 654 1027.5 c 128,-1,21
 598 1082 598 1082 521 1082 c 128,-1,22
 444 1082 444 1082 390 1027.5 c 128,-1,23
 336 973 336 973 336 896 c 128,-1,24
 336 819 336 819 390 764.5 c 128,-1,17
 444 710 444 710 521 710 c 128,-1,18
EndSplineSet
EndChar

StartChar: uniF1AC
Encoding: 61868 61868 174
Width: 1344
Flags: W
LayerCount: 2
Fore
SplineSet
672 1418 m 128,-1,1
 868 1418 868 1418 1041 1339 c 128,-1,2
 1214 1260 1214 1260 1344 1120 c 1,3,-1
 672 -74 l 1,4,-1
 0 1120 l 1,5,6
 126 1260 126 1260 301 1339 c 128,-1,0
 476 1418 476 1418 672 1418 c 128,-1,1
298 1045 m 128,-1,8
 298 984 298 984 341.5 940 c 128,-1,9
 385 896 385 896 446.5 896 c 128,-1,10
 508 896 508 896 551.5 940 c 128,-1,11
 595 984 595 984 595 1045 c 128,-1,12
 595 1106 595 1106 551.5 1150 c 128,-1,13
 508 1194 508 1194 446.5 1194 c 128,-1,14
 385 1194 385 1194 341.5 1150 c 128,-1,7
 298 1106 298 1106 298 1045 c 128,-1,8
670.5 448 m 128,-1,16
 732 448 732 448 775.5 492 c 128,-1,17
 819 536 819 536 819 597 c 128,-1,18
 819 658 819 658 775.5 702 c 128,-1,19
 732 746 732 746 670.5 746 c 128,-1,20
 609 746 609 746 565.5 702 c 128,-1,21
 522 658 522 658 522 597 c 128,-1,22
 522 536 522 536 565.5 492 c 128,-1,15
 609 448 609 448 670.5 448 c 128,-1,16
EndSplineSet
EndChar

StartChar: uniF1AD
Encoding: 61869 61869 175
Width: 1498
Flags: W
LayerCount: 2
Fore
SplineSet
1176 672 m 1,0,-1
 1477 374 l 2,1,2
 1498 350 1498 350 1498 320 c 128,-1,3
 1498 290 1498 290 1477 270 c 2,4,-1
 1152 -56 l 2,5,6
 1131 -77 1131 -77 1099 -77 c 256,7,8
 1066 -77 1066 -77 1046 -56 c 2,9,-1
 749 242 l 1,10,-1
 452 -56 l 2,11,12
 431 -77 431 -77 399.5 -77 c 128,-1,13
 368 -77 368 -77 346 -56 c 2,14,-1
 21 270 l 2,15,16
 0 291 0 291 0 320.5 c 128,-1,17
 0 350 0 350 21 374 c 2,18,-1
 318 672 l 1,19,-1
 21 966 l 2,20,21
 0 990 0 990 0 1020 c 128,-1,22
 0 1050 0 1050 21 1074 c 2,23,-1
 346 1396 l 2,24,25
 367 1417 367 1417 397 1417.5 c 0,26,27
 428 1418 428 1418 452 1396 c 2,28,-1
 749 1099 l 1,29,-1
 1046 1396 l 2,30,31
 1067 1417 1067 1417 1098.5 1417.5 c 128,-1,32
 1130 1418 1130 1418 1152 1396 c 2,33,-1
 1474 1074 l 2,34,35
 1498 1050 1498 1050 1498 1020 c 128,-1,36
 1498 990 1498 990 1474 966 c 2,37,-1
 1176 672 l 1,0,-1
749 896 m 128,-1,39
 718 896 718 896 697 873 c 128,-1,40
 676 850 676 850 676 820.5 c 128,-1,41
 676 791 676 791 697 768.5 c 128,-1,42
 718 746 718 746 749 746 c 128,-1,43
 780 746 780 746 803 768.5 c 128,-1,44
 826 791 826 791 826 820.5 c 128,-1,45
 826 850 826 850 803 873 c 128,-1,38
 780 896 780 896 749 896 c 128,-1,39
399 749 m 1,46,-1
 668 1022 l 1,47,-1
 399 1292 l 1,48,-1
 126 1018 l 1,49,-1
 399 749 l 1,46,-1
600 598 m 128,-1,51
 630 598 630 598 653 619 c 128,-1,52
 676 640 676 640 676 672 c 128,-1,53
 676 704 676 704 653 725 c 128,-1,54
 630 746 630 746 600 746 c 128,-1,55
 570 746 570 746 547.5 725 c 128,-1,56
 525 704 525 704 525 672 c 128,-1,57
 525 640 525 640 547.5 619 c 128,-1,50
 570 598 570 598 600 598 c 128,-1,51
749 448 m 128,-1,59
 780 448 780 448 803 471 c 128,-1,60
 826 494 826 494 826 523.5 c 128,-1,61
 826 553 826 553 803 575.5 c 128,-1,62
 780 598 780 598 749 598 c 128,-1,63
 718 598 718 598 697 575.5 c 128,-1,64
 676 553 676 553 676 523.5 c 128,-1,65
 676 494 676 494 697 471 c 128,-1,58
 718 448 718 448 749 448 c 128,-1,59
899.5 746 m 128,-1,67
 868 746 868 746 847 725 c 128,-1,68
 826 704 826 704 826 672 c 128,-1,69
 826 640 826 640 847 619 c 128,-1,70
 868 598 868 598 899.5 598 c 128,-1,71
 931 598 931 598 952 619 c 128,-1,72
 973 640 973 640 973 672 c 128,-1,73
 973 704 973 704 952 725 c 128,-1,66
 931 746 931 746 899.5 746 c 128,-1,67
1099 49 m 1,74,-1
 1368 322 l 1,75,-1
 1099 592 l 1,76,-1
 826 318 l 1,77,-1
 1099 49 l 1,74,-1
EndSplineSet
EndChar

StartChar: uniF1AE
Encoding: 61870 61870 176
Width: 1193
Flags: W
LayerCount: 2
Fore
SplineSet
224 -224 m 1,0,-1
 224 -74 l 1,1,-1
 374 -74 l 1,2,-1
 374 -224 l 1,3,-1
 224 -224 l 1,0,-1
522 -224 m 1,4,-1
 522 -74 l 1,5,-1
 672 -74 l 1,6,-1
 672 -224 l 1,7,-1
 522 -224 l 1,4,-1
672 1418 m 1,8,-1
 672 672 l 1,9,-1
 522 672 l 1,10,-1
 522 1418 l 1,11,-1
 672 1418 l 1,8,-1
938 1236 m 1,12,13
 1057 1156 1057 1156 1125.5 1026 c 128,-1,14
 1194 896 1194 896 1194 746 c 0,15,16
 1194 501 1194 501 1019 325.5 c 128,-1,17
 844 150 844 150 597 150 c 128,-1,18
 350 150 350 150 175 325 c 128,-1,19
 0 500 0 500 0 746 c 0,20,21
 0 896 0 896 68 1025.5 c 0,22,23
 136 1156 136 1156 256 1236 c 1,24,-1
 364 1130 l 1,25,26
 266 1067 266 1067 208 965.5 c 128,-1,27
 150 864 150 864 150 746 c 0,28,29
 150 560 150 560 281.5 429 c 128,-1,30
 413 298 413 298 598.5 298 c 128,-1,31
 784 298 784 298 915 429 c 128,-1,32
 1046 560 1046 560 1046 746 c 0,33,34
 1046 865 1046 865 987 966.5 c 128,-1,35
 928 1068 928 1068 830 1127 c 1,36,-1
 938 1236 l 1,12,13
822 -224 m 1,37,-1
 822 -74 l 1,38,-1
 970 -74 l 1,39,-1
 970 -224 l 1,40,-1
 822 -224 l 1,37,-1
EndSplineSet
EndChar

StartChar: uniF1AF
Encoding: 61871 61871 177
Width: 1344
Flags: W
LayerCount: 2
Fore
SplineSet
746 1344 m 1,0,-1
 746 598 l 1,1,-1
 598 598 l 1,2,-1
 598 1344 l 1,3,-1
 746 1344 l 1,0,-1
1106 1183 m 1,4,5
 1344 980 1344 980 1344 672 c 0,6,7
 1344 392 1344 392 1148 196 c 128,-1,8
 952 0 952 0 672 0 c 128,-1,9
 392 0 392 0 196 196 c 128,-1,10
 0 392 0 392 0 672 c 0,11,12
 0 980 0 980 238 1183 c 1,13,-1
 343 1078 l 1,14,15
 150 920 150 920 150 672 c 0,16,17
 150 455 150 455 302.5 302.5 c 128,-1,18
 455 150 455 150 672 150 c 128,-1,19
 889 150 889 150 1041.5 302.5 c 128,-1,20
 1194 455 1194 455 1194 672 c 0,21,22
 1194 920 1194 920 1001 1074 c 1,23,-1
 1106 1183 l 1,4,5
EndSplineSet
EndChar

StartChar: uniF1B0
Encoding: 61872 61872 178
Width: 1494
Flags: W
LayerCount: 2
Fore
SplineSet
1270 970 m 2,0,1
 1361 970 1361 970 1427.5 905 c 128,-1,2
 1494 840 1494 840 1494 746 c 2,3,-1
 1494 298 l 1,4,-1
 1194 298 l 1,5,-1
 1194 0 l 1,6,-1
 298 0 l 1,7,-1
 298 298 l 1,8,-1
 0 298 l 1,9,-1
 0 746 l 2,10,11
 0 840 0 840 65 905 c 128,-1,12
 130 970 130 970 224 970 c 2,13,-1
 1270 970 l 2,0,1
1046 150 m 1,14,-1
 1046 522 l 1,15,-1
 448 522 l 1,16,-1
 448 150 l 1,17,-1
 1046 150 l 1,14,-1
1268.5 672 m 128,-1,19
 1298 672 1298 672 1321 695 c 128,-1,20
 1344 718 1344 718 1344 747.5 c 128,-1,21
 1344 777 1344 777 1321 799.5 c 128,-1,22
 1298 822 1298 822 1268.5 822 c 128,-1,23
 1239 822 1239 822 1216.5 799.5 c 128,-1,24
 1194 777 1194 777 1194 747.5 c 128,-1,25
 1194 718 1194 718 1216.5 695 c 128,-1,18
 1239 672 1239 672 1268.5 672 c 128,-1,19
1194 1344 m 1,26,-1
 1194 1046 l 1,27,-1
 298 1046 l 1,28,-1
 298 1344 l 1,29,-1
 1194 1344 l 1,26,-1
EndSplineSet
EndChar

StartChar: uniF1B1
Encoding: 61873 61873 179
Width: 1568
Flags: W
LayerCount: 2
Fore
SplineSet
1382 746 m 2,0,1
 1459 746 1459 746 1513.5 691.5 c 128,-1,2
 1568 637 1568 637 1568 560 c 128,-1,3
 1568 483 1568 483 1514 428.5 c 128,-1,4
 1460 374 1460 374 1382 374 c 2,5,-1
 1270 374 l 1,6,-1
 1270 74 l 2,7,8
 1270 14 1270 14 1226.5 -30 c 128,-1,9
 1183 -74 1183 -74 1120 -74 c 2,10,-1
 836 -74 l 1,11,-1
 836 38 l 2,12,13
 836 122 836 122 777 180 c 128,-1,14
 718 238 718 238 634 238 c 128,-1,15
 550 238 550 238 492 180 c 128,-1,16
 434 122 434 122 434 38 c 2,17,-1
 434 -74 l 1,18,-1
 150 -74 l 2,19,20
 87 -74 87 -74 43.5 -30 c 128,-1,21
 0 14 0 14 0 74 c 2,22,-1
 0 357 l 1,23,-1
 112 357 l 2,24,25
 196 357 196 357 255.5 416.5 c 128,-1,26
 315 476 315 476 315 560 c 128,-1,27
 315 644 315 644 255.5 703.5 c 128,-1,28
 196 763 196 763 112 763 c 2,29,-1
 0 763 l 1,30,-1
 0 1046 l 2,31,32
 0 1106 0 1106 44 1150 c 128,-1,33
 88 1194 88 1194 150 1194 c 2,34,-1
 448 1194 l 1,35,-1
 448 1306 l 2,36,37
 448 1383 448 1383 502 1438.5 c 128,-1,38
 556 1494 556 1494 633 1494 c 128,-1,39
 710 1494 710 1494 766 1438 c 128,-1,40
 822 1382 822 1382 822 1306 c 2,41,-1
 822 1194 l 1,42,-1
 1120 1194 l 2,43,44
 1183 1194 1183 1194 1226.5 1150 c 128,-1,45
 1270 1106 1270 1106 1270 1046 c 2,46,-1
 1270 746 l 1,47,-1
 1382 746 l 2,0,1
EndSplineSet
EndChar

StartChar: uniF1B2
Encoding: 61874 61874 180
Width: 1046
Flags: W
LayerCount: 2
Fore
SplineSet
74 298 m 1,0,-1
 224 598 l 1,1,-1
 0 598 l 1,2,-1
 0 1046 l 1,3,-1
 448 1046 l 1,4,-1
 448 598 l 1,5,-1
 298 298 l 1,6,-1
 74 298 l 1,0,-1
672 298 m 1,7,-1
 822 598 l 1,8,-1
 598 598 l 1,9,-1
 598 1046 l 1,10,-1
 1046 1046 l 1,11,-1
 1046 598 l 1,12,-1
 896 298 l 1,13,-1
 672 298 l 1,7,-1
EndSplineSet
EndChar

StartChar: uniF1B3
Encoding: 61875 61875 181
Width: 1193
Flags: W
LayerCount: 2
Fore
SplineSet
0 410 m 2,0,-1
 0 1194 l 2,1,2
 0 1288 0 1288 44 1351 c 128,-1,3
 88 1414 88 1414 177 1444 c 128,-1,4
 266 1474 266 1474 362 1484 c 128,-1,5
 458 1494 458 1494 596.5 1494 c 128,-1,6
 735 1494 735 1494 831.5 1484 c 128,-1,7
 928 1474 928 1474 1017 1444 c 128,-1,8
 1106 1414 1106 1414 1150 1351 c 128,-1,9
 1194 1288 1194 1288 1194 1194 c 2,10,-1
 1194 410 l 2,11,12
 1194 302 1194 302 1118.5 226 c 0,13,14
 1042 150 1042 150 934 150 c 1,15,-1
 1046 38 l 1,16,-1
 1046 0 l 1,17,-1
 150 0 l 1,18,-1
 150 38 l 1,19,-1
 262 150 l 1,20,21
 154 150 154 150 77 226 c 128,-1,22
 0 302 0 302 0 410 c 2,0,-1
597 298 m 128,-1,24
 658 298 658 298 702 341.5 c 128,-1,25
 746 385 746 385 746 448 c 128,-1,26
 746 511 746 511 702 554.5 c 128,-1,27
 658 598 658 598 597 598 c 128,-1,28
 536 598 536 598 492 554.5 c 128,-1,29
 448 511 448 511 448 448 c 128,-1,30
 448 385 448 385 492 341.5 c 128,-1,23
 536 298 536 298 597 298 c 128,-1,24
1046 822 m 1,31,-1
 1046 1194 l 1,32,-1
 150 1194 l 1,33,-1
 150 822 l 1,34,-1
 1046 822 l 1,31,-1
EndSplineSet
EndChar

StartChar: uniF1B4
Encoding: 61876 61876 182
Width: 1344
Flags: W
LayerCount: 2
Fore
SplineSet
1120 298 m 1,0,-1
 1120 448 l 1,1,-1
 224 448 l 1,2,-1
 224 298 l 1,3,-1
 1120 298 l 1,0,-1
1120 598 m 1,4,-1
 1120 746 l 1,5,-1
 224 746 l 1,6,-1
 224 598 l 1,7,-1
 1120 598 l 1,4,-1
1120 896 m 1,8,-1
 1120 1046 l 1,9,-1
 224 1046 l 1,10,-1
 224 896 l 1,11,-1
 1120 896 l 1,8,-1
0 -74 m 1,12,-1
 0 1418 l 1,13,-1
 112 1306 l 1,14,-1
 224 1418 l 1,15,-1
 336 1306 l 1,16,-1
 448 1418 l 1,17,-1
 560 1306 l 1,18,-1
 672 1418 l 1,19,-1
 784 1306 l 1,20,-1
 896 1418 l 1,21,-1
 1008 1306 l 1,22,-1
 1120 1418 l 1,23,-1
 1232 1306 l 1,24,-1
 1344 1418 l 1,25,-1
 1344 -74 l 1,26,-1
 1232 38 l 1,27,-1
 1120 -74 l 1,28,-1
 1008 38 l 1,29,-1
 896 -74 l 1,30,-1
 784 38 l 1,31,-1
 672 -74 l 1,32,-1
 560 38 l 1,33,-1
 448 -74 l 1,34,-1
 336 38 l 1,35,-1
 224 -74 l 1,36,-1
 112 38 l 1,37,-1
 0 -74 l 1,12,-1
EndSplineSet
EndChar

StartChar: uniF1B5
Encoding: 61877 61877 183
Width: 1641
Flags: W
LayerCount: 2
Fore
SplineSet
1344 970 m 1,0,-1
 1642 672 l 1,1,-1
 1418 672 l 1,2,3
 1418 424 1418 424 1243 249 c 128,-1,4
 1068 74 1068 74 822 74 c 0,5,6
 650 74 650 74 504 168 c 1,7,-1
 612 276 l 1,8,9
 706 224 706 224 822 224 c 0,10,11
 1008 224 1008 224 1139 355 c 128,-1,12
 1270 486 1270 486 1270 672 c 1,13,-1
 1046 672 l 1,14,-1
 1344 970 l 1,0,-1
374 672 m 1,15,-1
 598 672 l 1,16,-1
 298 374 l 1,17,-1
 0 672 l 1,18,-1
 224 672 l 1,19,20
 224 920 224 920 399 1095 c 128,-1,21
 574 1270 574 1270 822 1270 c 0,22,23
 994 1270 994 1270 1141 1176 c 1,24,-1
 1029 1068 l 1,25,26
 934 1120 934 1120 822 1120 c 0,27,28
 636 1120 636 1120 505 989 c 128,-1,29
 374 858 374 858 374 672 c 1,15,-1
EndSplineSet
EndChar

StartChar: uniF1B6
Encoding: 61878 61878 184
Width: 1344
Flags: W
LayerCount: 2
Fore
SplineSet
0 672 m 0,0,1
 0 878 0 878 126 1039 c 128,-1,2
 252 1200 252 1200 448 1250 c 1,3,-1
 448 1096 l 1,4,5
 315 1047 315 1047 232.5 931.5 c 128,-1,6
 150 816 150 816 150 672 c 0,7,8
 150 486 150 486 280 357 c 1,9,-1
 448 522 l 1,10,-1
 448 74 l 1,11,-1
 0 74 l 1,12,-1
 175 252 l 1,13,14
 0 427 0 427 0 672 c 0,0,1
598 298 m 1,15,-1
 598 448 l 1,16,-1
 746 448 l 1,17,-1
 746 298 l 1,18,-1
 598 298 l 1,15,-1
1344 1270 m 1,19,-1
 1169 1092 l 1,20,21
 1344 917 1344 917 1344 672 c 0,22,23
 1344 466 1344 466 1218 305 c 128,-1,24
 1092 144 1092 144 896 94 c 1,25,-1
 896 248 l 1,26,27
 1029 297 1029 297 1111.5 412.5 c 128,-1,28
 1194 528 1194 528 1194 672 c 0,29,30
 1194 858 1194 858 1064 987 c 1,31,-1
 896 822 l 1,32,-1
 896 1270 l 1,33,-1
 1344 1270 l 1,19,-1
598 598 m 1,34,-1
 598 1046 l 1,35,-1
 746 1046 l 1,36,-1
 746 598 l 1,37,-1
 598 598 l 1,34,-1
EndSplineSet
EndChar

StartChar: uniF1B7
Encoding: 61879 61879 185
Width: 1281
Flags: W
LayerCount: 2
Fore
SplineSet
532 1096 m 1,0,1
 514 1090 514 1090 476 1068 c 1,2,-1
 368 1180 l 1,3,4
 445 1230 445 1230 532 1250 c 1,5,-1
 532 1096 l 1,0,1
0 1166 m 1,6,-1
 94 1260 l 1,7,-1
 1267 84 l 1,8,-1
 1172 -10 l 1,9,-1
 998 164 l 1,10,11
 922 114 922 114 830 94 c 1,12,-1
 830 248 l 1,13,14
 854 258 854 258 889 276 c 1,15,-1
 284 878 l 1,16,17
 234 780 234 780 234 672 c 0,18,19
 234 486 234 486 368 357 c 1,20,-1
 532 522 l 1,21,-1
 532 74 l 1,22,-1
 84 74 l 1,23,-1
 262 252 l 1,24,25
 84 427 84 427 84 672 c 0,26,27
 84 844 84 844 175 987 c 1,28,-1
 0 1166 l 1,6,-1
1281 1270 m 1,29,-1
 1102 1092 l 1,30,31
 1280 917 1280 917 1281 672 c 0,32,33
 1281 500 1281 500 1190 357 c 1,34,-1
 1078 466 l 1,35,36
 1130 564 1130 564 1130 672 c 0,37,38
 1130 858 1130 858 998 987 c 1,39,-1
 833 822 l 1,40,-1
 833 1270 l 1,41,-1
 1281 1270 l 1,29,-1
EndSplineSet
EndChar

StartChar: uniF1B8
Encoding: 61880 61880 186
Width: 1193
Flags: W
LayerCount: 2
Fore
SplineSet
598 1270 m 1,0,1
 843 1270 843 1270 1018.5 1095 c 128,-1,2
 1194 920 1194 920 1194 672 c 0,3,4
 1194 500 1194 500 1102 354 c 1,5,-1
 994 462 l 1,6,7
 1046 560 1046 560 1046 672 c 0,8,9
 1046 858 1046 858 915 989 c 128,-1,10
 784 1120 784 1120 598 1120 c 1,11,-1
 598 896 l 1,12,-1
 298 1194 l 1,13,-1
 598 1494 l 1,14,-1
 598 1270 l 1,0,1
598 224 m 1,15,-1
 598 448 l 1,16,-1
 896 150 l 1,17,-1
 598 -150 l 1,18,-1
 598 74 l 1,19,20
 350 74 350 74 175 249 c 128,-1,21
 0 424 0 424 0 672 c 0,22,23
 0 844 0 844 91 990 c 1,24,-1
 203 882 l 1,25,26
 150 784 150 784 150 672 c 0,27,28
 150 486 150 486 281 355 c 128,-1,29
 412 224 412 224 598 224 c 1,15,-1
EndSplineSet
EndChar

StartChar: uniF1B9
Encoding: 61881 61881 187
Width: 1193
Flags: W
LayerCount: 2
Fore
SplineSet
598 1120 m 1,0,1
 412 1120 412 1120 281 989 c 128,-1,2
 150 858 150 858 150 672 c 0,3,4
 150 560 150 560 203 462 c 1,5,-1
 91 354 l 1,6,7
 0 501 0 501 0 672 c 0,8,9
 0 920 0 920 175 1095 c 128,-1,10
 350 1270 350 1270 598 1270 c 1,11,-1
 598 1494 l 1,12,-1
 896 1194 l 1,13,-1
 598 896 l 1,14,-1
 598 1120 l 1,0,1
1102 990 m 1,15,16
 1194 843 1194 843 1194 672 c 0,17,18
 1194 424 1194 424 1019 249 c 128,-1,19
 844 74 844 74 598 74 c 1,20,-1
 598 -150 l 1,21,-1
 298 150 l 1,22,-1
 598 448 l 1,23,-1
 598 224 l 1,24,25
 784 224 784 224 915 355 c 128,-1,26
 1046 486 1046 486 1046 672 c 0,27,28
 1046 780 1046 780 994 882 c 1,29,-1
 1102 990 l 1,15,16
EndSplineSet
EndChar

StartChar: uniF1BA
Encoding: 61882 61882 188
Width: 1270
Flags: W
LayerCount: 2
Fore
SplineSet
1046 1270 m 1,0,-1
 1270 1270 l 1,1,-1
 1270 672 l 1,2,-1
 672 672 l 1,3,-1
 672 0 l 2,4,5
 672 -32 672 -32 649 -53 c 128,-1,6
 626 -74 626 -74 598 -74 c 2,7,-1
 448 -74 l 2,8,9
 416 -74 416 -74 395 -53 c 128,-1,10
 374 -32 374 -32 374 0 c 2,11,-1
 374 822 l 1,12,-1
 1120 822 l 1,13,-1
 1120 1120 l 1,14,-1
 1046 1120 l 1,15,-1
 1046 1046 l 2,16,17
 1046 1014 1046 1014 1023.5 992 c 0,18,19
 1002 970 1002 970 970 970 c 2,20,-1
 74 970 l 2,21,22
 46 970 46 970 23 992.5 c 0,23,24
 0 1014 0 1014 0 1046 c 2,25,-1
 0 1344 l 2,26,27
 0 1376 0 1376 23 1397 c 128,-1,28
 46 1418 46 1418 74 1418 c 2,29,-1
 970 1418 l 2,30,31
 1002 1418 1002 1418 1024 1397 c 128,-1,32
 1046 1376 1046 1376 1046 1344 c 2,33,-1
 1046 1270 l 1,0,-1
EndSplineSet
EndChar

StartChar: uniF1BB
Encoding: 61883 61883 189
Width: 1641
Flags: W
LayerCount: 2
Fore
SplineSet
1494 1120 m 2,0,1
 1554 1120 1554 1120 1598 1076 c 128,-1,2
 1642 1032 1642 1032 1642 970 c 2,3,-1
 1642 374 l 2,4,5
 1642 311 1642 311 1598 267.5 c 128,-1,6
 1554 224 1554 224 1494 224 c 2,7,-1
 150 224 l 2,8,9
 87 224 87 224 43.5 268 c 128,-1,10
 0 312 0 312 0 374 c 2,11,-1
 0 970 l 2,12,13
 0 1033 0 1033 44 1076.5 c 128,-1,14
 88 1120 88 1120 150 1120 c 2,15,-1
 1494 1120 l 2,0,1
1494 374 m 1,16,-1
 1494 970 l 1,17,-1
 1344 970 l 1,18,-1
 1344 672 l 1,19,-1
 1194 672 l 1,20,-1
 1194 970 l 1,21,-1
 1046 970 l 1,22,-1
 1046 672 l 1,23,-1
 896 672 l 1,24,-1
 896 970 l 1,25,-1
 746 970 l 1,26,-1
 746 672 l 1,27,-1
 598 672 l 1,28,-1
 598 970 l 1,29,-1
 448 970 l 1,30,-1
 448 672 l 1,31,-1
 298 672 l 1,32,-1
 298 970 l 1,33,-1
 150 970 l 1,34,-1
 150 374 l 1,35,-1
 1494 374 l 1,16,-1
EndSplineSet
EndChar

StartChar: uniF1BC
Encoding: 61884 61884 190
Width: 1494
Flags: W
LayerCount: 2
Fore
SplineSet
570 998 m 1,0,-1
 1494 74 l 1,1,-1
 1494 0 l 1,2,-1
 1270 0 l 1,3,-1
 746 522 l 1,4,-1
 570 346 l 1,5,6
 598 286 598 286 598 224 c 0,7,8
 598 102 598 102 511 14 c 128,-1,9
 424 -74 424 -74 299.5 -74 c 128,-1,10
 175 -74 175 -74 87.5 14 c 128,-1,11
 0 102 0 102 0 224 c 128,-1,12
 0 346 0 346 87.5 434 c 0,13,14
 176 522 176 522 298 522 c 0,15,16
 364 522 364 522 420 497 c 1,17,-1
 598 672 l 1,18,-1
 420 847 l 1,19,20
 364 822 364 822 298 822 c 0,21,22
 176 822 176 822 88 910 c 128,-1,23
 0 998 0 998 0 1120 c 128,-1,24
 0 1242 0 1242 87.5 1330 c 128,-1,25
 175 1418 175 1418 299.5 1418 c 128,-1,26
 424 1418 424 1418 511 1330 c 128,-1,27
 598 1242 598 1242 598 1120 c 0,28,29
 598 1058 598 1058 570 998 c 1,0,-1
299 970 m 128,-1,31
 360 970 360 970 404 1013.5 c 128,-1,32
 448 1057 448 1057 448 1120 c 128,-1,33
 448 1183 448 1183 404 1226.5 c 128,-1,34
 360 1270 360 1270 299 1270 c 128,-1,35
 238 1270 238 1270 194 1226.5 c 128,-1,36
 150 1183 150 1183 150 1120 c 128,-1,37
 150 1057 150 1057 194 1013.5 c 128,-1,30
 238 970 238 970 299 970 c 128,-1,31
299 74 m 128,-1,39
 360 74 360 74 404 117.5 c 128,-1,40
 448 161 448 161 448 224 c 128,-1,41
 448 287 448 287 404 330.5 c 128,-1,42
 360 374 360 374 299 374 c 128,-1,43
 238 374 238 374 194 330.5 c 128,-1,44
 150 287 150 287 150 224 c 128,-1,45
 150 161 150 161 194 117.5 c 128,-1,38
 238 74 238 74 299 74 c 128,-1,39
747 634 m 128,-1,47
 784 634 784 634 784 672 c 128,-1,48
 784 710 784 710 747 710 c 128,-1,49
 710 710 710 710 710 672 c 128,-1,46
 710 634 710 634 747 634 c 128,-1,47
1270 1344 m 1,50,-1
 1494 1344 l 1,51,-1
 1494 1270 l 1,52,-1
 970 746 l 1,53,-1
 822 896 l 1,54,-1
 1270 1344 l 1,50,-1
EndSplineSet
EndChar

StartChar: uniF1BD
Encoding: 61885 61885 191
Width: 1694
Flags: W
LayerCount: 2
Fore
SplineSet
1662 616 m 2,0,1
 1694 581 1694 581 1694 535.5 c 128,-1,2
 1694 490 1694 490 1662 455 c 2,3,-1
 1186 -18 l 2,4,5
 1154 -53 1154 -53 1107 -52.5 c 128,-1,6
 1060 -52 1060 -52 1029 -18 c 2,7,-1
 130 878 l 2,8,9
 98 910 98 910 98 957 c 128,-1,10
 98 1004 98 1004 130 1036 c 2,11,-1
 606 1512 l 2,12,13
 638 1544 638 1544 685 1544 c 128,-1,14
 732 1544 732 1544 763 1512 c 2,15,-1
 948 1330 l 1,16,-1
 840 1225 l 1,17,-1
 686 1379 l 1,18,-1
 262 959 l 1,19,-1
 1106 112 l 1,20,-1
 1530 536 l 1,21,-1
 1365 700 l 1,22,-1
 1470 805 l 1,23,-1
 1662 616 l 2,0,1
556 38 m 1,24,-1
 658 136 l 1,25,-1
 942 -147 l 1,26,-1
 892 -150 l 1,27,28
 542 -150 542 -150 285 88 c 128,-1,29
 28 326 28 326 0 672 c 1,30,-1
 112 672 l 1,31,32
 133 462 133 462 251.5 294 c 128,-1,33
 370 126 370 126 556 38 c 1,24,-1
1120 896 m 2,34,35
 1088 896 1088 896 1067 919 c 128,-1,36
 1046 942 1046 942 1046 970 c 2,37,-1
 1046 1270 l 2,38,39
 1046 1298 1046 1298 1067 1321 c 128,-1,40
 1088 1344 1088 1344 1120 1344 c 1,41,-1
 1120 1382 l 2,42,43
 1120 1459 1120 1459 1174 1513.5 c 128,-1,44
 1228 1568 1228 1568 1305 1568 c 128,-1,45
 1382 1568 1382 1568 1438 1514 c 128,-1,46
 1494 1460 1494 1460 1494 1382 c 2,47,-1
 1494 1344 l 1,48,49
 1522 1344 1522 1344 1545 1321 c 128,-1,50
 1568 1298 1568 1298 1568 1270 c 2,51,-1
 1568 970 l 2,52,53
 1568 942 1568 942 1545 919 c 128,-1,54
 1522 896 1522 896 1494 896 c 2,55,-1
 1120 896 l 2,34,35
1180 1382 m 2,56,-1
 1180 1344 l 1,57,-1
 1435 1344 l 1,58,-1
 1435 1382 l 2,59,60
 1435 1434 1435 1434 1396.5 1471 c 128,-1,61
 1358 1508 1358 1508 1305.5 1508 c 128,-1,62
 1253 1508 1253 1508 1216.5 1471 c 128,-1,63
 1180 1434 1180 1434 1180 1382 c 2,56,-1
EndSplineSet
EndChar

StartChar: uniF1BE
Encoding: 61886 61886 192
Width: 1785
Flags: W
LayerCount: 2
Fore
SplineSet
1228 1379 m 1,0,-1
 1127 1281 l 1,1,-1
 844 1564 l 1,2,-1
 892 1568 l 1,3,4
 1242 1568 1242 1568 1499.5 1330 c 128,-1,5
 1757 1092 1757 1092 1785 746 c 1,6,-1
 1673 746 l 1,7,8
 1652 956 1652 956 1531 1123.5 c 128,-1,9
 1410 1291 1410 1291 1228 1379 c 1,0,-1
760 1438 m 2,10,-1
 1659 539 l 2,11,12
 1691 507 1691 507 1690.5 460 c 0,13,14
 1690 414 1690 414 1659 382 c 2,15,-1
 1183 -94 l 2,16,17
 1151 -126 1151 -126 1104 -126 c 0,18,19
 1058 -126 1058 -126 1026 -94 c 2,20,-1
 126 805 l 2,21,22
 94 837 94 837 94 884 c 0,23,24
 94 930 94 930 126 962 c 2,25,-1
 602 1438 l 2,26,27
 634 1470 634 1470 681 1470 c 128,-1,28
 728 1470 728 1470 760 1438 c 2,10,-1
1102 -14 m 1,29,-1
 1578 462 l 1,30,-1
 682 1358 l 1,31,-1
 206 882 l 1,32,-1
 1102 -14 l 1,29,-1
556 -35 m 1,33,-1
 658 63 l 1,34,-1
 942 -220 l 1,35,-1
 892 -224 l 1,36,37
 542 -224 542 -224 285 14 c 128,-1,38
 28 252 28 252 0 598 c 1,39,-1
 112 598 l 1,40,41
 133 388 133 388 251.5 220.5 c 128,-1,42
 370 53 370 53 556 -35 c 1,33,-1
EndSplineSet
EndChar

StartChar: uniF1BF
Encoding: 61887 61887 193
Width: 1494
Flags: W
LayerCount: 2
Fore
SplineSet
1120 522 m 1,0,-1
 1494 150 l 1,1,-1
 1382 38 l 1,2,-1
 1008 413 l 1,3,-1
 1008 469 l 1,4,-1
 987 490 l 1,5,6
 851 374 851 374 672 374 c 0,7,8
 539 374 539 374 427 441 c 1,9,-1
 536 550 l 1,10,11
 602 522 602 522 672 522 c 0,12,13
 812 522 812 522 910 621.5 c 128,-1,14
 1008 721 1008 721 1008 859.5 c 128,-1,15
 1008 998 1008 998 910 1096 c 128,-1,16
 812 1194 812 1194 672 1194 c 128,-1,17
 532 1194 532 1194 434 1096 c 128,-1,18
 336 998 336 998 336 858 c 1,19,-1
 598 858 l 1,20,-1
 287 560 l 1,21,-1
 0 858 l 1,22,-1
 189 858 l 1,23,24
 189 1058 189 1058 330.5 1201 c 128,-1,25
 472 1344 472 1344 672 1344 c 0,26,27
 875 1344 875 1344 1016.5 1202 c 128,-1,28
 1158 1060 1158 1060 1158 858 c 0,29,30
 1158 680 1158 680 1040 542 c 1,31,-1
 1060 522 l 1,32,-1
 1120 522 l 1,0,-1
EndSplineSet
EndChar

StartChar: uniF1C0
Encoding: 61888 61888 194
Width: 1193
Flags: W
LayerCount: 2
Fore
SplineSet
1194 105 m 1,0,-1
 910 392 l 1,1,2
 970 486 970 486 970 598 c 0,3,4
 970 752 970 752 861 861 c 128,-1,5
 752 970 752 970 598 970 c 128,-1,6
 444 970 444 970 334 861 c 128,-1,7
 224 752 224 752 224 598 c 128,-1,8
 224 444 224 444 334 334 c 128,-1,9
 444 224 444 224 598 224 c 0,10,11
 706 224 706 224 805 287 c 1,12,-1
 1134 -46 l 1,13,14
 1092 -74 1092 -74 1046 -74 c 2,15,-1
 147 -74 l 2,16,17
 87 -74 87 -74 43.5 -30 c 128,-1,18
 0 14 0 14 0 74 c 2,19,-1
 0 1270 l 2,20,21
 0 1330 0 1330 44 1374 c 128,-1,22
 88 1418 88 1418 150 1418 c 2,23,-1
 746 1418 l 1,24,-1
 1194 970 l 1,25,-1
 1194 105 l 1,0,-1
374 597 m 128,-1,27
 374 690 374 690 439 756 c 128,-1,28
 504 822 504 822 597 822 c 128,-1,29
 690 822 690 822 756 756 c 128,-1,30
 822 690 822 690 822 597 c 128,-1,31
 822 504 822 504 756 439 c 128,-1,32
 690 374 690 374 597 374 c 128,-1,33
 504 374 504 374 439 439 c 128,-1,26
 374 504 374 504 374 597 c 128,-1,27
EndSplineSet
EndChar

StartChar: uniF1C1
Encoding: 61889 61889 195
Width: 1494
Flags: W
LayerCount: 2
Fore
SplineSet
711 896 m 128,-1,1
 788 896 788 896 842 842 c 128,-1,2
 896 788 896 788 896 711 c 128,-1,3
 896 634 896 634 842 578 c 128,-1,4
 788 522 788 522 711 522 c 128,-1,5
 634 522 634 522 578 578 c 128,-1,6
 522 634 522 634 522 711 c 128,-1,7
 522 788 522 788 578 842 c 128,-1,0
 634 896 634 896 711 896 c 128,-1,1
1344 1270 m 2,8,9
 1407 1270 1407 1270 1450.5 1226.5 c 128,-1,10
 1494 1183 1494 1183 1494 1120 c 2,11,-1
 1494 224 l 2,12,13
 1494 161 1494 161 1450.5 117.5 c 128,-1,14
 1407 74 1407 74 1344 74 c 2,15,-1
 150 74 l 2,16,17
 87 74 87 74 43.5 117.5 c 128,-1,18
 0 161 0 161 0 224 c 2,19,-1
 0 1120 l 2,20,21
 0 1183 0 1183 44 1226.5 c 128,-1,22
 88 1270 88 1270 150 1270 c 2,23,-1
 1344 1270 l 2,8,9
1106 210 m 1,24,-1
 1211 315 l 1,25,-1
 994 532 l 1,26,27
 1046 612 1046 612 1046 710 c 0,28,29
 1046 850 1046 850 948 948 c 128,-1,30
 850 1046 850 1046 710 1046 c 128,-1,31
 570 1046 570 1046 472 948 c 128,-1,32
 374 850 374 850 374 710 c 128,-1,33
 374 570 374 570 472 472 c 128,-1,34
 570 374 570 374 707 374 c 0,35,36
 806 374 806 374 886 427 c 1,37,-1
 1106 210 l 1,24,-1
EndSplineSet
EndChar

StartChar: uniF1C2
Encoding: 61890 61890 196
Width: 1305
Flags: W
LayerCount: 2
Fore
SplineSet
522 1120 m 0,0,1
 389 1120 389 1120 285.5 1034 c 128,-1,2
 182 948 182 948 158 822 c 1,3,-1
 7 822 l 1,4,5
 35 1011 35 1011 180.5 1140.5 c 128,-1,6
 326 1270 326 1270 522 1270 c 0,7,8
 738 1270 738 1270 892 1116 c 1,9,-1
 1046 1270 l 1,10,-1
 1046 822 l 1,11,-1
 598 822 l 1,12,-1
 788 1012 l 1,13,14
 676 1120 676 1120 522 1120 c 0,0,1
945 438 m 1,15,-1
 1306 74 l 1,16,-1
 1194 -35 l 1,17,-1
 833 326 l 1,18,19
 694 224 694 224 522 224 c 0,20,21
 305 224 305 224 154 378 c 1,22,-1
 0 224 l 1,23,-1
 0 672 l 1,24,-1
 448 672 l 1,25,-1
 259 483 l 1,26,27
 368 374 368 374 522 374 c 0,28,29
 658 374 658 374 759.5 458 c 128,-1,30
 861 542 861 542 889 672 c 1,31,-1
 1040 672 l 1,32,33
 1022 543 1022 543 945 438 c 1,15,-1
EndSplineSet
EndChar

StartChar: uniF1C3
Encoding: 61891 61891 197
Width: 1305
Flags: W
LayerCount: 2
Fore
SplineSet
934 522 m 1,0,-1
 1306 150 l 1,1,-1
 1194 38 l 1,2,-1
 822 410 l 1,3,-1
 822 469 l 1,4,-1
 802 490 l 1,5,6
 666 374 666 374 486 374 c 0,7,8
 283 374 283 374 141.5 516 c 128,-1,9
 0 658 0 658 0 859 c 128,-1,10
 0 1060 0 1060 142 1202 c 128,-1,11
 284 1344 284 1344 485 1344 c 128,-1,12
 686 1344 686 1344 828 1202 c 128,-1,13
 970 1060 970 1060 970 858 c 0,14,15
 970 680 970 680 854 542 c 1,16,-1
 875 522 l 1,17,-1
 934 522 l 1,0,-1
486 522 m 128,-1,19
 626 522 626 522 724 620 c 128,-1,20
 822 718 822 718 822 858 c 128,-1,21
 822 998 822 998 724 1096 c 128,-1,22
 626 1194 626 1194 486 1194 c 128,-1,23
 346 1194 346 1194 248 1096 c 128,-1,24
 150 998 150 998 150 858 c 128,-1,25
 150 718 150 718 248 620 c 128,-1,18
 346 522 346 522 486 522 c 128,-1,19
EndSplineSet
EndChar

StartChar: uniF1C4
Encoding: 61892 61892 198
Width: 1494
Flags: W
LayerCount: 2
Fore
SplineSet
150 224 m 1,0,-1
 150 448 l 1,1,-1
 1344 448 l 1,2,-1
 1344 0 l 1,3,-1
 1120 0 l 1,4,-1
 1120 224 l 1,5,-1
 374 224 l 1,6,-1
 374 0 l 1,7,-1
 150 0 l 1,8,-1
 150 224 l 1,0,-1
1270 822 m 1,9,-1
 1494 822 l 1,10,-1
 1494 598 l 1,11,-1
 1270 598 l 1,12,-1
 1270 822 l 1,9,-1
0 822 m 1,13,-1
 224 822 l 1,14,-1
 224 598 l 1,15,-1
 0 598 l 1,16,-1
 0 822 l 1,13,-1
1120 598 m 1,17,-1
 374 598 l 1,18,-1
 374 1194 l 2,19,20
 374 1257 374 1257 418 1300.5 c 128,-1,21
 462 1344 462 1344 522 1344 c 2,22,-1
 970 1344 l 2,23,24
 1033 1344 1033 1344 1076.5 1300 c 128,-1,25
 1120 1256 1120 1256 1120 1194 c 2,26,-1
 1120 598 l 1,17,-1
EndSplineSet
EndChar

StartChar: uniF1C5
Encoding: 61893 61893 199
Width: 1344
Flags: W
LayerCount: 2
Fore
SplineSet
672 822 m 128,-1,1
 735 822 735 822 778.5 778.5 c 128,-1,2
 822 735 822 735 822 672 c 128,-1,3
 822 609 822 609 778.5 565.5 c 128,-1,4
 735 522 735 522 672 522 c 128,-1,5
 609 522 609 522 565.5 565.5 c 128,-1,6
 522 609 522 609 522 672 c 128,-1,7
 522 735 522 735 565.5 778.5 c 128,-1,0
 609 822 609 822 672 822 c 128,-1,1
1194 1344 m 2,8,9
 1257 1344 1257 1344 1300.5 1300 c 128,-1,10
 1344 1256 1344 1256 1344 1194 c 2,11,-1
 1344 150 l 2,12,13
 1344 87 1344 87 1300 43.5 c 128,-1,14
 1256 0 1256 0 1194 0 c 2,15,-1
 150 0 l 2,16,17
 87 0 87 0 43.5 44 c 128,-1,18
 0 88 0 88 0 150 c 2,19,-1
 0 1194 l 2,20,21
 0 1257 0 1257 44 1300.5 c 128,-1,22
 88 1344 88 1344 150 1344 c 2,23,-1
 1194 1344 l 2,8,9
1064 672 m 128,-1,25
 1064 696 1064 696 1060 724 c 1,26,-1
 1172 808 l 1,27,28
 1186 826 1186 826 1176 844 c 2,29,-1
 1071 1026 l 2,30,31
 1062 1044 1062 1044 1040 1036 c 2,32,-1
 910 984 l 1,33,34
 868 1016 868 1016 822 1036 c 1,35,-1
 802 1172 l 2,36,37
 798 1194 798 1194 777 1194 c 2,38,-1
 567 1194 l 2,39,40
 546 1194 546 1194 542 1172 c 2,41,-1
 522 1032 l 1,42,43
 473 1014 473 1014 434 984 c 1,44,-1
 304 1036 l 2,45,46
 283 1043 283 1043 273 1022 c 2,47,-1
 168 844 l 2,48,49
 158 822 158 822 172 808 c 2,50,-1
 284 724 l 1,51,52
 280 696 280 696 280 672 c 128,-1,53
 280 648 280 648 284 620 c 1,54,-1
 172 536 l 1,55,56
 158 518 158 518 168 500 c 2,57,-1
 273 318 l 2,58,59
 282 300 282 300 304 308 c 2,60,-1
 434 360 l 1,61,62
 476 328 476 328 522 308 c 1,63,-1
 542 172 l 2,64,65
 546 150 546 150 567 150 c 2,66,-1
 777 150 l 2,67,68
 798 150 798 150 802 172 c 2,69,-1
 822 312 l 1,70,71
 871 330 871 330 910 360 c 1,72,-1
 1040 308 l 2,73,74
 1061 301 1061 301 1071 322 c 2,75,-1
 1176 500 l 2,76,77
 1186 522 1186 522 1172 536 c 2,78,-1
 1060 620 l 1,79,24
 1064 648 1064 648 1064 672 c 128,-1,25
EndSplineSet
EndChar

StartChar: uniF1C6
Encoding: 61894 61894 200
Width: 1452
Flags: W
LayerCount: 2
Fore
SplineSet
1281 598 m 1,0,-1
 1438 476 l 2,1,2
 1462 455 1462 455 1449 427 c 2,3,-1
 1298 168 l 2,4,5
 1284 140 1284 140 1253 154 c 2,6,-1
 1068 228 l 1,7,8
 1006 182 1006 182 942 154 c 1,9,-1
 914 -42 l 2,10,11
 910 -74 910 -74 875 -74 c 2,12,-1
 578 -74 l 2,13,14
 546 -74 546 -74 539 -42 c 2,15,-1
 511 154 l 1,16,17
 445 182 445 182 385 228 c 1,18,-1
 200 154 l 2,19,20
 168 144 168 144 154 168 c 2,21,-1
 4 427 l 2,22,23
 -10 455 -10 455 14 476 c 2,24,-1
 172 598 l 1,25,26
 168 640 168 640 168 672 c 128,-1,27
 168 704 168 704 172 746 c 1,28,-1
 14 868 l 2,29,30
 -10 889 -10 889 4 917 c 2,31,-1
 154 1176 l 2,32,33
 172 1204 172 1204 200 1190 c 2,34,-1
 385 1116 l 1,35,36
 448 1162 448 1162 511 1190 c 1,37,-1
 539 1386 l 2,38,39
 546 1418 546 1418 578 1418 c 2,40,-1
 875 1418 l 2,41,42
 910 1418 910 1418 914 1386 c 2,43,-1
 942 1190 l 1,44,45
 1008 1162 1008 1162 1068 1116 c 1,46,-1
 1253 1190 l 2,47,48
 1284 1200 1284 1200 1298 1176 c 2,49,-1
 1449 917 l 2,50,51
 1462 889 1462 889 1438 868 c 2,52,-1
 1281 746 l 1,53,54
 1288 704 1288 704 1288 672 c 128,-1,55
 1288 640 1288 640 1281 598 c 1,0,-1
726.5 410 m 128,-1,57
 833 410 833 410 910 487 c 128,-1,58
 987 564 987 564 987 672 c 128,-1,59
 987 780 987 780 910 857 c 128,-1,60
 833 934 833 934 726.5 934 c 128,-1,61
 620 934 620 934 543 857 c 128,-1,62
 466 780 466 780 466 672 c 128,-1,63
 466 564 466 564 543 487 c 128,-1,56
 620 410 620 410 726.5 410 c 128,-1,57
EndSplineSet
EndChar

